<svg width="144" height="442" viewBox="0 0 144 442" fill="none" xmlns="http://www.w3.org/2000/svg">
<path d="M27 87C20.25 87 15.27 85.41 12.06 82.23C8.88 79.02 7.29 74.04 7.29 67.29V46.59C7.29 39.81 8.88 34.845 12.06 31.695C15.27 28.515 20.25 26.955 27 27.015H32.4C39.15 27.015 44.115 28.605 47.295 31.785C50.475 34.935 52.065 39.9 52.065 46.68V67.29C52.065 74.04 50.475 79.02 47.295 82.23C44.115 85.41 39.15 87 32.4 87H27ZM27 80.385H32.4C35.67 80.385 38.25 79.98 40.14 79.17C42.06 78.33 43.425 76.965 44.235 75.075C45.045 73.155 45.45 70.56 45.45 67.29V46.68C45.45 43.41 45.045 40.83 44.235 38.94C43.425 37.02 42.06 35.655 40.14 34.845C38.25 34.035 35.67 33.63 32.4 33.63H27C23.73 33.57 21.135 33.945 19.215 34.755C17.325 35.535 15.96 36.885 15.12 38.805C14.31 40.695 13.905 43.29 13.905 46.59V67.29C13.905 70.56 14.31 73.155 15.12 75.075C15.93 76.965 17.28 78.33 19.17 79.17C21.09 79.98 23.7 80.385 27 80.385ZM28.71 61.125C26.52 61.125 25.425 60.03 25.425 57.84V55.77C25.425 53.64 26.52 52.575 28.71 52.575H30.69C32.79 52.575 33.84 53.64 33.84 55.77V57.84C33.84 60.03 32.79 61.125 30.69 61.125H28.71ZM80.1373 87C77.9173 87 76.8073 85.89 76.8073 83.67V36.06L78.9223 34.98L69.0673 44.34C68.3773 45 67.6573 45.39 66.9073 45.51C66.1873 45.6 65.4673 45.285 64.7473 44.565C63.3073 43.125 63.3673 41.61 64.9273 40.02L76.5373 28.635C77.6173 27.525 78.9823 26.97 80.6323 26.97C82.4923 26.97 83.4223 28.08 83.4223 30.3V83.67C83.4223 85.89 82.3273 87 80.1373 87Z" fill="#EFEDF8"/>
<path d="M40 143C37.75 143 36.09 142.47 35.02 141.41C33.96 140.34 33.43 138.68 33.43 136.43V129.53C33.43 127.27 33.96 125.615 35.02 124.565C36.09 123.505 37.75 122.985 40 123.005H41.8C44.05 123.005 45.705 123.535 46.765 124.595C47.825 125.645 48.355 127.3 48.355 129.56V136.43C48.355 138.68 47.825 140.34 46.765 141.41C45.705 142.47 44.05 143 41.8 143H40ZM40 140.795H41.8C42.89 140.795 43.75 140.66 44.38 140.39C45.02 140.11 45.475 139.655 45.745 139.025C46.015 138.385 46.15 137.52 46.15 136.43V129.56C46.15 128.47 46.015 127.61 45.745 126.98C45.475 126.34 45.02 125.885 44.38 125.615C43.75 125.345 42.89 125.21 41.8 125.21H40C38.91 125.19 38.045 125.315 37.405 125.585C36.775 125.845 36.32 126.295 36.04 126.935C35.77 127.565 35.635 128.43 35.635 129.53V136.43C35.635 137.52 35.77 138.385 36.04 139.025C36.31 139.655 36.76 140.11 37.39 140.39C38.03 140.66 38.9 140.795 40 140.795ZM40.57 134.375C39.84 134.375 39.475 134.01 39.475 133.28V132.59C39.475 131.88 39.84 131.525 40.57 131.525H41.23C41.93 131.525 42.28 131.88 42.28 132.59V133.28C42.28 134.01 41.93 134.375 41.23 134.375H40.57ZM64.9954 143H53.6404C52.8904 143 52.5154 142.63 52.5154 141.89C52.5154 140.62 52.7054 139.535 53.0854 138.635C53.4754 137.725 53.9904 136.95 54.6304 136.31C55.2704 135.66 55.9804 135.09 56.7604 134.6C57.5504 134.11 58.3404 133.635 59.1304 133.175C60.2004 132.565 61.0954 132.035 61.8154 131.585C62.5454 131.125 63.0904 130.655 63.4504 130.175C63.8204 129.685 64.0054 129.09 64.0054 128.39C64.0054 127.16 63.7754 126.32 63.3154 125.87C62.8654 125.42 62.0304 125.195 60.8104 125.195H57.6004C56.5904 125.195 55.8454 125.345 55.3654 125.645C54.8954 125.945 54.6054 126.49 54.4954 127.28C54.4354 127.63 54.3154 127.9 54.1354 128.09C53.9654 128.27 53.7004 128.36 53.3404 128.36C52.9704 128.36 52.6904 128.26 52.5004 128.06C52.3104 127.86 52.2304 127.575 52.2604 127.205C52.4404 125.785 52.9654 124.73 53.8354 124.04C54.7154 123.34 55.9704 122.99 57.6004 122.99H60.8104C62.6504 122.99 64.0104 123.43 64.8904 124.31C65.7704 125.19 66.2104 126.55 66.2104 128.39C66.2104 129.53 65.9304 130.49 65.3704 131.27C64.8204 132.04 64.0854 132.72 63.1654 133.31C62.2554 133.9 61.2704 134.495 60.2104 135.095C59.2504 135.645 58.3904 136.17 57.6304 136.67C56.8704 137.17 56.2404 137.74 55.7404 138.38C55.2504 139.02 54.9354 139.825 54.7954 140.795H64.9954C65.7354 140.795 66.1054 141.16 66.1054 141.89C66.1054 142.63 65.7354 143 64.9954 143Z" fill="#EFEDF8"/>
<path d="M40 207C37.75 207 36.09 206.47 35.02 205.41C33.96 204.34 33.43 202.68 33.43 200.43V193.53C33.43 191.27 33.96 189.615 35.02 188.565C36.09 187.505 37.75 186.985 40 187.005H41.8C44.05 187.005 45.705 187.535 46.765 188.595C47.825 189.645 48.355 191.3 48.355 193.56V200.43C48.355 202.68 47.825 204.34 46.765 205.41C45.705 206.47 44.05 207 41.8 207H40ZM40 204.795H41.8C42.89 204.795 43.75 204.66 44.38 204.39C45.02 204.11 45.475 203.655 45.745 203.025C46.015 202.385 46.15 201.52 46.15 200.43V193.56C46.15 192.47 46.015 191.61 45.745 190.98C45.475 190.34 45.02 189.885 44.38 189.615C43.75 189.345 42.89 189.21 41.8 189.21H40C38.91 189.19 38.045 189.315 37.405 189.585C36.775 189.845 36.32 190.295 36.04 190.935C35.77 191.565 35.635 192.43 35.635 193.53V200.43C35.635 201.52 35.77 202.385 36.04 203.025C36.31 203.655 36.76 204.11 37.39 204.39C38.03 204.66 38.9 204.795 40 204.795ZM40.57 198.375C39.84 198.375 39.475 198.01 39.475 197.28V196.59C39.475 195.88 39.84 195.525 40.57 195.525H41.23C41.93 195.525 42.28 195.88 42.28 196.59V197.28C42.28 198.01 41.93 198.375 41.23 198.375H40.57ZM58.2304 206.985C56.5004 206.985 55.1704 206.62 54.2404 205.89C53.3104 205.16 52.7604 204.025 52.5904 202.485C52.5604 202.115 52.6404 201.83 52.8304 201.63C53.0204 201.43 53.3004 201.33 53.6704 201.33C54.3504 201.33 54.7254 201.695 54.7954 202.425C54.9254 203.315 55.2454 203.93 55.7554 204.27C56.2754 204.61 57.1004 204.78 58.2304 204.78H61.6504C62.9904 204.78 63.9054 204.535 64.3954 204.045C64.8954 203.545 65.1454 202.64 65.1454 201.33C65.1454 200.02 64.8954 199.115 64.3954 198.615C63.9054 198.115 62.9904 197.865 61.6504 197.865H59.1904C58.4504 197.865 58.0804 197.5 58.0804 196.77C58.0804 196.03 58.4504 195.66 59.1904 195.66H62.5504C63.3404 195.66 63.8904 195.375 64.2004 194.805C64.5104 194.235 64.6654 193.43 64.6654 192.39C64.6654 191.16 64.4354 190.32 63.9754 189.87C63.5254 189.42 62.6904 189.195 61.4704 189.195H58.5604C57.5504 189.195 56.8054 189.345 56.3254 189.645C55.8554 189.945 55.5654 190.49 55.4554 191.28C55.3554 192 54.9704 192.36 54.3004 192.36C53.9304 192.36 53.6504 192.26 53.4604 192.06C53.2704 191.86 53.2004 191.575 53.2504 191.205C53.4204 189.785 53.9404 188.73 54.8104 188.04C55.6904 187.34 56.9404 186.99 58.5604 186.99H61.4704C63.3104 186.99 64.6704 187.43 65.5504 188.31C66.4304 189.19 66.8704 190.55 66.8704 192.39C66.8704 194.29 66.2804 195.62 65.1004 196.38C65.8704 196.81 66.4354 197.435 66.7954 198.255C67.1654 199.065 67.3504 200.09 67.3504 201.33C67.3504 203.26 66.8904 204.685 65.9704 205.605C65.0504 206.525 63.6104 206.985 61.6504 206.985H58.2304Z" fill="#EFEDF8"/>
<path d="M40 272C37.75 272 36.09 271.47 35.02 270.41C33.96 269.34 33.43 267.68 33.43 265.43V258.53C33.43 256.27 33.96 254.615 35.02 253.565C36.09 252.505 37.75 251.985 40 252.005H41.8C44.05 252.005 45.705 252.535 46.765 253.595C47.825 254.645 48.355 256.3 48.355 258.56V265.43C48.355 267.68 47.825 269.34 46.765 270.41C45.705 271.47 44.05 272 41.8 272H40ZM40 269.795H41.8C42.89 269.795 43.75 269.66 44.38 269.39C45.02 269.11 45.475 268.655 45.745 268.025C46.015 267.385 46.15 266.52 46.15 265.43V258.56C46.15 257.47 46.015 256.61 45.745 255.98C45.475 255.34 45.02 254.885 44.38 254.615C43.75 254.345 42.89 254.21 41.8 254.21H40C38.91 254.19 38.045 254.315 37.405 254.585C36.775 254.845 36.32 255.295 36.04 255.935C35.77 256.565 35.635 257.43 35.635 258.53V265.43C35.635 266.52 35.77 267.385 36.04 268.025C36.31 268.655 36.76 269.11 37.39 269.39C38.03 269.66 38.9 269.795 40 269.795ZM40.57 263.375C39.84 263.375 39.475 263.01 39.475 262.28V261.59C39.475 260.88 39.84 260.525 40.57 260.525H41.23C41.93 260.525 42.28 260.88 42.28 261.59V262.28C42.28 263.01 41.93 263.375 41.23 263.375H40.57ZM63.6004 272C62.8604 272 62.4904 271.63 62.4904 270.89L62.5504 254.675L63.3604 254.165L54.3904 266.15L54.1654 265.595L66.3604 265.55C66.7204 265.55 66.9954 265.655 67.1854 265.865C67.3754 266.075 67.4704 266.34 67.4704 266.66C67.4704 267.39 67.1004 267.755 66.3604 267.755H53.1004C52.3604 267.755 51.9904 267.39 51.9904 266.66C51.9904 266.31 52.1404 265.925 52.4404 265.505L62.0704 252.68C62.2904 252.38 62.5154 252.19 62.7454 252.11C62.9854 252.03 63.2654 251.99 63.5854 251.99C64.3654 251.99 64.7554 252.36 64.7554 253.1L64.6954 270.89C64.6954 271.63 64.3304 272 63.6004 272Z" fill="#EFEDF8"/>
<path d="M40 401C37.75 401 36.09 400.47 35.02 399.41C33.96 398.34 33.43 396.68 33.43 394.43V387.53C33.43 385.27 33.96 383.615 35.02 382.565C36.09 381.505 37.75 380.985 40 381.005H41.8C44.05 381.005 45.705 381.535 46.765 382.595C47.825 383.645 48.355 385.3 48.355 387.56V394.43C48.355 396.68 47.825 398.34 46.765 399.41C45.705 400.47 44.05 401 41.8 401H40ZM40 398.795H41.8C42.89 398.795 43.75 398.66 44.38 398.39C45.02 398.11 45.475 397.655 45.745 397.025C46.015 396.385 46.15 395.52 46.15 394.43V387.56C46.15 386.47 46.015 385.61 45.745 384.98C45.475 384.34 45.02 383.885 44.38 383.615C43.75 383.345 42.89 383.21 41.8 383.21H40C38.91 383.19 38.045 383.315 37.405 383.585C36.775 383.845 36.32 384.295 36.04 384.935C35.77 385.565 35.635 386.43 35.635 387.53V394.43C35.635 395.52 35.77 396.385 36.04 397.025C36.31 397.655 36.76 398.11 37.39 398.39C38.03 398.66 38.9 398.795 40 398.795ZM40.57 392.375C39.84 392.375 39.475 392.01 39.475 391.28V390.59C39.475 389.88 39.84 389.525 40.57 389.525H41.23C41.93 389.525 42.28 389.88 42.28 390.59V391.28C42.28 392.01 41.93 392.375 41.23 392.375H40.57ZM58.9054 400.985C56.9554 400.985 55.5154 400.525 54.5854 399.605C53.6654 398.685 53.2054 397.26 53.2054 395.33V386.39C53.2054 384.55 53.6454 383.19 54.5254 382.31C55.4154 381.43 56.7754 380.99 58.6054 380.99H62.3254C63.9454 380.99 65.1954 381.34 66.0754 382.04C66.9554 382.73 67.4754 383.785 67.6354 385.205C67.6854 385.575 67.6154 385.86 67.4254 386.06C67.2354 386.26 66.9554 386.36 66.5854 386.36C65.9154 386.36 65.5304 386 65.4304 385.28C65.3204 384.49 65.0304 383.945 64.5604 383.645C64.0904 383.345 63.3454 383.195 62.3254 383.195H58.6054C57.3754 383.195 56.5354 383.425 56.0854 383.885C55.6354 384.335 55.4104 385.17 55.4104 386.39V389.165C56.1604 388.115 57.3254 387.59 58.9054 387.59H62.0254C63.9654 387.59 65.3954 388.055 66.3154 388.985C67.2454 389.915 67.7104 391.35 67.7104 393.29V395.3C67.7104 397.24 67.2454 398.675 66.3154 399.605C65.3954 400.525 63.9654 400.985 62.0254 400.985H58.9054ZM58.9054 398.78H62.0254C63.3554 398.78 64.2654 398.53 64.7554 398.03C65.2554 397.52 65.5054 396.61 65.5054 395.3V393.29C65.5054 391.96 65.2554 391.045 64.7554 390.545C64.2554 390.045 63.3454 389.795 62.0254 389.795H58.9054C57.5654 389.795 56.6454 390.045 56.1454 390.545C55.6554 391.045 55.4104 391.95 55.4104 393.26V395.33C55.4104 396.64 55.6554 397.545 56.1454 398.045C56.6454 398.535 57.5654 398.78 58.9054 398.78Z" fill="#EFEDF8"/>
<path d="M40 337C37.75 337 36.09 336.47 35.02 335.41C33.96 334.34 33.43 332.68 33.43 330.43V323.53C33.43 321.27 33.96 319.615 35.02 318.565C36.09 317.505 37.75 316.985 40 317.005H41.8C44.05 317.005 45.705 317.535 46.765 318.595C47.825 319.645 48.355 321.3 48.355 323.56V330.43C48.355 332.68 47.825 334.34 46.765 335.41C45.705 336.47 44.05 337 41.8 337H40ZM40 334.795H41.8C42.89 334.795 43.75 334.66 44.38 334.39C45.02 334.11 45.475 333.655 45.745 333.025C46.015 332.385 46.15 331.52 46.15 330.43V323.56C46.15 322.47 46.015 321.61 45.745 320.98C45.475 320.34 45.02 319.885 44.38 319.615C43.75 319.345 42.89 319.21 41.8 319.21H40C38.91 319.19 38.045 319.315 37.405 319.585C36.775 319.845 36.32 320.295 36.04 320.935C35.77 321.565 35.635 322.43 35.635 323.53V330.43C35.635 331.52 35.77 332.385 36.04 333.025C36.31 333.655 36.76 334.11 37.39 334.39C38.03 334.66 38.9 334.795 40 334.795ZM40.57 328.375C39.84 328.375 39.475 328.01 39.475 327.28V326.59C39.475 325.88 39.84 325.525 40.57 325.525H41.23C41.93 325.525 42.28 325.88 42.28 326.59V327.28C42.28 328.01 41.93 328.375 41.23 328.375H40.57ZM58.8454 337C57.1154 337 55.7854 336.635 54.8554 335.905C53.9254 335.165 53.3754 334.025 53.2054 332.485C53.1754 332.125 53.2554 331.845 53.4454 331.645C53.6354 331.435 53.9154 331.33 54.2854 331.33C54.9654 331.33 55.3404 331.69 55.4104 332.41C55.5404 333.3 55.8604 333.92 56.3704 334.27C56.8904 334.62 57.7154 334.795 58.8454 334.795H61.9654C63.3054 334.795 64.2204 334.545 64.7104 334.045C65.2104 333.535 65.4604 332.62 65.4604 331.3V329.23C65.4604 327.9 65.2104 326.99 64.7104 326.5C64.2104 326 63.2954 325.75 61.9654 325.75H59.7454C58.1354 325.75 56.9904 325.975 56.3104 326.425C56.0604 326.595 55.8254 326.72 55.6054 326.8C55.3854 326.88 55.1304 326.875 54.8404 326.785L54.5854 326.71C53.9754 326.54 53.6704 326.13 53.6704 325.48V318.1C53.6704 317.36 54.0354 316.99 54.7654 316.99H66.5104C67.2404 316.99 67.6054 317.36 67.6054 318.1C67.6054 318.83 67.2404 319.195 66.5104 319.195H55.8754V324.175C56.8854 323.755 58.1754 323.545 59.7454 323.545H61.9654C63.9054 323.545 65.3404 324.01 66.2704 324.94C67.2004 325.86 67.6654 327.29 67.6654 329.23V331.3C67.6654 333.24 67.2004 334.675 66.2704 335.605C65.3404 336.535 63.9054 337 61.9654 337H58.8454Z" fill="#EFEDF8"/>
</svg>
