<svg width="144" height="409" viewBox="0 0 144 409" fill="none" xmlns="http://www.w3.org/2000/svg">
<path d="M27 122C20.25 122 15.27 120.41 12.06 117.23C8.88 114.02 7.29 109.04 7.29 102.29V81.59C7.29 74.81 8.88 69.845 12.06 66.695C15.27 63.515 20.25 61.955 27 62.015H32.4C39.15 62.015 44.115 63.605 47.295 66.785C50.475 69.935 52.065 74.9 52.065 81.68V102.29C52.065 109.04 50.475 114.02 47.295 117.23C44.115 120.41 39.15 122 32.4 122H27ZM27 115.385H32.4C35.67 115.385 38.25 114.98 40.14 114.17C42.06 113.33 43.425 111.965 44.235 110.075C45.045 108.155 45.45 105.56 45.45 102.29V81.68C45.45 78.41 45.045 75.83 44.235 73.94C43.425 72.02 42.06 70.655 40.14 69.845C38.25 69.035 35.67 68.63 32.4 68.63H27C23.73 68.57 21.135 68.945 19.215 69.755C17.325 70.535 15.96 71.885 15.12 73.805C14.31 75.695 13.905 78.29 13.905 81.59V102.29C13.905 105.56 14.31 108.155 15.12 110.075C15.93 111.965 17.28 113.33 19.17 114.17C21.09 114.98 23.7 115.385 27 115.385ZM28.71 96.125C26.52 96.125 25.425 95.03 25.425 92.84V90.77C25.425 88.64 26.52 87.575 28.71 87.575H30.69C32.79 87.575 33.84 88.64 33.84 90.77V92.84C33.84 95.03 32.79 96.125 30.69 96.125H28.71ZM101.986 122H67.9212C65.6712 122 64.5462 120.89 64.5462 118.67C64.5462 114.86 65.1162 111.605 66.2562 108.905C67.4262 106.175 68.9712 103.85 70.8912 101.93C72.8112 99.98 74.9412 98.27 77.2812 96.8C79.6512 95.33 82.0212 93.905 84.3912 92.525C87.6012 90.695 90.2862 89.105 92.4462 87.755C94.6362 86.375 96.2712 84.965 97.3512 83.525C98.4612 82.055 99.0162 80.27 99.0162 78.17C99.0162 74.48 98.3262 71.96 96.9462 70.61C95.5962 69.26 93.0912 68.585 89.4312 68.585H79.8012C76.7712 68.585 74.5362 69.035 73.0962 69.935C71.6862 70.835 70.8162 72.47 70.4862 74.84C70.3062 75.89 69.9462 76.7 69.4062 77.27C68.8962 77.81 68.1012 78.08 67.0212 78.08C65.9112 78.08 65.0712 77.78 64.5012 77.18C63.9312 76.58 63.6912 75.725 63.7812 74.615C64.3212 70.355 65.8962 67.19 68.5062 65.12C71.1462 63.02 74.9112 61.97 79.8012 61.97H89.4312C94.9512 61.97 99.0312 63.29 101.671 65.93C104.311 68.57 105.631 72.65 105.631 78.17C105.631 81.59 104.791 84.47 103.111 86.81C101.461 89.12 99.2562 91.16 96.4962 92.93C93.7662 94.7 90.8112 96.485 87.6312 98.285C84.7512 99.935 82.1712 101.51 79.8912 103.01C77.6112 104.51 75.7212 106.22 74.2212 108.14C72.7512 110.06 71.8062 112.475 71.3862 115.385H101.986C104.206 115.385 105.316 116.48 105.316 118.67C105.316 120.89 104.206 122 101.986 122Z" fill="#EFEDF8"/>
<path d="M42 29C39.75 29 38.09 28.47 37.02 27.41C35.96 26.34 35.43 24.68 35.43 22.43V15.53C35.43 13.27 35.96 11.615 37.02 10.565C38.09 9.505 39.75 8.985 42 9.005H43.8C46.05 9.005 47.705 9.535 48.765 10.595C49.825 11.645 50.355 13.3 50.355 15.56V22.43C50.355 24.68 49.825 26.34 48.765 27.41C47.705 28.47 46.05 29 43.8 29H42ZM42 26.795H43.8C44.89 26.795 45.75 26.66 46.38 26.39C47.02 26.11 47.475 25.655 47.745 25.025C48.015 24.385 48.15 23.52 48.15 22.43V15.56C48.15 14.47 48.015 13.61 47.745 12.98C47.475 12.34 47.02 11.885 46.38 11.615C45.75 11.345 44.89 11.21 43.8 11.21H42C40.91 11.19 40.045 11.315 39.405 11.585C38.775 11.845 38.32 12.295 38.04 12.935C37.77 13.565 37.635 14.43 37.635 15.53V22.43C37.635 23.52 37.77 24.385 38.04 25.025C38.31 25.655 38.76 26.11 39.39 26.39C40.03 26.66 40.9 26.795 42 26.795ZM42.57 20.375C41.84 20.375 41.475 20.01 41.475 19.28V18.59C41.475 17.88 41.84 17.525 42.57 17.525H43.23C43.93 17.525 44.28 17.88 44.28 18.59V19.28C44.28 20.01 43.93 20.375 43.23 20.375H42.57ZM59.7124 29C58.9724 29 58.6024 28.63 58.6024 27.89V12.02L59.3074 11.66L56.0224 14.78C55.7924 15 55.5524 15.13 55.3024 15.17C55.0624 15.2 54.8224 15.095 54.5824 14.855C54.1024 14.375 54.1224 13.87 54.6424 13.34L58.5124 9.545C58.8724 9.175 59.3274 8.99 59.8774 8.99C60.4974 8.99 60.8074 9.36 60.8074 10.1V27.89C60.8074 28.63 60.4424 29 59.7124 29Z" fill="#EFEDF8"/>
<path d="M42 174C39.75 174 38.09 173.47 37.02 172.41C35.96 171.34 35.43 169.68 35.43 167.43V160.53C35.43 158.27 35.96 156.615 37.02 155.565C38.09 154.505 39.75 153.985 42 154.005H43.8C46.05 154.005 47.705 154.535 48.765 155.595C49.825 156.645 50.355 158.3 50.355 160.56V167.43C50.355 169.68 49.825 171.34 48.765 172.41C47.705 173.47 46.05 174 43.8 174H42ZM42 171.795H43.8C44.89 171.795 45.75 171.66 46.38 171.39C47.02 171.11 47.475 170.655 47.745 170.025C48.015 169.385 48.15 168.52 48.15 167.43V160.56C48.15 159.47 48.015 158.61 47.745 157.98C47.475 157.34 47.02 156.885 46.38 156.615C45.75 156.345 44.89 156.21 43.8 156.21H42C40.91 156.19 40.045 156.315 39.405 156.585C38.775 156.845 38.32 157.295 38.04 157.935C37.77 158.565 37.635 159.43 37.635 160.53V167.43C37.635 168.52 37.77 169.385 38.04 170.025C38.31 170.655 38.76 171.11 39.39 171.39C40.03 171.66 40.9 171.795 42 171.795ZM42.57 165.375C41.84 165.375 41.475 165.01 41.475 164.28V163.59C41.475 162.88 41.84 162.525 42.57 162.525H43.23C43.93 162.525 44.28 162.88 44.28 163.59V164.28C44.28 165.01 43.93 165.375 43.23 165.375H42.57ZM60.2304 173.985C58.5004 173.985 57.1704 173.62 56.2404 172.89C55.3104 172.16 54.7604 171.025 54.5904 169.485C54.5604 169.115 54.6404 168.83 54.8304 168.63C55.0204 168.43 55.3004 168.33 55.6704 168.33C56.3504 168.33 56.7254 168.695 56.7954 169.425C56.9254 170.315 57.2454 170.93 57.7554 171.27C58.2754 171.61 59.1004 171.78 60.2304 171.78H63.6504C64.9904 171.78 65.9054 171.535 66.3954 171.045C66.8954 170.545 67.1454 169.64 67.1454 168.33C67.1454 167.02 66.8954 166.115 66.3954 165.615C65.9054 165.115 64.9904 164.865 63.6504 164.865H61.1904C60.4504 164.865 60.0804 164.5 60.0804 163.77C60.0804 163.03 60.4504 162.66 61.1904 162.66H64.5504C65.3404 162.66 65.8904 162.375 66.2004 161.805C66.5104 161.235 66.6654 160.43 66.6654 159.39C66.6654 158.16 66.4354 157.32 65.9754 156.87C65.5254 156.42 64.6904 156.195 63.4704 156.195H60.5604C59.5504 156.195 58.8054 156.345 58.3254 156.645C57.8554 156.945 57.5654 157.49 57.4554 158.28C57.3554 159 56.9704 159.36 56.3004 159.36C55.9304 159.36 55.6504 159.26 55.4604 159.06C55.2704 158.86 55.2004 158.575 55.2504 158.205C55.4204 156.785 55.9404 155.73 56.8104 155.04C57.6904 154.34 58.9404 153.99 60.5604 153.99H63.4704C65.3104 153.99 66.6704 154.43 67.5504 155.31C68.4304 156.19 68.8704 157.55 68.8704 159.39C68.8704 161.29 68.2804 162.62 67.1004 163.38C67.8704 163.81 68.4354 164.435 68.7954 165.255C69.1654 166.065 69.3504 167.09 69.3504 168.33C69.3504 170.26 68.8904 171.685 67.9704 172.605C67.0504 173.525 65.6104 173.985 63.6504 173.985H60.2304Z" fill="#EFEDF8"/>
<path d="M42 239C39.75 239 38.09 238.47 37.02 237.41C35.96 236.34 35.43 234.68 35.43 232.43V225.53C35.43 223.27 35.96 221.615 37.02 220.565C38.09 219.505 39.75 218.985 42 219.005H43.8C46.05 219.005 47.705 219.535 48.765 220.595C49.825 221.645 50.355 223.3 50.355 225.56V232.43C50.355 234.68 49.825 236.34 48.765 237.41C47.705 238.47 46.05 239 43.8 239H42ZM42 236.795H43.8C44.89 236.795 45.75 236.66 46.38 236.39C47.02 236.11 47.475 235.655 47.745 235.025C48.015 234.385 48.15 233.52 48.15 232.43V225.56C48.15 224.47 48.015 223.61 47.745 222.98C47.475 222.34 47.02 221.885 46.38 221.615C45.75 221.345 44.89 221.21 43.8 221.21H42C40.91 221.19 40.045 221.315 39.405 221.585C38.775 221.845 38.32 222.295 38.04 222.935C37.77 223.565 37.635 224.43 37.635 225.53V232.43C37.635 233.52 37.77 234.385 38.04 235.025C38.31 235.655 38.76 236.11 39.39 236.39C40.03 236.66 40.9 236.795 42 236.795ZM42.57 230.375C41.84 230.375 41.475 230.01 41.475 229.28V228.59C41.475 227.88 41.84 227.525 42.57 227.525H43.23C43.93 227.525 44.28 227.88 44.28 228.59V229.28C44.28 230.01 43.93 230.375 43.23 230.375H42.57ZM65.6004 239C64.8604 239 64.4904 238.63 64.4904 237.89L64.5504 221.675L65.3604 221.165L56.3904 233.15L56.1654 232.595L68.3604 232.55C68.7204 232.55 68.9954 232.655 69.1854 232.865C69.3754 233.075 69.4704 233.34 69.4704 233.66C69.4704 234.39 69.1004 234.755 68.3604 234.755H55.1004C54.3604 234.755 53.9904 234.39 53.9904 233.66C53.9904 233.31 54.1404 232.925 54.4404 232.505L64.0704 219.68C64.2904 219.38 64.5154 219.19 64.7454 219.11C64.9854 219.03 65.2654 218.99 65.5854 218.99C66.3654 218.99 66.7554 219.36 66.7554 220.1L66.6954 237.89C66.6954 238.63 66.3304 239 65.6004 239Z" fill="#EFEDF8"/>
<path d="M42 368C39.75 368 38.09 367.47 37.02 366.41C35.96 365.34 35.43 363.68 35.43 361.43V354.53C35.43 352.27 35.96 350.615 37.02 349.565C38.09 348.505 39.75 347.985 42 348.005H43.8C46.05 348.005 47.705 348.535 48.765 349.595C49.825 350.645 50.355 352.3 50.355 354.56V361.43C50.355 363.68 49.825 365.34 48.765 366.41C47.705 367.47 46.05 368 43.8 368H42ZM42 365.795H43.8C44.89 365.795 45.75 365.66 46.38 365.39C47.02 365.11 47.475 364.655 47.745 364.025C48.015 363.385 48.15 362.52 48.15 361.43V354.56C48.15 353.47 48.015 352.61 47.745 351.98C47.475 351.34 47.02 350.885 46.38 350.615C45.75 350.345 44.89 350.21 43.8 350.21H42C40.91 350.19 40.045 350.315 39.405 350.585C38.775 350.845 38.32 351.295 38.04 351.935C37.77 352.565 37.635 353.43 37.635 354.53V361.43C37.635 362.52 37.77 363.385 38.04 364.025C38.31 364.655 38.76 365.11 39.39 365.39C40.03 365.66 40.9 365.795 42 365.795ZM42.57 359.375C41.84 359.375 41.475 359.01 41.475 358.28V357.59C41.475 356.88 41.84 356.525 42.57 356.525H43.23C43.93 356.525 44.28 356.88 44.28 357.59V358.28C44.28 359.01 43.93 359.375 43.23 359.375H42.57ZM60.9054 367.985C58.9554 367.985 57.5154 367.525 56.5854 366.605C55.6654 365.685 55.2054 364.26 55.2054 362.33V353.39C55.2054 351.55 55.6454 350.19 56.5254 349.31C57.4154 348.43 58.7754 347.99 60.6054 347.99H64.3254C65.9454 347.99 67.1954 348.34 68.0754 349.04C68.9554 349.73 69.4754 350.785 69.6354 352.205C69.6854 352.575 69.6154 352.86 69.4254 353.06C69.2354 353.26 68.9554 353.36 68.5854 353.36C67.9154 353.36 67.5304 353 67.4304 352.28C67.3204 351.49 67.0304 350.945 66.5604 350.645C66.0904 350.345 65.3454 350.195 64.3254 350.195H60.6054C59.3754 350.195 58.5354 350.425 58.0854 350.885C57.6354 351.335 57.4104 352.17 57.4104 353.39V356.165C58.1604 355.115 59.3254 354.59 60.9054 354.59H64.0254C65.9654 354.59 67.3954 355.055 68.3154 355.985C69.2454 356.915 69.7104 358.35 69.7104 360.29V362.3C69.7104 364.24 69.2454 365.675 68.3154 366.605C67.3954 367.525 65.9654 367.985 64.0254 367.985H60.9054ZM60.9054 365.78H64.0254C65.3554 365.78 66.2654 365.53 66.7554 365.03C67.2554 364.52 67.5054 363.61 67.5054 362.3V360.29C67.5054 358.96 67.2554 358.045 66.7554 357.545C66.2554 357.045 65.3454 356.795 64.0254 356.795H60.9054C59.5654 356.795 58.6454 357.045 58.1454 357.545C57.6554 358.045 57.4104 358.95 57.4104 360.26V362.33C57.4104 363.64 57.6554 364.545 58.1454 365.045C58.6454 365.535 59.5654 365.78 60.9054 365.78Z" fill="#EFEDF8"/>
<path d="M42 304C39.75 304 38.09 303.47 37.02 302.41C35.96 301.34 35.43 299.68 35.43 297.43V290.53C35.43 288.27 35.96 286.615 37.02 285.565C38.09 284.505 39.75 283.985 42 284.005H43.8C46.05 284.005 47.705 284.535 48.765 285.595C49.825 286.645 50.355 288.3 50.355 290.56V297.43C50.355 299.68 49.825 301.34 48.765 302.41C47.705 303.47 46.05 304 43.8 304H42ZM42 301.795H43.8C44.89 301.795 45.75 301.66 46.38 301.39C47.02 301.11 47.475 300.655 47.745 300.025C48.015 299.385 48.15 298.52 48.15 297.43V290.56C48.15 289.47 48.015 288.61 47.745 287.98C47.475 287.34 47.02 286.885 46.38 286.615C45.75 286.345 44.89 286.21 43.8 286.21H42C40.91 286.19 40.045 286.315 39.405 286.585C38.775 286.845 38.32 287.295 38.04 287.935C37.77 288.565 37.635 289.43 37.635 290.53V297.43C37.635 298.52 37.77 299.385 38.04 300.025C38.31 300.655 38.76 301.11 39.39 301.39C40.03 301.66 40.9 301.795 42 301.795ZM42.57 295.375C41.84 295.375 41.475 295.01 41.475 294.28V293.59C41.475 292.88 41.84 292.525 42.57 292.525H43.23C43.93 292.525 44.28 292.88 44.28 293.59V294.28C44.28 295.01 43.93 295.375 43.23 295.375H42.57ZM60.8454 304C59.1154 304 57.7854 303.635 56.8554 302.905C55.9254 302.165 55.3754 301.025 55.2054 299.485C55.1754 299.125 55.2554 298.845 55.4454 298.645C55.6354 298.435 55.9154 298.33 56.2854 298.33C56.9654 298.33 57.3404 298.69 57.4104 299.41C57.5404 300.3 57.8604 300.92 58.3704 301.27C58.8904 301.62 59.7154 301.795 60.8454 301.795H63.9654C65.3054 301.795 66.2204 301.545 66.7104 301.045C67.2104 300.535 67.4604 299.62 67.4604 298.3V296.23C67.4604 294.9 67.2104 293.99 66.7104 293.5C66.2104 293 65.2954 292.75 63.9654 292.75H61.7454C60.1354 292.75 58.9904 292.975 58.3104 293.425C58.0604 293.595 57.8254 293.72 57.6054 293.8C57.3854 293.88 57.1304 293.875 56.8404 293.785L56.5854 293.71C55.9754 293.54 55.6704 293.13 55.6704 292.48V285.1C55.6704 284.36 56.0354 283.99 56.7654 283.99H68.5104C69.2404 283.99 69.6054 284.36 69.6054 285.1C69.6054 285.83 69.2404 286.195 68.5104 286.195H57.8754V291.175C58.8854 290.755 60.1754 290.545 61.7454 290.545H63.9654C65.9054 290.545 67.3404 291.01 68.2704 291.94C69.2004 292.86 69.6654 294.29 69.6654 296.23V298.3C69.6654 300.24 69.2004 301.675 68.2704 302.605C67.3404 303.535 65.9054 304 63.9654 304H60.8454Z" fill="#EFEDF8"/>
</svg>
