<svg width="144" height="409" viewBox="0 0 144 409" fill="none" xmlns="http://www.w3.org/2000/svg">
<path d="M27 187C20.25 187 15.27 185.41 12.06 182.23C8.88 179.02 7.29 174.04 7.29 167.29V146.59C7.29 139.81 8.88 134.845 12.06 131.695C15.27 128.515 20.25 126.955 27 127.015H32.4C39.15 127.015 44.115 128.605 47.295 131.785C50.475 134.935 52.065 139.9 52.065 146.68V167.29C52.065 174.04 50.475 179.02 47.295 182.23C44.115 185.41 39.15 187 32.4 187H27ZM27 180.385H32.4C35.67 180.385 38.25 179.98 40.14 179.17C42.06 178.33 43.425 176.965 44.235 175.075C45.045 173.155 45.45 170.56 45.45 167.29V146.68C45.45 143.41 45.045 140.83 44.235 138.94C43.425 137.02 42.06 135.655 40.14 134.845C38.25 134.035 35.67 133.63 32.4 133.63H27C23.73 133.57 21.135 133.945 19.215 134.755C17.325 135.535 15.96 136.885 15.12 138.805C14.31 140.695 13.905 143.29 13.905 146.59V167.29C13.905 170.56 14.31 173.155 15.12 175.075C15.93 176.965 17.28 178.33 19.17 179.17C21.09 179.98 23.7 180.385 27 180.385ZM28.71 161.125C26.52 161.125 25.425 160.03 25.425 157.84V155.77C25.425 153.64 26.52 152.575 28.71 152.575H30.69C32.79 152.575 33.84 153.64 33.84 155.77V157.84C33.84 160.03 32.79 161.125 30.69 161.125H28.71ZM81.6912 186.955C76.5012 186.955 72.5112 185.86 69.7212 183.67C66.9312 181.48 65.2812 178.075 64.7712 173.455C64.6812 172.345 64.9212 171.49 65.4912 170.89C66.0612 170.29 66.9012 169.99 68.0112 169.99C70.0512 169.99 71.1762 171.085 71.3862 173.275C71.7762 175.945 72.7362 177.79 74.2662 178.81C75.8262 179.83 78.3012 180.34 81.6912 180.34H91.9512C95.9712 180.34 98.7162 179.605 100.186 178.135C101.686 176.635 102.436 173.92 102.436 169.99C102.436 166.06 101.686 163.345 100.186 161.845C98.7162 160.345 95.9712 159.595 91.9512 159.595H84.5712C82.3512 159.595 81.2412 158.5 81.2412 156.31C81.2412 154.09 82.3512 152.98 84.5712 152.98H94.6512C97.0212 152.98 98.6712 152.125 99.6012 150.415C100.531 148.705 100.996 146.29 100.996 143.17C100.996 139.48 100.306 136.96 98.9262 135.61C97.5762 134.26 95.0712 133.585 91.4112 133.585H82.6812C79.6512 133.585 77.4162 134.035 75.9762 134.935C74.5662 135.835 73.6962 137.47 73.3662 139.84C73.0662 142 71.9112 143.08 69.9012 143.08C68.7912 143.08 67.9512 142.78 67.3812 142.18C66.8112 141.58 66.6012 140.725 66.7512 139.615C67.2612 135.355 68.8212 132.19 71.4312 130.12C74.0712 128.02 77.8212 126.97 82.6812 126.97H91.4112C96.9312 126.97 101.011 128.29 103.651 130.93C106.291 133.57 107.611 137.65 107.611 143.17C107.611 148.87 105.841 152.86 102.301 155.14C104.611 156.43 106.306 158.305 107.386 160.765C108.496 163.195 109.051 166.27 109.051 169.99C109.051 175.78 107.671 180.055 104.911 182.815C102.151 185.575 97.8312 186.955 91.9512 186.955H81.6912Z" fill="#EFEDF8"/>
<path d="M45 97C42.75 97 41.09 96.47 40.02 95.41C38.96 94.34 38.43 92.68 38.43 90.43V83.53C38.43 81.27 38.96 79.615 40.02 78.565C41.09 77.505 42.75 76.985 45 77.005H46.8C49.05 77.005 50.705 77.535 51.765 78.595C52.825 79.645 53.355 81.3 53.355 83.56V90.43C53.355 92.68 52.825 94.34 51.765 95.41C50.705 96.47 49.05 97 46.8 97H45ZM45 94.795H46.8C47.89 94.795 48.75 94.66 49.38 94.39C50.02 94.11 50.475 93.655 50.745 93.025C51.015 92.385 51.15 91.52 51.15 90.43V83.56C51.15 82.47 51.015 81.61 50.745 80.98C50.475 80.34 50.02 79.885 49.38 79.615C48.75 79.345 47.89 79.21 46.8 79.21H45C43.91 79.19 43.045 79.315 42.405 79.585C41.775 79.845 41.32 80.295 41.04 80.935C40.77 81.565 40.635 82.43 40.635 83.53V90.43C40.635 91.52 40.77 92.385 41.04 93.025C41.31 93.655 41.76 94.11 42.39 94.39C43.03 94.66 43.9 94.795 45 94.795ZM45.57 88.375C44.84 88.375 44.475 88.01 44.475 87.28V86.59C44.475 85.88 44.84 85.525 45.57 85.525H46.23C46.93 85.525 47.28 85.88 47.28 86.59V87.28C47.28 88.01 46.93 88.375 46.23 88.375H45.57ZM69.9954 97H58.6404C57.8904 97 57.5154 96.63 57.5154 95.89C57.5154 94.62 57.7054 93.535 58.0854 92.635C58.4754 91.725 58.9904 90.95 59.6304 90.31C60.2704 89.66 60.9804 89.09 61.7604 88.6C62.5504 88.11 63.3404 87.635 64.1304 87.175C65.2004 86.565 66.0954 86.035 66.8154 85.585C67.5454 85.125 68.0904 84.655 68.4504 84.175C68.8204 83.685 69.0054 83.09 69.0054 82.39C69.0054 81.16 68.7754 80.32 68.3154 79.87C67.8654 79.42 67.0304 79.195 65.8104 79.195H62.6004C61.5904 79.195 60.8454 79.345 60.3654 79.645C59.8954 79.945 59.6054 80.49 59.4954 81.28C59.4354 81.63 59.3154 81.9 59.1354 82.09C58.9654 82.27 58.7004 82.36 58.3404 82.36C57.9704 82.36 57.6904 82.26 57.5004 82.06C57.3104 81.86 57.2304 81.575 57.2604 81.205C57.4404 79.785 57.9654 78.73 58.8354 78.04C59.7154 77.34 60.9704 76.99 62.6004 76.99H65.8104C67.6504 76.99 69.0104 77.43 69.8904 78.31C70.7704 79.19 71.2104 80.55 71.2104 82.39C71.2104 83.53 70.9304 84.49 70.3704 85.27C69.8204 86.04 69.0854 86.72 68.1654 87.31C67.2554 87.9 66.2704 88.495 65.2104 89.095C64.2504 89.645 63.3904 90.17 62.6304 90.67C61.8704 91.17 61.2404 91.74 60.7404 92.38C60.2504 93.02 59.9354 93.825 59.7954 94.795H69.9954C70.7354 94.795 71.1054 95.16 71.1054 95.89C71.1054 96.63 70.7354 97 69.9954 97Z" fill="#EFEDF8"/>
<path d="M45 29C42.75 29 41.09 28.47 40.02 27.41C38.96 26.34 38.43 24.68 38.43 22.43V15.53C38.43 13.27 38.96 11.615 40.02 10.565C41.09 9.505 42.75 8.985 45 9.005H46.8C49.05 9.005 50.705 9.535 51.765 10.595C52.825 11.645 53.355 13.3 53.355 15.56V22.43C53.355 24.68 52.825 26.34 51.765 27.41C50.705 28.47 49.05 29 46.8 29H45ZM45 26.795H46.8C47.89 26.795 48.75 26.66 49.38 26.39C50.02 26.11 50.475 25.655 50.745 25.025C51.015 24.385 51.15 23.52 51.15 22.43V15.56C51.15 14.47 51.015 13.61 50.745 12.98C50.475 12.34 50.02 11.885 49.38 11.615C48.75 11.345 47.89 11.21 46.8 11.21H45C43.91 11.19 43.045 11.315 42.405 11.585C41.775 11.845 41.32 12.295 41.04 12.935C40.77 13.565 40.635 14.43 40.635 15.53V22.43C40.635 23.52 40.77 24.385 41.04 25.025C41.31 25.655 41.76 26.11 42.39 26.39C43.03 26.66 43.9 26.795 45 26.795ZM45.57 20.375C44.84 20.375 44.475 20.01 44.475 19.28V18.59C44.475 17.88 44.84 17.525 45.57 17.525H46.23C46.93 17.525 47.28 17.88 47.28 18.59V19.28C47.28 20.01 46.93 20.375 46.23 20.375H45.57ZM62.7124 29C61.9724 29 61.6024 28.63 61.6024 27.89V12.02L62.3074 11.66L59.0224 14.78C58.7924 15 58.5524 15.13 58.3024 15.17C58.0624 15.2 57.8224 15.095 57.5824 14.855C57.1024 14.375 57.1224 13.87 57.6424 13.34L61.5124 9.545C61.8724 9.175 62.3274 8.99 62.8774 8.99C63.4974 8.99 63.8074 9.36 63.8074 10.1V27.89C63.8074 28.63 63.4424 29 62.7124 29Z" fill="#EFEDF8"/>
<path d="M45 239C42.75 239 41.09 238.47 40.02 237.41C38.96 236.34 38.43 234.68 38.43 232.43V225.53C38.43 223.27 38.96 221.615 40.02 220.565C41.09 219.505 42.75 218.985 45 219.005H46.8C49.05 219.005 50.705 219.535 51.765 220.595C52.825 221.645 53.355 223.3 53.355 225.56V232.43C53.355 234.68 52.825 236.34 51.765 237.41C50.705 238.47 49.05 239 46.8 239H45ZM45 236.795H46.8C47.89 236.795 48.75 236.66 49.38 236.39C50.02 236.11 50.475 235.655 50.745 235.025C51.015 234.385 51.15 233.52 51.15 232.43V225.56C51.15 224.47 51.015 223.61 50.745 222.98C50.475 222.34 50.02 221.885 49.38 221.615C48.75 221.345 47.89 221.21 46.8 221.21H45C43.91 221.19 43.045 221.315 42.405 221.585C41.775 221.845 41.32 222.295 41.04 222.935C40.77 223.565 40.635 224.43 40.635 225.53V232.43C40.635 233.52 40.77 234.385 41.04 235.025C41.31 235.655 41.76 236.11 42.39 236.39C43.03 236.66 43.9 236.795 45 236.795ZM45.57 230.375C44.84 230.375 44.475 230.01 44.475 229.28V228.59C44.475 227.88 44.84 227.525 45.57 227.525H46.23C46.93 227.525 47.28 227.88 47.28 228.59V229.28C47.28 230.01 46.93 230.375 46.23 230.375H45.57ZM68.6004 239C67.8604 239 67.4904 238.63 67.4904 237.89L67.5504 221.675L68.3604 221.165L59.3904 233.15L59.1654 232.595L71.3604 232.55C71.7204 232.55 71.9954 232.655 72.1854 232.865C72.3754 233.075 72.4704 233.34 72.4704 233.66C72.4704 234.39 72.1004 234.755 71.3604 234.755H58.1004C57.3604 234.755 56.9904 234.39 56.9904 233.66C56.9904 233.31 57.1404 232.925 57.4404 232.505L67.0704 219.68C67.2904 219.38 67.5154 219.19 67.7454 219.11C67.9854 219.03 68.2654 218.99 68.5854 218.99C69.3654 218.99 69.7554 219.36 69.7554 220.1L69.6954 237.89C69.6954 238.63 69.3304 239 68.6004 239Z" fill="#EFEDF8"/>
<path d="M45 368C42.75 368 41.09 367.47 40.02 366.41C38.96 365.34 38.43 363.68 38.43 361.43V354.53C38.43 352.27 38.96 350.615 40.02 349.565C41.09 348.505 42.75 347.985 45 348.005H46.8C49.05 348.005 50.705 348.535 51.765 349.595C52.825 350.645 53.355 352.3 53.355 354.56V361.43C53.355 363.68 52.825 365.34 51.765 366.41C50.705 367.47 49.05 368 46.8 368H45ZM45 365.795H46.8C47.89 365.795 48.75 365.66 49.38 365.39C50.02 365.11 50.475 364.655 50.745 364.025C51.015 363.385 51.15 362.52 51.15 361.43V354.56C51.15 353.47 51.015 352.61 50.745 351.98C50.475 351.34 50.02 350.885 49.38 350.615C48.75 350.345 47.89 350.21 46.8 350.21H45C43.91 350.19 43.045 350.315 42.405 350.585C41.775 350.845 41.32 351.295 41.04 351.935C40.77 352.565 40.635 353.43 40.635 354.53V361.43C40.635 362.52 40.77 363.385 41.04 364.025C41.31 364.655 41.76 365.11 42.39 365.39C43.03 365.66 43.9 365.795 45 365.795ZM45.57 359.375C44.84 359.375 44.475 359.01 44.475 358.28V357.59C44.475 356.88 44.84 356.525 45.57 356.525H46.23C46.93 356.525 47.28 356.88 47.28 357.59V358.28C47.28 359.01 46.93 359.375 46.23 359.375H45.57ZM63.9054 367.985C61.9554 367.985 60.5154 367.525 59.5854 366.605C58.6654 365.685 58.2054 364.26 58.2054 362.33V353.39C58.2054 351.55 58.6454 350.19 59.5254 349.31C60.4154 348.43 61.7754 347.99 63.6054 347.99H67.3254C68.9454 347.99 70.1954 348.34 71.0754 349.04C71.9554 349.73 72.4754 350.785 72.6354 352.205C72.6854 352.575 72.6154 352.86 72.4254 353.06C72.2354 353.26 71.9554 353.36 71.5854 353.36C70.9154 353.36 70.5304 353 70.4304 352.28C70.3204 351.49 70.0304 350.945 69.5604 350.645C69.0904 350.345 68.3454 350.195 67.3254 350.195H63.6054C62.3754 350.195 61.5354 350.425 61.0854 350.885C60.6354 351.335 60.4104 352.17 60.4104 353.39V356.165C61.1604 355.115 62.3254 354.59 63.9054 354.59H67.0254C68.9654 354.59 70.3954 355.055 71.3154 355.985C72.2454 356.915 72.7104 358.35 72.7104 360.29V362.3C72.7104 364.24 72.2454 365.675 71.3154 366.605C70.3954 367.525 68.9654 367.985 67.0254 367.985H63.9054ZM63.9054 365.78H67.0254C68.3554 365.78 69.2654 365.53 69.7554 365.03C70.2554 364.52 70.5054 363.61 70.5054 362.3V360.29C70.5054 358.96 70.2554 358.045 69.7554 357.545C69.2554 357.045 68.3454 356.795 67.0254 356.795H63.9054C62.5654 356.795 61.6454 357.045 61.1454 357.545C60.6554 358.045 60.4104 358.95 60.4104 360.26V362.33C60.4104 363.64 60.6554 364.545 61.1454 365.045C61.6454 365.535 62.5654 365.78 63.9054 365.78Z" fill="#EFEDF8"/>
<path d="M45 304C42.75 304 41.09 303.47 40.02 302.41C38.96 301.34 38.43 299.68 38.43 297.43V290.53C38.43 288.27 38.96 286.615 40.02 285.565C41.09 284.505 42.75 283.985 45 284.005H46.8C49.05 284.005 50.705 284.535 51.765 285.595C52.825 286.645 53.355 288.3 53.355 290.56V297.43C53.355 299.68 52.825 301.34 51.765 302.41C50.705 303.47 49.05 304 46.8 304H45ZM45 301.795H46.8C47.89 301.795 48.75 301.66 49.38 301.39C50.02 301.11 50.475 300.655 50.745 300.025C51.015 299.385 51.15 298.52 51.15 297.43V290.56C51.15 289.47 51.015 288.61 50.745 287.98C50.475 287.34 50.02 286.885 49.38 286.615C48.75 286.345 47.89 286.21 46.8 286.21H45C43.91 286.19 43.045 286.315 42.405 286.585C41.775 286.845 41.32 287.295 41.04 287.935C40.77 288.565 40.635 289.43 40.635 290.53V297.43C40.635 298.52 40.77 299.385 41.04 300.025C41.31 300.655 41.76 301.11 42.39 301.39C43.03 301.66 43.9 301.795 45 301.795ZM45.57 295.375C44.84 295.375 44.475 295.01 44.475 294.28V293.59C44.475 292.88 44.84 292.525 45.57 292.525H46.23C46.93 292.525 47.28 292.88 47.28 293.59V294.28C47.28 295.01 46.93 295.375 46.23 295.375H45.57ZM63.8454 304C62.1154 304 60.7854 303.635 59.8554 302.905C58.9254 302.165 58.3754 301.025 58.2054 299.485C58.1754 299.125 58.2554 298.845 58.4454 298.645C58.6354 298.435 58.9154 298.33 59.2854 298.33C59.9654 298.33 60.3404 298.69 60.4104 299.41C60.5404 300.3 60.8604 300.92 61.3704 301.27C61.8904 301.62 62.7154 301.795 63.8454 301.795H66.9654C68.3054 301.795 69.2204 301.545 69.7104 301.045C70.2104 300.535 70.4604 299.62 70.4604 298.3V296.23C70.4604 294.9 70.2104 293.99 69.7104 293.5C69.2104 293 68.2954 292.75 66.9654 292.75H64.7454C63.1354 292.75 61.9904 292.975 61.3104 293.425C61.0604 293.595 60.8254 293.72 60.6054 293.8C60.3854 293.88 60.1304 293.875 59.8404 293.785L59.5854 293.71C58.9754 293.54 58.6704 293.13 58.6704 292.48V285.1C58.6704 284.36 59.0354 283.99 59.7654 283.99H71.5104C72.2404 283.99 72.6054 284.36 72.6054 285.1C72.6054 285.83 72.2404 286.195 71.5104 286.195H60.8754V291.175C61.8854 290.755 63.1754 290.545 64.7454 290.545H66.9654C68.9054 290.545 70.3404 291.01 71.2704 291.94C72.2004 292.86 72.6654 294.29 72.6654 296.23V298.3C72.6654 300.24 72.2004 301.675 71.2704 302.605C70.3404 303.535 68.9054 304 66.9654 304H63.8454Z" fill="#EFEDF8"/>
</svg>
