<svg width="144" height="412" viewBox="0 0 144 412" fill="none" xmlns="http://www.w3.org/2000/svg">
<path d="M27 257C20.25 257 15.27 255.41 12.06 252.23C8.88 249.02 7.29 244.04 7.29 237.29V216.59C7.29 209.81 8.88 204.845 12.06 201.695C15.27 198.515 20.25 196.955 27 197.015H32.4C39.15 197.015 44.115 198.605 47.295 201.785C50.475 204.935 52.065 209.9 52.065 216.68V237.29C52.065 244.04 50.475 249.02 47.295 252.23C44.115 255.41 39.15 257 32.4 257H27ZM27 250.385H32.4C35.67 250.385 38.25 249.98 40.14 249.17C42.06 248.33 43.425 246.965 44.235 245.075C45.045 243.155 45.45 240.56 45.45 237.29V216.68C45.45 213.41 45.045 210.83 44.235 208.94C43.425 207.02 42.06 205.655 40.14 204.845C38.25 204.035 35.67 203.63 32.4 203.63H27C23.73 203.57 21.135 203.945 19.215 204.755C17.325 205.535 15.96 206.885 15.12 208.805C14.31 210.695 13.905 213.29 13.905 216.59V237.29C13.905 240.56 14.31 243.155 15.12 245.075C15.93 246.965 17.28 248.33 19.17 249.17C21.09 249.98 23.7 250.385 27 250.385ZM28.71 231.125C26.52 231.125 25.425 230.03 25.425 227.84V225.77C25.425 223.64 26.52 222.575 28.71 222.575H30.69C32.79 222.575 33.84 223.64 33.84 225.77V227.84C33.84 230.03 32.79 231.125 30.69 231.125H28.71ZM97.8012 257C95.5812 257 94.4712 255.89 94.4712 253.67L94.6512 205.025L97.0812 203.495L70.1712 239.45L69.4962 237.785L106.081 237.65C107.161 237.65 107.986 237.965 108.556 238.595C109.126 239.225 109.411 240.02 109.411 240.98C109.411 243.17 108.301 244.265 106.081 244.265H66.3012C64.0812 244.265 62.9712 243.17 62.9712 240.98C62.9712 239.93 63.4212 238.775 64.3212 237.515L93.2112 199.04C93.8712 198.14 94.5462 197.57 95.2362 197.33C95.9562 197.09 96.7962 196.97 97.7562 196.97C100.096 196.97 101.266 198.08 101.266 200.3L101.086 253.67C101.086 255.89 99.9912 257 97.8012 257Z" fill="#EFEDF8"/>
<path d="M47 100C44.75 100 43.09 99.47 42.02 98.41C40.96 97.34 40.43 95.68 40.43 93.43V86.53C40.43 84.27 40.96 82.615 42.02 81.565C43.09 80.505 44.75 79.985 47 80.005H48.8C51.05 80.005 52.705 80.535 53.765 81.595C54.825 82.645 55.355 84.3 55.355 86.56V93.43C55.355 95.68 54.825 97.34 53.765 98.41C52.705 99.47 51.05 100 48.8 100H47ZM47 97.795H48.8C49.89 97.795 50.75 97.66 51.38 97.39C52.02 97.11 52.475 96.655 52.745 96.025C53.015 95.385 53.15 94.52 53.15 93.43V86.56C53.15 85.47 53.015 84.61 52.745 83.98C52.475 83.34 52.02 82.885 51.38 82.615C50.75 82.345 49.89 82.21 48.8 82.21H47C45.91 82.19 45.045 82.315 44.405 82.585C43.775 82.845 43.32 83.295 43.04 83.935C42.77 84.565 42.635 85.43 42.635 86.53V93.43C42.635 94.52 42.77 95.385 43.04 96.025C43.31 96.655 43.76 97.11 44.39 97.39C45.03 97.66 45.9 97.795 47 97.795ZM47.57 91.375C46.84 91.375 46.475 91.01 46.475 90.28V89.59C46.475 88.88 46.84 88.525 47.57 88.525H48.23C48.93 88.525 49.28 88.88 49.28 89.59V90.28C49.28 91.01 48.93 91.375 48.23 91.375H47.57ZM71.9954 100H60.6404C59.8904 100 59.5154 99.63 59.5154 98.89C59.5154 97.62 59.7054 96.535 60.0854 95.635C60.4754 94.725 60.9904 93.95 61.6304 93.31C62.2704 92.66 62.9804 92.09 63.7604 91.6C64.5504 91.11 65.3404 90.635 66.1304 90.175C67.2004 89.565 68.0954 89.035 68.8154 88.585C69.5454 88.125 70.0904 87.655 70.4504 87.175C70.8204 86.685 71.0054 86.09 71.0054 85.39C71.0054 84.16 70.7754 83.32 70.3154 82.87C69.8654 82.42 69.0304 82.195 67.8104 82.195H64.6004C63.5904 82.195 62.8454 82.345 62.3654 82.645C61.8954 82.945 61.6054 83.49 61.4954 84.28C61.4354 84.63 61.3154 84.9 61.1354 85.09C60.9654 85.27 60.7004 85.36 60.3404 85.36C59.9704 85.36 59.6904 85.26 59.5004 85.06C59.3104 84.86 59.2304 84.575 59.2604 84.205C59.4404 82.785 59.9654 81.73 60.8354 81.04C61.7154 80.34 62.9704 79.99 64.6004 79.99H67.8104C69.6504 79.99 71.0104 80.43 71.8904 81.31C72.7704 82.19 73.2104 83.55 73.2104 85.39C73.2104 86.53 72.9304 87.49 72.3704 88.27C71.8204 89.04 71.0854 89.72 70.1654 90.31C69.2554 90.9 68.2704 91.495 67.2104 92.095C66.2504 92.645 65.3904 93.17 64.6304 93.67C63.8704 94.17 63.2404 94.74 62.7404 95.38C62.2504 96.02 61.9354 96.825 61.7954 97.795H71.9954C72.7354 97.795 73.1054 98.16 73.1054 98.89C73.1054 99.63 72.7354 100 71.9954 100Z" fill="#EFEDF8"/>
<path d="M47 164C44.75 164 43.09 163.47 42.02 162.41C40.96 161.34 40.43 159.68 40.43 157.43V150.53C40.43 148.27 40.96 146.615 42.02 145.565C43.09 144.505 44.75 143.985 47 144.005H48.8C51.05 144.005 52.705 144.535 53.765 145.595C54.825 146.645 55.355 148.3 55.355 150.56V157.43C55.355 159.68 54.825 161.34 53.765 162.41C52.705 163.47 51.05 164 48.8 164H47ZM47 161.795H48.8C49.89 161.795 50.75 161.66 51.38 161.39C52.02 161.11 52.475 160.655 52.745 160.025C53.015 159.385 53.15 158.52 53.15 157.43V150.56C53.15 149.47 53.015 148.61 52.745 147.98C52.475 147.34 52.02 146.885 51.38 146.615C50.75 146.345 49.89 146.21 48.8 146.21H47C45.91 146.19 45.045 146.315 44.405 146.585C43.775 146.845 43.32 147.295 43.04 147.935C42.77 148.565 42.635 149.43 42.635 150.53V157.43C42.635 158.52 42.77 159.385 43.04 160.025C43.31 160.655 43.76 161.11 44.39 161.39C45.03 161.66 45.9 161.795 47 161.795ZM47.57 155.375C46.84 155.375 46.475 155.01 46.475 154.28V153.59C46.475 152.88 46.84 152.525 47.57 152.525H48.23C48.93 152.525 49.28 152.88 49.28 153.59V154.28C49.28 155.01 48.93 155.375 48.23 155.375H47.57ZM65.2304 163.985C63.5004 163.985 62.1704 163.62 61.2404 162.89C60.3104 162.16 59.7604 161.025 59.5904 159.485C59.5604 159.115 59.6404 158.83 59.8304 158.63C60.0204 158.43 60.3004 158.33 60.6704 158.33C61.3504 158.33 61.7254 158.695 61.7954 159.425C61.9254 160.315 62.2454 160.93 62.7554 161.27C63.2754 161.61 64.1004 161.78 65.2304 161.78H68.6504C69.9904 161.78 70.9054 161.535 71.3954 161.045C71.8954 160.545 72.1454 159.64 72.1454 158.33C72.1454 157.02 71.8954 156.115 71.3954 155.615C70.9054 155.115 69.9904 154.865 68.6504 154.865H66.1904C65.4504 154.865 65.0804 154.5 65.0804 153.77C65.0804 153.03 65.4504 152.66 66.1904 152.66H69.5504C70.3404 152.66 70.8904 152.375 71.2004 151.805C71.5104 151.235 71.6654 150.43 71.6654 149.39C71.6654 148.16 71.4354 147.32 70.9754 146.87C70.5254 146.42 69.6904 146.195 68.4704 146.195H65.5604C64.5504 146.195 63.8054 146.345 63.3254 146.645C62.8554 146.945 62.5654 147.49 62.4554 148.28C62.3554 149 61.9704 149.36 61.3004 149.36C60.9304 149.36 60.6504 149.26 60.4604 149.06C60.2704 148.86 60.2004 148.575 60.2504 148.205C60.4204 146.785 60.9404 145.73 61.8104 145.04C62.6904 144.34 63.9404 143.99 65.5604 143.99H68.4704C70.3104 143.99 71.6704 144.43 72.5504 145.31C73.4304 146.19 73.8704 147.55 73.8704 149.39C73.8704 151.29 73.2804 152.62 72.1004 153.38C72.8704 153.81 73.4354 154.435 73.7954 155.255C74.1654 156.065 74.3504 157.09 74.3504 158.33C74.3504 160.26 73.8904 161.685 72.9704 162.605C72.0504 163.525 70.6104 163.985 68.6504 163.985H65.2304Z" fill="#EFEDF8"/>
<path d="M47 29C44.75 29 43.09 28.47 42.02 27.41C40.96 26.34 40.43 24.68 40.43 22.43V15.53C40.43 13.27 40.96 11.615 42.02 10.565C43.09 9.505 44.75 8.985 47 9.005H48.8C51.05 9.005 52.705 9.535 53.765 10.595C54.825 11.645 55.355 13.3 55.355 15.56V22.43C55.355 24.68 54.825 26.34 53.765 27.41C52.705 28.47 51.05 29 48.8 29H47ZM47 26.795H48.8C49.89 26.795 50.75 26.66 51.38 26.39C52.02 26.11 52.475 25.655 52.745 25.025C53.015 24.385 53.15 23.52 53.15 22.43V15.56C53.15 14.47 53.015 13.61 52.745 12.98C52.475 12.34 52.02 11.885 51.38 11.615C50.75 11.345 49.89 11.21 48.8 11.21H47C45.91 11.19 45.045 11.315 44.405 11.585C43.775 11.845 43.32 12.295 43.04 12.935C42.77 13.565 42.635 14.43 42.635 15.53V22.43C42.635 23.52 42.77 24.385 43.04 25.025C43.31 25.655 43.76 26.11 44.39 26.39C45.03 26.66 45.9 26.795 47 26.795ZM47.57 20.375C46.84 20.375 46.475 20.01 46.475 19.28V18.59C46.475 17.88 46.84 17.525 47.57 17.525H48.23C48.93 17.525 49.28 17.88 49.28 18.59V19.28C49.28 20.01 48.93 20.375 48.23 20.375H47.57ZM64.7124 29C63.9724 29 63.6024 28.63 63.6024 27.89V12.02L64.3074 11.66L61.0224 14.78C60.7924 15 60.5524 15.13 60.3024 15.17C60.0624 15.2 59.8224 15.095 59.5824 14.855C59.1024 14.375 59.1224 13.87 59.6424 13.34L63.5124 9.545C63.8724 9.175 64.3274 8.99 64.8774 8.99C65.4974 8.99 65.8074 9.36 65.8074 10.1V27.89C65.8074 28.63 65.4424 29 64.7124 29Z" fill="#EFEDF8"/>
<path d="M47 371C44.75 371 43.09 370.47 42.02 369.41C40.96 368.34 40.43 366.68 40.43 364.43V357.53C40.43 355.27 40.96 353.615 42.02 352.565C43.09 351.505 44.75 350.985 47 351.005H48.8C51.05 351.005 52.705 351.535 53.765 352.595C54.825 353.645 55.355 355.3 55.355 357.56V364.43C55.355 366.68 54.825 368.34 53.765 369.41C52.705 370.47 51.05 371 48.8 371H47ZM47 368.795H48.8C49.89 368.795 50.75 368.66 51.38 368.39C52.02 368.11 52.475 367.655 52.745 367.025C53.015 366.385 53.15 365.52 53.15 364.43V357.56C53.15 356.47 53.015 355.61 52.745 354.98C52.475 354.34 52.02 353.885 51.38 353.615C50.75 353.345 49.89 353.21 48.8 353.21H47C45.91 353.19 45.045 353.315 44.405 353.585C43.775 353.845 43.32 354.295 43.04 354.935C42.77 355.565 42.635 356.43 42.635 357.53V364.43C42.635 365.52 42.77 366.385 43.04 367.025C43.31 367.655 43.76 368.11 44.39 368.39C45.03 368.66 45.9 368.795 47 368.795ZM47.57 362.375C46.84 362.375 46.475 362.01 46.475 361.28V360.59C46.475 359.88 46.84 359.525 47.57 359.525H48.23C48.93 359.525 49.28 359.88 49.28 360.59V361.28C49.28 362.01 48.93 362.375 48.23 362.375H47.57ZM65.9054 370.985C63.9554 370.985 62.5154 370.525 61.5854 369.605C60.6654 368.685 60.2054 367.26 60.2054 365.33V356.39C60.2054 354.55 60.6454 353.19 61.5254 352.31C62.4154 351.43 63.7754 350.99 65.6054 350.99H69.3254C70.9454 350.99 72.1954 351.34 73.0754 352.04C73.9554 352.73 74.4754 353.785 74.6354 355.205C74.6854 355.575 74.6154 355.86 74.4254 356.06C74.2354 356.26 73.9554 356.36 73.5854 356.36C72.9154 356.36 72.5304 356 72.4304 355.28C72.3204 354.49 72.0304 353.945 71.5604 353.645C71.0904 353.345 70.3454 353.195 69.3254 353.195H65.6054C64.3754 353.195 63.5354 353.425 63.0854 353.885C62.6354 354.335 62.4104 355.17 62.4104 356.39V359.165C63.1604 358.115 64.3254 357.59 65.9054 357.59H69.0254C70.9654 357.59 72.3954 358.055 73.3154 358.985C74.2454 359.915 74.7104 361.35 74.7104 363.29V365.3C74.7104 367.24 74.2454 368.675 73.3154 369.605C72.3954 370.525 70.9654 370.985 69.0254 370.985H65.9054ZM65.9054 368.78H69.0254C70.3554 368.78 71.2654 368.53 71.7554 368.03C72.2554 367.52 72.5054 366.61 72.5054 365.3V363.29C72.5054 361.96 72.2554 361.045 71.7554 360.545C71.2554 360.045 70.3454 359.795 69.0254 359.795H65.9054C64.5654 359.795 63.6454 360.045 63.1454 360.545C62.6554 361.045 62.4104 361.95 62.4104 363.26V365.33C62.4104 366.64 62.6554 367.545 63.1454 368.045C63.6454 368.535 64.5654 368.78 65.9054 368.78Z" fill="#EFEDF8"/>
<path d="M47 307C44.75 307 43.09 306.47 42.02 305.41C40.96 304.34 40.43 302.68 40.43 300.43V293.53C40.43 291.27 40.96 289.615 42.02 288.565C43.09 287.505 44.75 286.985 47 287.005H48.8C51.05 287.005 52.705 287.535 53.765 288.595C54.825 289.645 55.355 291.3 55.355 293.56V300.43C55.355 302.68 54.825 304.34 53.765 305.41C52.705 306.47 51.05 307 48.8 307H47ZM47 304.795H48.8C49.89 304.795 50.75 304.66 51.38 304.39C52.02 304.11 52.475 303.655 52.745 303.025C53.015 302.385 53.15 301.52 53.15 300.43V293.56C53.15 292.47 53.015 291.61 52.745 290.98C52.475 290.34 52.02 289.885 51.38 289.615C50.75 289.345 49.89 289.21 48.8 289.21H47C45.91 289.19 45.045 289.315 44.405 289.585C43.775 289.845 43.32 290.295 43.04 290.935C42.77 291.565 42.635 292.43 42.635 293.53V300.43C42.635 301.52 42.77 302.385 43.04 303.025C43.31 303.655 43.76 304.11 44.39 304.39C45.03 304.66 45.9 304.795 47 304.795ZM47.57 298.375C46.84 298.375 46.475 298.01 46.475 297.28V296.59C46.475 295.88 46.84 295.525 47.57 295.525H48.23C48.93 295.525 49.28 295.88 49.28 296.59V297.28C49.28 298.01 48.93 298.375 48.23 298.375H47.57ZM65.8454 307C64.1154 307 62.7854 306.635 61.8554 305.905C60.9254 305.165 60.3754 304.025 60.2054 302.485C60.1754 302.125 60.2554 301.845 60.4454 301.645C60.6354 301.435 60.9154 301.33 61.2854 301.33C61.9654 301.33 62.3404 301.69 62.4104 302.41C62.5404 303.3 62.8604 303.92 63.3704 304.27C63.8904 304.62 64.7154 304.795 65.8454 304.795H68.9654C70.3054 304.795 71.2204 304.545 71.7104 304.045C72.2104 303.535 72.4604 302.62 72.4604 301.3V299.23C72.4604 297.9 72.2104 296.99 71.7104 296.5C71.2104 296 70.2954 295.75 68.9654 295.75H66.7454C65.1354 295.75 63.9904 295.975 63.3104 296.425C63.0604 296.595 62.8254 296.72 62.6054 296.8C62.3854 296.88 62.1304 296.875 61.8404 296.785L61.5854 296.71C60.9754 296.54 60.6704 296.13 60.6704 295.48V288.1C60.6704 287.36 61.0354 286.99 61.7654 286.99H73.5104C74.2404 286.99 74.6054 287.36 74.6054 288.1C74.6054 288.83 74.2404 289.195 73.5104 289.195H62.8754V294.175C63.8854 293.755 65.1754 293.545 66.7454 293.545H68.9654C70.9054 293.545 72.3404 294.01 73.2704 294.94C74.2004 295.86 74.6654 297.29 74.6654 299.23V301.3C74.6654 303.24 74.2004 304.675 73.2704 305.605C72.3404 306.535 70.9054 307 68.9654 307H65.8454Z" fill="#EFEDF8"/>
</svg>
