<svg width="144" height="409" viewBox="0 0 144 409" fill="none" xmlns="http://www.w3.org/2000/svg">
<path d="M27 319C20.25 319 15.27 317.41 12.06 314.23C8.88 311.02 7.29 306.04 7.29 299.29V278.59C7.29 271.81 8.88 266.845 12.06 263.695C15.27 260.515 20.25 258.955 27 259.015H32.4C39.15 259.015 44.115 260.605 47.295 263.785C50.475 266.935 52.065 271.9 52.065 278.68V299.29C52.065 306.04 50.475 311.02 47.295 314.23C44.115 317.41 39.15 319 32.4 319H27ZM27 312.385H32.4C35.67 312.385 38.25 311.98 40.14 311.17C42.06 310.33 43.425 308.965 44.235 307.075C45.045 305.155 45.45 302.56 45.45 299.29V278.68C45.45 275.41 45.045 272.83 44.235 270.94C43.425 269.02 42.06 267.655 40.14 266.845C38.25 266.035 35.67 265.63 32.4 265.63H27C23.73 265.57 21.135 265.945 19.215 266.755C17.325 267.535 15.96 268.885 15.12 270.805C14.31 272.695 13.905 275.29 13.905 278.59V299.29C13.905 302.56 14.31 305.155 15.12 307.075C15.93 308.965 17.28 310.33 19.17 311.17C21.09 311.98 23.7 312.385 27 312.385ZM28.71 293.125C26.52 293.125 25.425 292.03 25.425 289.84V287.77C25.425 285.64 26.52 284.575 28.71 284.575H30.69C32.79 284.575 33.84 285.64 33.84 287.77V289.84C33.84 292.03 32.79 293.125 30.69 293.125H28.71ZM83.5362 319C78.3462 319 74.3562 317.905 71.5662 315.715C68.7762 313.495 67.1262 310.075 66.6162 305.455C66.5262 304.375 66.7662 303.535 67.3362 302.935C67.9062 302.305 68.7462 301.99 69.8562 301.99C71.8962 301.99 73.0212 303.07 73.2312 305.23C73.6212 307.9 74.5812 309.76 76.1112 310.81C77.6712 311.86 80.1462 312.385 83.5362 312.385H92.8962C96.9162 312.385 99.6612 311.635 101.131 310.135C102.631 308.605 103.381 305.86 103.381 301.9V295.69C103.381 291.7 102.631 288.97 101.131 287.5C99.6312 286 96.8862 285.25 92.8962 285.25H86.2362C81.4062 285.25 77.9712 285.925 75.9312 287.275C75.1812 287.785 74.4762 288.16 73.8162 288.4C73.1562 288.64 72.3912 288.625 71.5212 288.355L70.7562 288.13C68.9262 287.62 68.0112 286.39 68.0112 284.44V262.3C68.0112 260.08 69.1062 258.97 71.2962 258.97H106.531C108.721 258.97 109.816 260.08 109.816 262.3C109.816 264.49 108.721 265.585 106.531 265.585H74.6262V280.525C77.6562 279.265 81.5262 278.635 86.2362 278.635H92.8962C98.7162 278.635 103.021 280.03 105.811 282.82C108.601 285.58 109.996 289.87 109.996 295.69V301.9C109.996 307.72 108.601 312.025 105.811 314.815C103.021 317.605 98.7162 319 92.8962 319H83.5362Z" fill="#EFEDF8"/>
<path d="M40 29C37.75 29 36.09 28.47 35.02 27.41C33.96 26.34 33.43 24.68 33.43 22.43V15.53C33.43 13.27 33.96 11.615 35.02 10.565C36.09 9.505 37.75 8.985 40 9.005H41.8C44.05 9.005 45.705 9.535 46.765 10.595C47.825 11.645 48.355 13.3 48.355 15.56V22.43C48.355 24.68 47.825 26.34 46.765 27.41C45.705 28.47 44.05 29 41.8 29H40ZM40 26.795H41.8C42.89 26.795 43.75 26.66 44.38 26.39C45.02 26.11 45.475 25.655 45.745 25.025C46.015 24.385 46.15 23.52 46.15 22.43V15.56C46.15 14.47 46.015 13.61 45.745 12.98C45.475 12.34 45.02 11.885 44.38 11.615C43.75 11.345 42.89 11.21 41.8 11.21H40C38.91 11.19 38.045 11.315 37.405 11.585C36.775 11.845 36.32 12.295 36.04 12.935C35.77 13.565 35.635 14.43 35.635 15.53V22.43C35.635 23.52 35.77 24.385 36.04 25.025C36.31 25.655 36.76 26.11 37.39 26.39C38.03 26.66 38.9 26.795 40 26.795ZM40.57 20.375C39.84 20.375 39.475 20.01 39.475 19.28V18.59C39.475 17.88 39.84 17.525 40.57 17.525H41.23C41.93 17.525 42.28 17.88 42.28 18.59V19.28C42.28 20.01 41.93 20.375 41.23 20.375H40.57ZM57.7124 29C56.9724 29 56.6024 28.63 56.6024 27.89V12.02L57.3074 11.66L54.0224 14.78C53.7924 15 53.5524 15.13 53.3024 15.17C53.0624 15.2 52.8224 15.095 52.5824 14.855C52.1024 14.375 52.1224 13.87 52.6424 13.34L56.5124 9.545C56.8724 9.175 57.3274 8.99 57.8774 8.99C58.4974 8.99 58.8074 9.36 58.8074 10.1V27.89C58.8074 28.63 58.4424 29 57.7124 29Z" fill="#EFEDF8"/>
<path d="M40 93C37.75 93 36.09 92.47 35.02 91.41C33.96 90.34 33.43 88.68 33.43 86.43V79.53C33.43 77.27 33.96 75.615 35.02 74.565C36.09 73.505 37.75 72.985 40 73.005H41.8C44.05 73.005 45.705 73.535 46.765 74.595C47.825 75.645 48.355 77.3 48.355 79.56V86.43C48.355 88.68 47.825 90.34 46.765 91.41C45.705 92.47 44.05 93 41.8 93H40ZM40 90.795H41.8C42.89 90.795 43.75 90.66 44.38 90.39C45.02 90.11 45.475 89.655 45.745 89.025C46.015 88.385 46.15 87.52 46.15 86.43V79.56C46.15 78.47 46.015 77.61 45.745 76.98C45.475 76.34 45.02 75.885 44.38 75.615C43.75 75.345 42.89 75.21 41.8 75.21H40C38.91 75.19 38.045 75.315 37.405 75.585C36.775 75.845 36.32 76.295 36.04 76.935C35.77 77.565 35.635 78.43 35.635 79.53V86.43C35.635 87.52 35.77 88.385 36.04 89.025C36.31 89.655 36.76 90.11 37.39 90.39C38.03 90.66 38.9 90.795 40 90.795ZM40.57 84.375C39.84 84.375 39.475 84.01 39.475 83.28V82.59C39.475 81.88 39.84 81.525 40.57 81.525H41.23C41.93 81.525 42.28 81.88 42.28 82.59V83.28C42.28 84.01 41.93 84.375 41.23 84.375H40.57ZM64.9954 93H53.6404C52.8904 93 52.5154 92.63 52.5154 91.89C52.5154 90.62 52.7054 89.535 53.0854 88.635C53.4754 87.725 53.9904 86.95 54.6304 86.31C55.2704 85.66 55.9804 85.09 56.7604 84.6C57.5504 84.11 58.3404 83.635 59.1304 83.175C60.2004 82.565 61.0954 82.035 61.8154 81.585C62.5454 81.125 63.0904 80.655 63.4504 80.175C63.8204 79.685 64.0054 79.09 64.0054 78.39C64.0054 77.16 63.7754 76.32 63.3154 75.87C62.8654 75.42 62.0304 75.195 60.8104 75.195H57.6004C56.5904 75.195 55.8454 75.345 55.3654 75.645C54.8954 75.945 54.6054 76.49 54.4954 77.28C54.4354 77.63 54.3154 77.9 54.1354 78.09C53.9654 78.27 53.7004 78.36 53.3404 78.36C52.9704 78.36 52.6904 78.26 52.5004 78.06C52.3104 77.86 52.2304 77.575 52.2604 77.205C52.4404 75.785 52.9654 74.73 53.8354 74.04C54.7154 73.34 55.9704 72.99 57.6004 72.99H60.8104C62.6504 72.99 64.0104 73.43 64.8904 74.31C65.7704 75.19 66.2104 76.55 66.2104 78.39C66.2104 79.53 65.9304 80.49 65.3704 81.27C64.8204 82.04 64.0854 82.72 63.1654 83.31C62.2554 83.9 61.2704 84.495 60.2104 85.095C59.2504 85.645 58.3904 86.17 57.6304 86.67C56.8704 87.17 56.2404 87.74 55.7404 88.38C55.2504 89.02 54.9354 89.825 54.7954 90.795H64.9954C65.7354 90.795 66.1054 91.16 66.1054 91.89C66.1054 92.63 65.7354 93 64.9954 93Z" fill="#EFEDF8"/>
<path d="M40 158C37.75 158 36.09 157.47 35.02 156.41C33.96 155.34 33.43 153.68 33.43 151.43V144.53C33.43 142.27 33.96 140.615 35.02 139.565C36.09 138.505 37.75 137.985 40 138.005H41.8C44.05 138.005 45.705 138.535 46.765 139.595C47.825 140.645 48.355 142.3 48.355 144.56V151.43C48.355 153.68 47.825 155.34 46.765 156.41C45.705 157.47 44.05 158 41.8 158H40ZM40 155.795H41.8C42.89 155.795 43.75 155.66 44.38 155.39C45.02 155.11 45.475 154.655 45.745 154.025C46.015 153.385 46.15 152.52 46.15 151.43V144.56C46.15 143.47 46.015 142.61 45.745 141.98C45.475 141.34 45.02 140.885 44.38 140.615C43.75 140.345 42.89 140.21 41.8 140.21H40C38.91 140.19 38.045 140.315 37.405 140.585C36.775 140.845 36.32 141.295 36.04 141.935C35.77 142.565 35.635 143.43 35.635 144.53V151.43C35.635 152.52 35.77 153.385 36.04 154.025C36.31 154.655 36.76 155.11 37.39 155.39C38.03 155.66 38.9 155.795 40 155.795ZM40.57 149.375C39.84 149.375 39.475 149.01 39.475 148.28V147.59C39.475 146.88 39.84 146.525 40.57 146.525H41.23C41.93 146.525 42.28 146.88 42.28 147.59V148.28C42.28 149.01 41.93 149.375 41.23 149.375H40.57ZM58.2304 157.985C56.5004 157.985 55.1704 157.62 54.2404 156.89C53.3104 156.16 52.7604 155.025 52.5904 153.485C52.5604 153.115 52.6404 152.83 52.8304 152.63C53.0204 152.43 53.3004 152.33 53.6704 152.33C54.3504 152.33 54.7254 152.695 54.7954 153.425C54.9254 154.315 55.2454 154.93 55.7554 155.27C56.2754 155.61 57.1004 155.78 58.2304 155.78H61.6504C62.9904 155.78 63.9054 155.535 64.3954 155.045C64.8954 154.545 65.1454 153.64 65.1454 152.33C65.1454 151.02 64.8954 150.115 64.3954 149.615C63.9054 149.115 62.9904 148.865 61.6504 148.865H59.1904C58.4504 148.865 58.0804 148.5 58.0804 147.77C58.0804 147.03 58.4504 146.66 59.1904 146.66H62.5504C63.3404 146.66 63.8904 146.375 64.2004 145.805C64.5104 145.235 64.6654 144.43 64.6654 143.39C64.6654 142.16 64.4354 141.32 63.9754 140.87C63.5254 140.42 62.6904 140.195 61.4704 140.195H58.5604C57.5504 140.195 56.8054 140.345 56.3254 140.645C55.8554 140.945 55.5654 141.49 55.4554 142.28C55.3554 143 54.9704 143.36 54.3004 143.36C53.9304 143.36 53.6504 143.26 53.4604 143.06C53.2704 142.86 53.2004 142.575 53.2504 142.205C53.4204 140.785 53.9404 139.73 54.8104 139.04C55.6904 138.34 56.9404 137.99 58.5604 137.99H61.4704C63.3104 137.99 64.6704 138.43 65.5504 139.31C66.4304 140.19 66.8704 141.55 66.8704 143.39C66.8704 145.29 66.2804 146.62 65.1004 147.38C65.8704 147.81 66.4354 148.435 66.7954 149.255C67.1654 150.065 67.3504 151.09 67.3504 152.33C67.3504 154.26 66.8904 155.685 65.9704 156.605C65.0504 157.525 63.6104 157.985 61.6504 157.985H58.2304Z" fill="#EFEDF8"/>
<path d="M40 368C37.75 368 36.09 367.47 35.02 366.41C33.96 365.34 33.43 363.68 33.43 361.43V354.53C33.43 352.27 33.96 350.615 35.02 349.565C36.09 348.505 37.75 347.985 40 348.005H41.8C44.05 348.005 45.705 348.535 46.765 349.595C47.825 350.645 48.355 352.3 48.355 354.56V361.43C48.355 363.68 47.825 365.34 46.765 366.41C45.705 367.47 44.05 368 41.8 368H40ZM40 365.795H41.8C42.89 365.795 43.75 365.66 44.38 365.39C45.02 365.11 45.475 364.655 45.745 364.025C46.015 363.385 46.15 362.52 46.15 361.43V354.56C46.15 353.47 46.015 352.61 45.745 351.98C45.475 351.34 45.02 350.885 44.38 350.615C43.75 350.345 42.89 350.21 41.8 350.21H40C38.91 350.19 38.045 350.315 37.405 350.585C36.775 350.845 36.32 351.295 36.04 351.935C35.77 352.565 35.635 353.43 35.635 354.53V361.43C35.635 362.52 35.77 363.385 36.04 364.025C36.31 364.655 36.76 365.11 37.39 365.39C38.03 365.66 38.9 365.795 40 365.795ZM40.57 359.375C39.84 359.375 39.475 359.01 39.475 358.28V357.59C39.475 356.88 39.84 356.525 40.57 356.525H41.23C41.93 356.525 42.28 356.88 42.28 357.59V358.28C42.28 359.01 41.93 359.375 41.23 359.375H40.57ZM58.9054 367.985C56.9554 367.985 55.5154 367.525 54.5854 366.605C53.6654 365.685 53.2054 364.26 53.2054 362.33V353.39C53.2054 351.55 53.6454 350.19 54.5254 349.31C55.4154 348.43 56.7754 347.99 58.6054 347.99H62.3254C63.9454 347.99 65.1954 348.34 66.0754 349.04C66.9554 349.73 67.4754 350.785 67.6354 352.205C67.6854 352.575 67.6154 352.86 67.4254 353.06C67.2354 353.26 66.9554 353.36 66.5854 353.36C65.9154 353.36 65.5304 353 65.4304 352.28C65.3204 351.49 65.0304 350.945 64.5604 350.645C64.0904 350.345 63.3454 350.195 62.3254 350.195H58.6054C57.3754 350.195 56.5354 350.425 56.0854 350.885C55.6354 351.335 55.4104 352.17 55.4104 353.39V356.165C56.1604 355.115 57.3254 354.59 58.9054 354.59H62.0254C63.9654 354.59 65.3954 355.055 66.3154 355.985C67.2454 356.915 67.7104 358.35 67.7104 360.29V362.3C67.7104 364.24 67.2454 365.675 66.3154 366.605C65.3954 367.525 63.9654 367.985 62.0254 367.985H58.9054ZM58.9054 365.78H62.0254C63.3554 365.78 64.2654 365.53 64.7554 365.03C65.2554 364.52 65.5054 363.61 65.5054 362.3V360.29C65.5054 358.96 65.2554 358.045 64.7554 357.545C64.2554 357.045 63.3454 356.795 62.0254 356.795H58.9054C57.5654 356.795 56.6454 357.045 56.1454 357.545C55.6554 358.045 55.4104 358.95 55.4104 360.26V362.33C55.4104 363.64 55.6554 364.545 56.1454 365.045C56.6454 365.535 57.5654 365.78 58.9054 365.78Z" fill="#EFEDF8"/>
<path d="M40 223C37.75 223 36.09 222.47 35.02 221.41C33.96 220.34 33.43 218.68 33.43 216.43V209.53C33.43 207.27 33.96 205.615 35.02 204.565C36.09 203.505 37.75 202.985 40 203.005H41.8C44.05 203.005 45.705 203.535 46.765 204.595C47.825 205.645 48.355 207.3 48.355 209.56V216.43C48.355 218.68 47.825 220.34 46.765 221.41C45.705 222.47 44.05 223 41.8 223H40ZM40 220.795H41.8C42.89 220.795 43.75 220.66 44.38 220.39C45.02 220.11 45.475 219.655 45.745 219.025C46.015 218.385 46.15 217.52 46.15 216.43V209.56C46.15 208.47 46.015 207.61 45.745 206.98C45.475 206.34 45.02 205.885 44.38 205.615C43.75 205.345 42.89 205.21 41.8 205.21H40C38.91 205.19 38.045 205.315 37.405 205.585C36.775 205.845 36.32 206.295 36.04 206.935C35.77 207.565 35.635 208.43 35.635 209.53V216.43C35.635 217.52 35.77 218.385 36.04 219.025C36.31 219.655 36.76 220.11 37.39 220.39C38.03 220.66 38.9 220.795 40 220.795ZM40.57 214.375C39.84 214.375 39.475 214.01 39.475 213.28V212.59C39.475 211.88 39.84 211.525 40.57 211.525H41.23C41.93 211.525 42.28 211.88 42.28 212.59V213.28C42.28 214.01 41.93 214.375 41.23 214.375H40.57ZM63.6004 223C62.8604 223 62.4904 222.63 62.4904 221.89L62.5504 205.675L63.3604 205.165L54.3904 217.15L54.1654 216.595L66.3604 216.55C66.7204 216.55 66.9954 216.655 67.1854 216.865C67.3754 217.075 67.4704 217.34 67.4704 217.66C67.4704 218.39 67.1004 218.755 66.3604 218.755H53.1004C52.3604 218.755 51.9904 218.39 51.9904 217.66C51.9904 217.31 52.1404 216.925 52.4404 216.505L62.0704 203.68C62.2904 203.38 62.5154 203.19 62.7454 203.11C62.9854 203.03 63.2654 202.99 63.5854 202.99C64.3654 202.99 64.7554 203.36 64.7554 204.1L64.6954 221.89C64.6954 222.63 64.3304 223 63.6004 223Z" fill="#EFEDF8"/>
</svg>
