<svg width="144" height="390" viewBox="0 0 144 390" fill="none" xmlns="http://www.w3.org/2000/svg">
<path d="M27 390C20.25 390 15.27 388.41 12.06 385.23C8.88 382.02 7.29 377.04 7.29 370.29V349.59C7.29 342.81 8.88 337.845 12.06 334.695C15.27 331.515 20.25 329.955 27 330.015H32.4C39.15 330.015 44.115 331.605 47.295 334.785C50.475 337.935 52.065 342.9 52.065 349.68V370.29C52.065 377.04 50.475 382.02 47.295 385.23C44.115 388.41 39.15 390 32.4 390H27ZM27 383.385H32.4C35.67 383.385 38.25 382.98 40.14 382.17C42.06 381.33 43.425 379.965 44.235 378.075C45.045 376.155 45.45 373.56 45.45 370.29V349.68C45.45 346.41 45.045 343.83 44.235 341.94C43.425 340.02 42.06 338.655 40.14 337.845C38.25 337.035 35.67 336.63 32.4 336.63H27C23.73 336.57 21.135 336.945 19.215 337.755C17.325 338.535 15.96 339.885 15.12 341.805C14.31 343.695 13.905 346.29 13.905 349.59V370.29C13.905 373.56 14.31 376.155 15.12 378.075C15.93 379.965 17.28 381.33 19.17 382.17C21.09 382.98 23.7 383.385 27 383.385ZM28.71 364.125C26.52 364.125 25.425 363.03 25.425 360.84V358.77C25.425 356.64 26.52 355.575 28.71 355.575H30.69C32.79 355.575 33.84 356.64 33.84 358.77V360.84C33.84 363.03 32.79 364.125 30.69 364.125H28.71ZM83.7162 389.955C77.8662 389.955 73.5462 388.575 70.7562 385.815C67.9962 383.055 66.6162 378.78 66.6162 372.99V346.17C66.6162 340.65 67.9362 336.57 70.5762 333.93C73.2462 331.29 77.3262 329.97 82.8162 329.97H93.9762C98.8362 329.97 102.586 331.02 105.226 333.12C107.866 335.19 109.426 338.355 109.906 342.615C110.056 343.725 109.846 344.58 109.276 345.18C108.706 345.78 107.866 346.08 106.756 346.08C104.746 346.08 103.591 345 103.291 342.84C102.961 340.47 102.091 338.835 100.681 337.935C99.2712 337.035 97.0362 336.585 93.9762 336.585H82.8162C79.1262 336.585 76.6062 337.275 75.2562 338.655C73.9062 340.005 73.2312 342.51 73.2312 346.17V354.495C75.4812 351.345 78.9762 349.77 83.7162 349.77H93.0762C98.8962 349.77 103.186 351.165 105.946 353.955C108.736 356.745 110.131 361.05 110.131 366.87V372.9C110.131 378.72 108.736 383.025 105.946 385.815C103.186 388.575 98.8962 389.955 93.0762 389.955H83.7162ZM83.7162 383.34H93.0762C97.0662 383.34 99.7962 382.59 101.266 381.09C102.766 379.56 103.516 376.83 103.516 372.9V366.87C103.516 362.88 102.766 360.135 101.266 358.635C99.7662 357.135 97.0362 356.385 93.0762 356.385H83.7162C79.6962 356.385 76.9362 357.135 75.4362 358.635C73.9662 360.135 73.2312 362.85 73.2312 366.78V372.99C73.2312 376.92 73.9662 379.635 75.4362 381.135C76.9362 382.605 79.6962 383.34 83.7162 383.34Z" fill="#EFEDF8"/>
<path d="M43 97C40.75 97 39.09 96.47 38.02 95.41C36.96 94.34 36.43 92.68 36.43 90.43V83.53C36.43 81.27 36.96 79.615 38.02 78.565C39.09 77.505 40.75 76.985 43 77.005H44.8C47.05 77.005 48.705 77.535 49.765 78.595C50.825 79.645 51.355 81.3 51.355 83.56V90.43C51.355 92.68 50.825 94.34 49.765 95.41C48.705 96.47 47.05 97 44.8 97H43ZM43 94.795H44.8C45.89 94.795 46.75 94.66 47.38 94.39C48.02 94.11 48.475 93.655 48.745 93.025C49.015 92.385 49.15 91.52 49.15 90.43V83.56C49.15 82.47 49.015 81.61 48.745 80.98C48.475 80.34 48.02 79.885 47.38 79.615C46.75 79.345 45.89 79.21 44.8 79.21H43C41.91 79.19 41.045 79.315 40.405 79.585C39.775 79.845 39.32 80.295 39.04 80.935C38.77 81.565 38.635 82.43 38.635 83.53V90.43C38.635 91.52 38.77 92.385 39.04 93.025C39.31 93.655 39.76 94.11 40.39 94.39C41.03 94.66 41.9 94.795 43 94.795ZM43.57 88.375C42.84 88.375 42.475 88.01 42.475 87.28V86.59C42.475 85.88 42.84 85.525 43.57 85.525H44.23C44.93 85.525 45.28 85.88 45.28 86.59V87.28C45.28 88.01 44.93 88.375 44.23 88.375H43.57ZM67.9954 97H56.6404C55.8904 97 55.5154 96.63 55.5154 95.89C55.5154 94.62 55.7054 93.535 56.0854 92.635C56.4754 91.725 56.9904 90.95 57.6304 90.31C58.2704 89.66 58.9804 89.09 59.7604 88.6C60.5504 88.11 61.3404 87.635 62.1304 87.175C63.2004 86.565 64.0954 86.035 64.8154 85.585C65.5454 85.125 66.0904 84.655 66.4504 84.175C66.8204 83.685 67.0054 83.09 67.0054 82.39C67.0054 81.16 66.7754 80.32 66.3154 79.87C65.8654 79.42 65.0304 79.195 63.8104 79.195H60.6004C59.5904 79.195 58.8454 79.345 58.3654 79.645C57.8954 79.945 57.6054 80.49 57.4954 81.28C57.4354 81.63 57.3154 81.9 57.1354 82.09C56.9654 82.27 56.7004 82.36 56.3404 82.36C55.9704 82.36 55.6904 82.26 55.5004 82.06C55.3104 81.86 55.2304 81.575 55.2604 81.205C55.4404 79.785 55.9654 78.73 56.8354 78.04C57.7154 77.34 58.9704 76.99 60.6004 76.99H63.8104C65.6504 76.99 67.0104 77.43 67.8904 78.31C68.7704 79.19 69.2104 80.55 69.2104 82.39C69.2104 83.53 68.9304 84.49 68.3704 85.27C67.8204 86.04 67.0854 86.72 66.1654 87.31C65.2554 87.9 64.2704 88.495 63.2104 89.095C62.2504 89.645 61.3904 90.17 60.6304 90.67C59.8704 91.17 59.2404 91.74 58.7404 92.38C58.2504 93.02 57.9354 93.825 57.7954 94.795H67.9954C68.7354 94.795 69.1054 95.16 69.1054 95.89C69.1054 96.63 68.7354 97 67.9954 97Z" fill="#EFEDF8"/>
<path d="M43 161C40.75 161 39.09 160.47 38.02 159.41C36.96 158.34 36.43 156.68 36.43 154.43V147.53C36.43 145.27 36.96 143.615 38.02 142.565C39.09 141.505 40.75 140.985 43 141.005H44.8C47.05 141.005 48.705 141.535 49.765 142.595C50.825 143.645 51.355 145.3 51.355 147.56V154.43C51.355 156.68 50.825 158.34 49.765 159.41C48.705 160.47 47.05 161 44.8 161H43ZM43 158.795H44.8C45.89 158.795 46.75 158.66 47.38 158.39C48.02 158.11 48.475 157.655 48.745 157.025C49.015 156.385 49.15 155.52 49.15 154.43V147.56C49.15 146.47 49.015 145.61 48.745 144.98C48.475 144.34 48.02 143.885 47.38 143.615C46.75 143.345 45.89 143.21 44.8 143.21H43C41.91 143.19 41.045 143.315 40.405 143.585C39.775 143.845 39.32 144.295 39.04 144.935C38.77 145.565 38.635 146.43 38.635 147.53V154.43C38.635 155.52 38.77 156.385 39.04 157.025C39.31 157.655 39.76 158.11 40.39 158.39C41.03 158.66 41.9 158.795 43 158.795ZM43.57 152.375C42.84 152.375 42.475 152.01 42.475 151.28V150.59C42.475 149.88 42.84 149.525 43.57 149.525H44.23C44.93 149.525 45.28 149.88 45.28 150.59V151.28C45.28 152.01 44.93 152.375 44.23 152.375H43.57ZM61.2304 160.985C59.5004 160.985 58.1704 160.62 57.2404 159.89C56.3104 159.16 55.7604 158.025 55.5904 156.485C55.5604 156.115 55.6404 155.83 55.8304 155.63C56.0204 155.43 56.3004 155.33 56.6704 155.33C57.3504 155.33 57.7254 155.695 57.7954 156.425C57.9254 157.315 58.2454 157.93 58.7554 158.27C59.2754 158.61 60.1004 158.78 61.2304 158.78H64.6504C65.9904 158.78 66.9054 158.535 67.3954 158.045C67.8954 157.545 68.1454 156.64 68.1454 155.33C68.1454 154.02 67.8954 153.115 67.3954 152.615C66.9054 152.115 65.9904 151.865 64.6504 151.865H62.1904C61.4504 151.865 61.0804 151.5 61.0804 150.77C61.0804 150.03 61.4504 149.66 62.1904 149.66H65.5504C66.3404 149.66 66.8904 149.375 67.2004 148.805C67.5104 148.235 67.6654 147.43 67.6654 146.39C67.6654 145.16 67.4354 144.32 66.9754 143.87C66.5254 143.42 65.6904 143.195 64.4704 143.195H61.5604C60.5504 143.195 59.8054 143.345 59.3254 143.645C58.8554 143.945 58.5654 144.49 58.4554 145.28C58.3554 146 57.9704 146.36 57.3004 146.36C56.9304 146.36 56.6504 146.26 56.4604 146.06C56.2704 145.86 56.2004 145.575 56.2504 145.205C56.4204 143.785 56.9404 142.73 57.8104 142.04C58.6904 141.34 59.9404 140.99 61.5604 140.99H64.4704C66.3104 140.99 67.6704 141.43 68.5504 142.31C69.4304 143.19 69.8704 144.55 69.8704 146.39C69.8704 148.29 69.2804 149.62 68.1004 150.38C68.8704 150.81 69.4354 151.435 69.7954 152.255C70.1654 153.065 70.3504 154.09 70.3504 155.33C70.3504 157.26 69.8904 158.685 68.9704 159.605C68.0504 160.525 66.6104 160.985 64.6504 160.985H61.2304Z" fill="#EFEDF8"/>
<path d="M43 226C40.75 226 39.09 225.47 38.02 224.41C36.96 223.34 36.43 221.68 36.43 219.43V212.53C36.43 210.27 36.96 208.615 38.02 207.565C39.09 206.505 40.75 205.985 43 206.005H44.8C47.05 206.005 48.705 206.535 49.765 207.595C50.825 208.645 51.355 210.3 51.355 212.56V219.43C51.355 221.68 50.825 223.34 49.765 224.41C48.705 225.47 47.05 226 44.8 226H43ZM43 223.795H44.8C45.89 223.795 46.75 223.66 47.38 223.39C48.02 223.11 48.475 222.655 48.745 222.025C49.015 221.385 49.15 220.52 49.15 219.43V212.56C49.15 211.47 49.015 210.61 48.745 209.98C48.475 209.34 48.02 208.885 47.38 208.615C46.75 208.345 45.89 208.21 44.8 208.21H43C41.91 208.19 41.045 208.315 40.405 208.585C39.775 208.845 39.32 209.295 39.04 209.935C38.77 210.565 38.635 211.43 38.635 212.53V219.43C38.635 220.52 38.77 221.385 39.04 222.025C39.31 222.655 39.76 223.11 40.39 223.39C41.03 223.66 41.9 223.795 43 223.795ZM43.57 217.375C42.84 217.375 42.475 217.01 42.475 216.28V215.59C42.475 214.88 42.84 214.525 43.57 214.525H44.23C44.93 214.525 45.28 214.88 45.28 215.59V216.28C45.28 217.01 44.93 217.375 44.23 217.375H43.57ZM66.6004 226C65.8604 226 65.4904 225.63 65.4904 224.89L65.5504 208.675L66.3604 208.165L57.3904 220.15L57.1654 219.595L69.3604 219.55C69.7204 219.55 69.9954 219.655 70.1854 219.865C70.3754 220.075 70.4704 220.34 70.4704 220.66C70.4704 221.39 70.1004 221.755 69.3604 221.755H56.1004C55.3604 221.755 54.9904 221.39 54.9904 220.66C54.9904 220.31 55.1404 219.925 55.4404 219.505L65.0704 206.68C65.2904 206.38 65.5154 206.19 65.7454 206.11C65.9854 206.03 66.2654 205.99 66.5854 205.99C67.3654 205.99 67.7554 206.36 67.7554 207.1L67.6954 224.89C67.6954 225.63 67.3304 226 66.6004 226Z" fill="#EFEDF8"/>
<path d="M43 29C40.75 29 39.09 28.47 38.02 27.41C36.96 26.34 36.43 24.68 36.43 22.43V15.53C36.43 13.27 36.96 11.615 38.02 10.565C39.09 9.505 40.75 8.985 43 9.005H44.8C47.05 9.005 48.705 9.535 49.765 10.595C50.825 11.645 51.355 13.3 51.355 15.56V22.43C51.355 24.68 50.825 26.34 49.765 27.41C48.705 28.47 47.05 29 44.8 29H43ZM43 26.795H44.8C45.89 26.795 46.75 26.66 47.38 26.39C48.02 26.11 48.475 25.655 48.745 25.025C49.015 24.385 49.15 23.52 49.15 22.43V15.56C49.15 14.47 49.015 13.61 48.745 12.98C48.475 12.34 48.02 11.885 47.38 11.615C46.75 11.345 45.89 11.21 44.8 11.21H43C41.91 11.19 41.045 11.315 40.405 11.585C39.775 11.845 39.32 12.295 39.04 12.935C38.77 13.565 38.635 14.43 38.635 15.53V22.43C38.635 23.52 38.77 24.385 39.04 25.025C39.31 25.655 39.76 26.11 40.39 26.39C41.03 26.66 41.9 26.795 43 26.795ZM43.57 20.375C42.84 20.375 42.475 20.01 42.475 19.28V18.59C42.475 17.88 42.84 17.525 43.57 17.525H44.23C44.93 17.525 45.28 17.88 45.28 18.59V19.28C45.28 20.01 44.93 20.375 44.23 20.375H43.57ZM60.7124 29C59.9724 29 59.6024 28.63 59.6024 27.89V12.02L60.3074 11.66L57.0224 14.78C56.7924 15 56.5524 15.13 56.3024 15.17C56.0624 15.2 55.8224 15.095 55.5824 14.855C55.1024 14.375 55.1224 13.87 55.6424 13.34L59.5124 9.545C59.8724 9.175 60.3274 8.99 60.8774 8.99C61.4974 8.99 61.8074 9.36 61.8074 10.1V27.89C61.8074 28.63 61.4424 29 60.7124 29Z" fill="#EFEDF8"/>
<path d="M43 291C40.75 291 39.09 290.47 38.02 289.41C36.96 288.34 36.43 286.68 36.43 284.43V277.53C36.43 275.27 36.96 273.615 38.02 272.565C39.09 271.505 40.75 270.985 43 271.005H44.8C47.05 271.005 48.705 271.535 49.765 272.595C50.825 273.645 51.355 275.3 51.355 277.56V284.43C51.355 286.68 50.825 288.34 49.765 289.41C48.705 290.47 47.05 291 44.8 291H43ZM43 288.795H44.8C45.89 288.795 46.75 288.66 47.38 288.39C48.02 288.11 48.475 287.655 48.745 287.025C49.015 286.385 49.15 285.52 49.15 284.43V277.56C49.15 276.47 49.015 275.61 48.745 274.98C48.475 274.34 48.02 273.885 47.38 273.615C46.75 273.345 45.89 273.21 44.8 273.21H43C41.91 273.19 41.045 273.315 40.405 273.585C39.775 273.845 39.32 274.295 39.04 274.935C38.77 275.565 38.635 276.43 38.635 277.53V284.43C38.635 285.52 38.77 286.385 39.04 287.025C39.31 287.655 39.76 288.11 40.39 288.39C41.03 288.66 41.9 288.795 43 288.795ZM43.57 282.375C42.84 282.375 42.475 282.01 42.475 281.28V280.59C42.475 279.88 42.84 279.525 43.57 279.525H44.23C44.93 279.525 45.28 279.88 45.28 280.59V281.28C45.28 282.01 44.93 282.375 44.23 282.375H43.57ZM61.8454 291C60.1154 291 58.7854 290.635 57.8554 289.905C56.9254 289.165 56.3754 288.025 56.2054 286.485C56.1754 286.125 56.2554 285.845 56.4454 285.645C56.6354 285.435 56.9154 285.33 57.2854 285.33C57.9654 285.33 58.3404 285.69 58.4104 286.41C58.5404 287.3 58.8604 287.92 59.3704 288.27C59.8904 288.62 60.7154 288.795 61.8454 288.795H64.9654C66.3054 288.795 67.2204 288.545 67.7104 288.045C68.2104 287.535 68.4604 286.62 68.4604 285.3V283.23C68.4604 281.9 68.2104 280.99 67.7104 280.5C67.2104 280 66.2954 279.75 64.9654 279.75H62.7454C61.1354 279.75 59.9904 279.975 59.3104 280.425C59.0604 280.595 58.8254 280.72 58.6054 280.8C58.3854 280.88 58.1304 280.875 57.8404 280.785L57.5854 280.71C56.9754 280.54 56.6704 280.13 56.6704 279.48V272.1C56.6704 271.36 57.0354 270.99 57.7654 270.99H69.5104C70.2404 270.99 70.6054 271.36 70.6054 272.1C70.6054 272.83 70.2404 273.195 69.5104 273.195H58.8754V278.175C59.8854 277.755 61.1754 277.545 62.7454 277.545H64.9654C66.9054 277.545 68.3404 278.01 69.2704 278.94C70.2004 279.86 70.6654 281.29 70.6654 283.23V285.3C70.6654 287.24 70.2004 288.675 69.2704 289.605C68.3404 290.535 66.9054 291 64.9654 291H61.8454Z" fill="#EFEDF8"/>
</svg>
