<svg width="429" height="105" viewBox="0 0 429 105" fill="none" xmlns="http://www.w3.org/2000/svg">
<path d="M2.912 84.616C0.352 83.624 -0.416 81.864 0.608 79.336L23.456 23.08C24.416 20.968 25.92 19.912 27.968 19.912H28.16C30.24 20.008 31.648 21.064 32.384 23.08L55.616 79.336C56.64 81.864 55.904 83.624 53.408 84.616C50.88 85.608 49.12 84.872 48.128 82.408L42.944 69.832H13.04L8.096 82.408C7.104 84.904 5.376 85.64 2.912 84.616ZM16.208 61.768H39.632L27.68 32.68L16.208 61.768ZM32.288 15.688C30.4 17.192 28.768 17.064 27.392 15.304L20.384 6.856C18.848 5 18.976 3.36799 20.768 1.95999C22.56 0.455996 24.192 0.583996 25.664 2.34399L32.672 10.792C34.176 12.584 34.048 14.216 32.288 15.688ZM104.141 104.2C101.453 104.2 100.109 102.856 100.109 100.168V40.36C100.109 37.672 101.453 36.328 104.141 36.328C106.829 36.328 108.173 37.672 108.173 40.36V41.56C109.901 39.832 112.029 38.536 114.557 37.672C117.117 36.776 119.981 36.328 123.149 36.328H126.797C133.197 36.328 137.933 37.864 141.005 40.936C144.077 44.008 145.613 48.744 145.613 55.144V66.184C145.613 72.552 144.077 77.288 141.005 80.392C137.933 83.464 133.197 85 126.797 85H108.173V100.168C108.173 102.856 106.829 104.2 104.141 104.2ZM108.173 76.936H126.797C130.989 76.936 133.821 76.184 135.293 74.68C136.797 73.176 137.549 70.344 137.549 66.184V55.144C137.549 50.952 136.797 48.12 135.293 46.648C133.821 45.144 130.989 44.392 126.797 44.392H123.149C119.149 44.392 115.693 44.872 112.781 45.832C109.869 46.792 108.333 48.312 108.173 50.392V76.936ZM167.329 85C164.641 85 163.297 83.656 163.297 80.968V40.36C163.297 37.672 164.641 36.328 167.329 36.328C170.017 36.328 171.361 37.672 171.361 40.36V44.104C173.249 41.544 175.649 39.608 178.561 38.296C181.505 36.984 184.865 36.328 188.641 36.328C191.329 36.328 192.673 37.672 192.673 40.36C192.673 43.048 191.329 44.392 188.641 44.392C183.105 44.392 178.881 45.416 175.969 47.464C173.057 49.512 171.521 52.216 171.361 55.576V80.968C171.361 83.656 170.017 85 167.329 85ZM218.902 85C212.534 85 207.798 83.464 204.694 80.392C201.622 77.32 200.086 72.616 200.086 66.28V55.144C200.086 48.712 201.622 43.976 204.694 40.936C207.798 37.864 212.534 36.328 218.902 36.328H226.774C233.174 36.328 237.91 37.864 240.982 40.936C244.054 44.008 245.59 48.744 245.59 55.144V66.184C245.59 72.552 244.054 77.288 240.982 80.392C237.91 83.464 233.174 85 226.774 85H218.902ZM208.15 66.28C208.15 70.408 208.902 73.224 210.406 74.728C211.91 76.2 214.742 76.936 218.902 76.936H226.774C230.966 76.936 233.798 76.184 235.27 74.68C236.774 73.176 237.526 70.344 237.526 66.184V55.144C237.526 50.952 236.774 48.12 235.27 46.648C233.798 45.144 230.966 44.392 226.774 44.392H218.902C216.118 44.392 213.942 44.712 212.374 45.352C210.838 45.96 209.75 47.048 209.11 48.616C208.47 50.152 208.15 52.328 208.15 55.144V66.28ZM267.266 104.2C264.578 104.2 263.234 102.856 263.234 100.168V40.36C263.234 37.672 264.578 36.328 267.266 36.328C269.954 36.328 271.298 37.672 271.298 40.36V41.56C273.026 39.832 275.154 38.536 277.682 37.672C280.242 36.776 283.106 36.328 286.274 36.328H289.922C296.322 36.328 301.058 37.864 304.13 40.936C307.202 44.008 308.738 48.744 308.738 55.144V66.184C308.738 72.552 307.202 77.288 304.13 80.392C301.058 83.464 296.322 85 289.922 85H271.298V100.168C271.298 102.856 269.954 104.2 267.266 104.2ZM271.298 76.936H289.922C294.114 76.936 296.946 76.184 298.418 74.68C299.922 73.176 300.674 70.344 300.674 66.184V55.144C300.674 50.952 299.922 48.12 298.418 46.648C296.946 45.144 294.114 44.392 289.922 44.392H286.274C282.274 44.392 278.818 44.872 275.906 45.832C272.994 46.792 271.458 48.312 271.298 50.392V76.936ZM342.934 85C336.566 85 331.83 83.464 328.726 80.392C325.654 77.32 324.118 72.616 324.118 66.28V55.144C324.118 48.712 325.654 43.976 328.726 40.936C331.83 37.864 336.566 36.328 342.934 36.328H350.806C357.206 36.328 361.942 37.864 365.014 40.936C368.086 44.008 369.622 48.744 369.622 55.144V66.184C369.622 72.552 368.086 77.288 365.014 80.392C361.942 83.464 357.206 85 350.806 85H342.934ZM332.182 66.28C332.182 70.408 332.934 73.224 334.438 74.728C335.942 76.2 338.774 76.936 342.934 76.936H350.806C354.998 76.936 357.83 76.184 359.302 74.68C360.806 73.176 361.558 70.344 361.558 66.184V55.144C361.558 50.952 360.806 48.12 359.302 46.648C357.83 45.144 354.998 44.392 350.806 44.392H342.934C340.15 44.392 337.974 44.712 336.406 45.352C334.87 45.96 333.782 47.048 333.142 48.616C332.502 50.152 332.182 52.328 332.182 55.144V66.28ZM398.689 85C394.625 85 391.409 84.168 389.041 82.504C386.673 80.808 385.153 78.28 384.481 74.92C384.257 73.576 384.513 72.52 385.249 71.752C386.017 70.984 387.073 70.6 388.417 70.6C389.729 70.6 390.673 70.936 391.249 71.608C391.857 72.248 392.353 73.224 392.737 74.536C393.121 75.496 393.761 76.136 394.657 76.456C395.585 76.776 396.929 76.936 398.689 76.936H414.433C416.929 76.936 418.609 76.536 419.473 75.736C420.337 74.904 420.769 73.192 420.769 70.6C420.769 68.04 420.337 66.344 419.473 65.512C418.609 64.68 416.929 64.264 414.433 64.264H398.977C394.369 64.264 390.897 63.096 388.561 60.76C386.225 58.424 385.057 54.952 385.057 50.344C385.057 45.64 386.193 42.136 388.465 39.832C390.769 37.496 394.273 36.328 398.977 36.328H413.953C421.473 36.328 425.921 39.496 427.297 45.832C427.553 47.176 427.297 48.216 426.529 48.952C425.761 49.688 424.705 50.056 423.361 50.056C422.113 50.056 421.185 49.736 420.577 49.096C419.969 48.424 419.489 47.496 419.137 46.312C418.753 45.544 418.161 45.032 417.361 44.776C416.593 44.52 415.457 44.392 413.953 44.392H398.977C396.545 44.392 394.961 44.76 394.225 45.496C393.489 46.232 393.121 47.848 393.121 50.344C393.121 52.648 393.505 54.2 394.273 55C395.073 55.8 396.641 56.2 398.977 56.2H414.433C419.233 56.2 422.833 57.4 425.233 59.8C427.633 62.2 428.833 65.8 428.833 70.6C428.833 75.432 427.633 79.048 425.233 81.448C422.833 83.816 419.233 85 414.433 85H398.689Z" fill="#EFEDF8"/>
</svg>
