<svg width="44" height="37" viewBox="0 0 44 37" fill="none" xmlns="http://www.w3.org/2000/svg">
<path d="M5.0512 11.921C5.05913 11.9119 5.06696 11.9028 5.07467 11.8935C5.07736 11.8903 5.08104 11.886 5.0856 11.8806C5.14805 11.8074 5.37569 11.5406 5.50609 11.1929C5.65213 10.8035 5.65985 10.3988 5.54881 10.0187C5.55713 9.73386 5.56299 9.46285 5.56869 9.19924C5.58171 8.59732 5.5939 8.03403 5.63257 7.43302C5.7636 5.54975 6.08093 3.72976 6.67412 2.01988C7.99722 2.30263 9.28813 2.83986 10.6509 3.49478C12.2494 4.27994 13.7984 5.21447 15.2672 6.24263C15.2706 6.245 15.274 6.24736 15.2774 6.2497C15.2833 6.2538 15.2893 6.25785 15.2953 6.26185C15.8296 6.61807 16.3965 6.69543 16.9193 6.62075C16.9634 6.61445 17.0073 6.60617 17.0507 6.59595C17.5257 6.48419 17.9568 6.40403 18.408 6.35094L18.431 6.34806C20.1478 6.11915 21.8867 6.08738 23.6998 6.14661C25.1432 6.20685 26.4393 6.29468 27.6788 6.58753C28.1434 6.71234 28.5401 6.60324 28.745 6.52441C28.9059 6.46254 29.061 6.37698 29.2016 6.27112C29.5499 6.05756 29.8931 5.83549 30.2177 5.62547C30.2833 5.58303 30.3482 5.54108 30.4121 5.4998C30.8299 5.23019 31.2201 4.98236 31.6092 4.76001L31.6127 4.758C33.6754 3.57193 35.698 2.59305 37.8658 2.04425C38.0161 2.47991 38.1498 2.88384 38.2616 3.31537L38.2616 3.31538L38.2646 3.32668C38.7959 5.31202 38.9463 7.35937 39.0069 9.54773C39.0057 9.70028 38.9892 9.86726 38.961 10.0111C38.8972 10.2362 38.8393 10.5769 38.9373 10.969C39.0393 11.3769 39.2639 11.6511 39.4041 11.7981C41.1232 13.7703 42.0545 16.0127 42.2448 18.6328C42.3289 19.9587 42.273 21.2944 42.1008 22.6432L42.0989 22.659C41.8408 24.8668 41.276 26.9118 40.2175 28.7303L40.2169 28.7314C39.5233 29.9252 38.677 30.9356 37.69 31.7781C38.2733 31.001 38.7158 30.1035 39.0138 29.0945C39.4693 27.618 39.601 26.1004 39.5338 24.6552C39.4629 23.1305 39.0675 21.6274 38.1492 20.2844C36.6503 18.0401 34.5396 16.5727 31.6131 16.4226L31.595 16.4218C29.9826 16.3585 28.4111 16.451 26.8943 16.5403L26.8136 16.5451C26.8129 16.5451 26.8123 16.5451 26.8117 16.5452C26.3058 16.5738 25.8192 16.6069 25.3439 16.6392C24.2306 16.7148 23.1795 16.7863 22.0883 16.7868C20.0985 16.7571 18.1313 16.6124 16.0843 16.4619L15.9933 16.4552L15.9933 16.4551L15.9853 16.4546C14.5852 16.3591 13.0867 16.3507 11.5805 16.6657C8.33861 17.337 6.28628 19.4546 5.41203 22.4725C4.72758 24.7827 4.96135 27.1067 5.63111 29.2233C5.91697 30.1809 6.34041 31.0286 6.89177 31.7646C5.86594 30.9135 5.02055 30.0082 4.40086 28.9238L4.40087 28.9237L4.39747 28.9179C3.27187 26.9686 2.6222 24.7121 2.39483 22.3248L2.39241 22.3013C2.36431 22.0485 2.34294 21.8 2.31982 21.5303L2.31915 21.5225C2.29885 21.2856 2.27709 21.0318 2.24902 20.7685V20.7672V20.7633V20.7594V20.7554V20.7515V20.7476V20.7436V20.7397V20.7358V20.7318V20.7279V20.724V20.72V20.7161V20.7122V20.7082V20.7043V20.7004V20.6964V20.6925V20.6886V20.6846V20.6807V20.6768V20.6728V20.6689V20.665V20.661V20.6571V20.6532V20.6492V20.6453V20.6414V20.6374V20.6335V20.6296V20.6256V20.6217V20.6178V20.6138V20.6099V20.606V20.602V20.5981V20.5942V20.5902V20.5863V20.5824V20.5784V20.5745V20.5706V20.5666V20.5627V20.5588V20.5548V20.5509V20.547V20.543V20.5391V20.5352V20.5312V20.5273V20.5234V20.5194V20.5155V20.5116V20.5076V20.5037V20.4998V20.4958V20.4919V20.488V20.484V20.4801V20.4762V20.4722V20.4683V20.4644V20.4604V20.4565V20.4526V20.4486V20.4447V20.4408V20.4368V20.4329V20.429V20.425V20.4211V20.4172V20.4132V20.4093V20.4054V20.4014V20.3975V20.3936V20.3896V20.3857V20.3818V20.3778V20.3739V20.37V20.366V20.3621V20.3582V20.3542V20.3503V20.3464V20.3424V20.3385V20.3346V20.3306V20.3267V20.3228V20.3188V20.3149V20.311V20.307V20.3031V20.2992V20.2952V20.2913V20.2874V20.2834V20.2795V20.2756V20.2716V20.2677V20.2638V20.2598V20.2559V20.252V20.248V20.2441V20.2402V20.2362V20.2323V20.2284V20.2244V20.2205V20.2166V20.2126V20.2087V20.2048V20.2008V20.1969V20.193V20.189V20.1851V20.1812V20.1772V20.1733V20.1694V20.1654V20.1615V20.1576V20.1536V20.1497V20.1458V20.1418V20.1379V20.134V20.13V20.1261V20.1222V20.1182V20.1143V20.1104V20.1064V20.1025V20.0986V20.0946V20.0907V20.0868V20.0828V20.0789V20.075V20.071V20.0671V20.0632V20.0592V20.0553V20.0514V20.0474V20.0435V20.0396V20.0356V20.0317V20.0278V20.0238V20.0199V20.016V20.012V20.0081V20.0042V20.0002V19.9963V19.9924V19.9884V19.9845V19.9806V19.9766V19.9727V19.9688V19.9648V19.9609V19.957V19.953V19.9491V19.9452V19.9412V19.9373V19.9334V19.9294V19.9255V19.9216V19.9176V19.9137V19.9098V19.9058V19.9019V19.898V19.894V19.8901V19.8862V19.8822V19.8783V19.8744V19.8704V19.8665V19.8626V19.8586V19.8547V19.8508V19.8468V19.8429V19.839V19.835V19.8311V19.8272V19.8232V19.8193V19.8154V19.8114V19.8075V19.8036V19.7996V19.7957V19.7918V19.7878V19.7839V19.78V19.776V19.7721V19.7682V19.7642V19.7603V19.7564V19.7524V19.7485V19.7446V19.7406V19.7367V19.7328V19.7288V19.7249V19.721V19.717V19.7131V19.7092V19.7052V19.7013V19.6974V19.6934V19.6895V19.6856V19.6816V19.6777V19.6738V19.6698V19.6659V19.662V19.658V19.6541V19.6502V19.6462V19.6423V19.6384V19.6344V19.6305V19.6266V19.6226V19.6187V19.6148V19.6108V19.6069V19.603V19.599V19.5951V19.5912V19.5872V19.5833V19.5794V19.5754V19.5715V19.5676V19.5636V19.5597V19.5558V19.5518V19.5479V19.544V19.54V19.5361V19.5322V19.5282V19.5243V19.5204V19.5164V19.5125V19.5086V19.5046V19.5007V19.4968V19.4928V19.4889V19.485V19.481V19.4771V19.4732V19.4692V19.4653V19.4614V19.4574V19.4535V19.4496V19.4456V19.4417V19.4378V19.4338V19.4299V19.426V19.422V19.4181V19.4142V19.4102V19.4063V19.4024V19.3984V19.3945V19.3906V19.3866V19.3827V19.3788V19.3748V19.3709V19.367V19.363V19.3591V19.3552V19.3512V19.3473V19.3434V19.3394V19.3355V19.3316V19.3277V19.3237V19.3198V19.3158V19.3119V19.308V19.3041V19.3001V19.2962V19.2922V19.2883V19.2844V19.2805V19.2765V19.2726V19.2687V19.2647V19.2608V19.2569V19.2529V19.249V19.2451V19.2411V19.2372V19.2333V19.2293V19.2254V19.2215V19.2175V19.2136V19.2097V19.2057V19.2018V19.1979V19.1939V19.19V19.1861V19.1821V19.1782V19.1743V19.1703V19.1664V19.1625V19.1585V19.1546V19.1507V19.1467V19.1428V19.1389V19.1349V19.131V19.1271V19.1231V19.1192V19.1153V19.1113V19.1074V19.1035V19.0995V19.0956V19.0917V19.0877V19.0838V19.0799V19.0759V19.072V19.0681V19.0641V19.0602V19.0563V19.0523V19.0484V19.0445V19.0405V19.0366V19.0327V19.0287V19.0248V19.0209V19.0169V19.013V19.0091V19.0051V19.0012V18.9973V18.9933V18.9894V18.9855V18.9815V18.9776V18.9737V18.9697V18.9658V18.9619V18.9579V18.954V18.9501V18.9461V18.9422V18.9383V18.9343V18.9304V18.9265V18.9225V18.9214C2.25145 18.9075 2.25438 18.8901 2.25733 18.871C2.26151 18.8438 2.26679 18.8062 2.27109 18.7623C2.27349 18.7377 2.27588 18.7083 2.2775 18.6751C2.473 16.0899 3.36352 13.8498 5.0512 11.921ZM5.41654 9.68267C5.41699 9.68356 5.41743 9.68445 5.41788 9.68535L5.41654 9.68267ZM7.03206 1.01957C7.03585 1.00876 7.03554 1.01083 7.03108 1.02237C7.0314 1.02144 7.03173 1.02051 7.03206 1.01957ZM5.65042 1.83521C5.65028 1.83514 5.65312 1.83553 5.65937 1.83657C5.65369 1.8358 5.65057 1.83528 5.65042 1.83521Z" fill="#EFEDF8" stroke="#EFEDF8" stroke-width="3" stroke-linecap="round" stroke-linejoin="round"/>
<path d="M17.8978 25.7319C17.8978 26.9524 17.5926 27.9898 16.8908 28.9052C15.7924 30.3088 14.0532 30.3698 12.8937 29.0272C12.0088 27.9898 11.7342 26.7388 11.7952 25.4267C11.8563 24.4809 12.1309 23.5655 12.7106 22.8027C13.1378 22.2229 13.687 21.7957 14.4193 21.6432C15.4262 21.4601 16.1891 21.8263 16.8298 22.5891C17.5926 23.5044 17.8978 24.6029 17.8978 25.7319Z" fill="#EFEDF8"/>
<path d="M32.7885 25.7628C32.7885 27.1053 32.4224 28.2953 31.507 29.2412C30.5611 30.2176 29.1575 30.2786 28.1201 29.3633C27.3268 28.6615 26.8996 27.7461 26.747 26.7087C26.5334 25.2135 26.747 23.81 27.7539 22.5895C28.4557 21.7351 29.3406 21.3995 30.439 21.6741C30.9578 21.7961 31.3544 22.1318 31.6901 22.5589C32.4529 23.4743 32.758 24.5728 32.7885 25.7628Z" fill="#EFEDF8"/>
</svg>
