<svg width="48" height="41" viewBox="0 0 48 41" fill="none" xmlns="http://www.w3.org/2000/svg">
<path d="M19.6934 39.9688C22.4528 40.0862 25.2122 40.0238 27.9716 39.9614C28.3658 39.9525 28.76 39.9436 29.1542 39.9352L19.6934 39.9688ZM19.6934 39.9688C19.4883 39.9613 19.2833 39.9543 19.0783 39.9472C17.4381 39.8909 15.7979 39.8346 14.1578 39.5662M19.6934 39.9688L14.1578 39.5662M14.1578 39.5662C11.2725 39.13 8.65569 38.1236 6.30725 36.3119M14.1578 39.5662L2.58329 32.2525M6.30725 36.3119C4.83108 35.1712 3.52266 33.8964 2.58329 32.2525M6.30725 36.3119L7.22345 35.1242C7.22377 35.1245 7.22409 35.1247 7.22442 35.125M6.30725 36.3119L7.22442 35.125M2.58329 32.2525C1.20777 29.8705 0.436139 27.153 0.167746 24.3348L2.58329 32.2525ZM7.22442 35.125C5.83305 34.0498 4.69042 32.9166 3.88565 31.5082L3.88566 31.5082L3.88226 31.5023C2.63216 29.3375 1.91265 26.8351 1.66099 24.1926L1.65857 24.1692C1.62744 23.889 1.60379 23.6139 1.57839 23.3177L1.57772 23.3098C1.55515 23.0465 1.5311 22.766 1.5 22.4752M7.22442 35.125C7.47404 35.3175 7.72713 35.5001 7.98376 35.6731M1.5 22.4752L10.4383 37.2172C9.50738 36.8118 8.68649 36.2966 7.98376 35.6731M1.5 22.4752V22.4746V22.4702V22.4659V22.4616V22.4573V22.4529V22.4486V22.4443V22.44V22.4356V22.4313V22.427V22.4227V22.4183V22.414V22.4097V22.4054V22.401V22.3967V22.3924V22.3881V22.3838V22.3794V22.3751V22.3708V22.3665V22.3621V22.3578V22.3535V22.3492V22.3448V22.3405V22.3362V22.3319V22.3275V22.3232V22.3189V22.3146V22.3102V22.3059V22.3016V22.2973V22.2929V22.2886V22.2843V22.28V22.2756V22.2713V22.267V22.2627V22.2583V22.254V22.2497V22.2454V22.241V22.2367V22.2324V22.2281V22.2237V22.2194V22.2151V22.2108V22.2064V22.2021V22.1978V22.1935V22.1891V22.1848V22.1805V22.1762V22.1718V22.1675V22.1632V22.1589V22.1545V22.1502V22.1459V22.1416V22.1372V22.1329V22.1286V22.1243V22.1199V22.1156V22.1113V22.107V22.1026V22.0983V22.094V22.0897V22.0853V22.081V22.0767V22.0724V22.068V22.0637V22.0594V22.0551V22.0507V22.0464V22.0421V22.0378V22.0334V22.0291V22.0248V22.0205V22.0162V22.0118V22.0075V22.0032V21.9989V21.9945V21.9902V21.9859V21.9816V21.9772V21.9729V21.9686V21.9643V21.9599V21.9556V21.9513V21.947V21.9426V21.9383V21.934V21.9297V21.9253V21.921V21.9167V21.9124V21.908V21.9037V21.8994V21.8951V21.8907V21.8864V21.8821V21.8778V21.8734V21.8691V21.8648V21.8605V21.8561V21.8518V21.8475V21.8432V21.8388V21.8345V21.8302V21.8259V21.8215V21.8172V21.8129V21.8086V21.8042V21.7999V21.7956V21.7913V21.7869V21.7826V21.7783V21.774V21.7696V21.7653V21.761V21.7567V21.7523V21.748V21.7437V21.7394V21.735V21.7307V21.7264V21.7221V21.7177V21.7134V21.7091V21.7048V21.7004V21.6961V21.6918V21.6875V21.6831V21.6788V21.6745V21.6702V21.6659V21.6615V21.6572V21.6529V21.6486V21.6442V21.6399V21.6356V21.6313V21.6269V21.6226V21.6183V21.614V21.6096V21.6053V21.601V21.5967V21.5923V21.588V21.5837V21.5794V21.575V21.5707V21.5664V21.5621V21.5577V21.5534V21.5491V21.5448V21.5404V21.5361V21.5318V21.5275V21.5231V21.5188V21.5145V21.5102V21.5058V21.5015V21.4972V21.4929V21.4885V21.4842V21.4799V21.4756V21.4712V21.4669V21.4626V21.4583V21.4539V21.4496V21.4453V21.441V21.4366V21.4323V21.428V21.4237V21.4193V21.415V21.4107V21.4064V21.402V21.3977V21.3934V21.3891V21.3847V21.3804V21.3761V21.3718V21.3674V21.3631V21.3588V21.3545V21.3501V21.3458V21.3415V21.3372V21.3328V21.3285V21.3242V21.3199V21.3155V21.3112V21.3069V21.3026V21.2983V21.2939V21.2896V21.2853V21.281V21.2766V21.2723V21.268V21.2637V21.2593V21.255V21.2507V21.2464V21.242V21.2377V21.2334V21.2291V21.2247V21.2204V21.2161V21.2118V21.2074V21.2031V21.1988V21.1945V21.1901V21.1858V21.1815V21.1772V21.1728V21.1685V21.1642V21.1599V21.1555V21.1512V21.1469V21.1426V21.1382V21.1339V21.1296V21.1253V21.1209V21.1166V21.1123V21.108V21.1036V21.0993V21.095V21.0907V21.0863V21.082V21.0777V21.0734V21.069V21.0647V21.0604V21.0561V21.0517V21.0474V21.0431V21.0388V21.0344V21.0301V21.0258V21.0215V21.0171V21.0128V21.0085V21.0042V20.9998V20.9955V20.9912V20.9869V20.9825V20.9782V20.9739V20.9696V20.9653V20.9609V20.9566V20.9523V20.948V20.9436V20.9393V20.935V20.9307V20.9263V20.922V20.9177V20.9134V20.909V20.9047V20.9004V20.8961V20.8917V20.8874V20.8831V20.8788V20.8744V20.8701V20.8658V20.8615V20.8571V20.8528V20.8485V20.8442V20.8398V20.8355V20.8312V20.8269V20.8225V20.8182V20.8139V20.8096V20.8052V20.8009V20.7966V20.7923V20.7879V20.7836V20.7793V20.775V20.7706V20.7663V20.762V20.7577V20.7533V20.749V20.7447V20.7404V20.736V20.7317V20.7274V20.7231V20.7187V20.7144V20.7101V20.7058V20.7014V20.6971V20.6928V20.6885V20.6841V20.6798V20.6755V20.6712V20.6668V20.6625V20.6582V20.6539V20.6495V20.6452V20.6409V20.6366V20.6322V20.6279V20.6236V20.6193V20.615V20.6106V20.6063V20.602V20.5977V20.5933V20.589V20.5847V20.5804V20.576V20.5717V20.5674V20.5631V20.5587V20.5544V20.5501V20.5458V20.5414V20.5371V20.5328V20.5285V20.5241V20.5198V20.5155V20.5112V20.5068V20.5025V20.4982V20.4939V20.4895V20.4852V20.4809V20.4766V20.4722V20.4679V20.4636V20.4593V20.4549V20.4506V20.4463V20.442V20.4376V20.4333V20.429V20.4247V20.4233C1.50288 20.4072 1.50687 20.3843 1.51086 20.3583C1.51519 20.3302 1.52059 20.2917 1.52497 20.2469C1.52747 20.2214 1.52994 20.1909 1.53158 20.1564C1.7485 17.283 2.73921 14.7882 4.61798 12.641C4.62591 12.6319 4.63374 12.6228 4.64145 12.6135C4.6447 12.6096 4.64895 12.6046 4.65409 12.5986C4.72374 12.5167 4.95725 12.2423 5.09071 11.8864C5.24215 11.4825 5.24797 11.0624 5.12754 10.6673C5.13696 10.3483 5.14355 10.044 5.14997 9.74762C5.16434 9.08351 5.17787 8.45871 5.22061 7.79473C5.36849 5.66884 5.73153 3.6116 6.41718 1.68012C7.93545 1.987 9.40718 2.59758 10.9525 3.34029C12.7181 4.20743 14.428 5.23913 16.0486 6.37356C16.0579 6.38008 16.0673 6.38649 16.0767 6.39279C16.6293 6.76115 17.2144 6.84155 17.7584 6.76384C17.8025 6.75753 17.8464 6.74925 17.8898 6.73904C18.4164 6.61513 18.8961 6.52585 19.3989 6.4667L19.4219 6.46381C21.3209 6.21061 23.242 6.1758 25.2403 6.2411C26.8293 6.30741 28.2677 6.40433 29.6466 6.7304C30.1163 6.85712 30.5187 6.74706 30.7285 6.66635C30.8949 6.60236 31.0552 6.51353 31.1999 6.40372C31.5831 6.16888 31.9609 5.92446 32.3198 5.69228C32.3921 5.64553 32.4636 5.59927 32.5342 5.55368C32.9937 5.25712 33.4256 4.98272 33.8573 4.73608L33.8607 4.73407C36.1756 3.40302 38.4536 2.30338 40.907 1.70179C41.0911 2.23259 41.2554 2.71927 41.3903 3.23981L41.3903 3.23983L41.3933 3.25113C41.9823 5.45207 42.1478 7.71809 42.2145 10.1283C42.2133 10.3075 42.1939 10.5041 42.1601 10.6744C42.0935 10.9068 42.0334 11.2557 42.1336 11.6564C42.2374 12.0718 42.4669 12.3516 42.6121 12.5035C44.5253 14.6972 45.5628 17.1946 45.7743 20.1089C45.8675 21.5775 45.8055 23.056 45.6151 24.5475L45.6132 24.5633C45.3278 27.0049 44.7023 29.2746 43.5253 31.2966L43.5247 31.2977C42.467 33.1182 41.0899 34.5548 39.4303 35.6517M1.5 22.4752L39.4303 35.6517M7.98376 35.6731C6.82688 34.6467 5.99032 33.3269 5.51081 31.7202M7.98376 35.6731C8.79244 36.2184 9.63634 36.6683 10.518 37.0332L5.51081 31.7202M5.51081 31.7202C4.78021 29.4123 4.52811 26.8876 5.27032 24.3828C6.21744 21.1129 8.43375 18.8283 11.9398 18.1023C13.5766 17.76 15.2087 17.7685 16.7424 17.873L16.7504 17.8736L16.7504 17.8736L16.8524 17.8811C19.1022 18.0466 21.2692 18.2059 23.4618 18.2386C24.6673 18.2381 25.8311 18.159 27.058 18.0757C27.5795 18.0402 28.1125 18.004 28.665 17.9727C28.6656 17.9727 28.6662 17.9726 28.6669 17.9726L28.7531 17.9675C30.4228 17.8693 32.1444 17.7679 33.9099 17.8372L33.9279 17.838C37.0913 18.0002 39.372 19.5829 40.9984 22.0185C41.9897 23.4678 42.4185 25.0924 42.4955 26.7478C42.5688 28.3235 42.4249 29.9746 41.9299 31.5786C41.4451 33.221 40.6079 34.5889 39.4303 35.6517M5.51081 31.7202L39.4303 35.6517M6.76746 0.703563C6.77206 0.690451 6.772 0.692026 6.76724 0.704187C6.76731 0.703979 6.76739 0.703771 6.76746 0.703563ZM5.41244 1.50238C5.41232 1.50232 5.41497 1.50267 5.42078 1.50361C5.41547 1.50292 5.41256 1.50245 5.41244 1.50238ZM6.70984 24.8045C6.0724 26.9517 6.2737 29.1659 6.94468 31.2795L6.70984 24.8045Z" fill="#8D85BF" stroke="#8D85BF" stroke-width="3" stroke-linecap="round" stroke-linejoin="round"/>
<path d="M18.8555 27.9246C18.8555 29.2666 18.52 30.4073 17.7484 31.4138C16.5406 32.957 14.6283 33.0241 13.3534 31.548C12.3805 30.4073 12.0786 29.0318 12.1457 27.5892C12.2128 26.5491 12.5147 25.5427 13.1521 24.7039C13.6218 24.0665 14.2257 23.5968 15.0309 23.4291C16.138 23.2278 16.9767 23.6304 17.6813 24.4691C18.52 25.4756 18.8555 26.6833 18.8555 27.9246Z" fill="#8D85BF"/>
<path d="M35.2273 27.9583C35.2273 29.4345 34.8247 30.7429 33.8182 31.7829C32.7782 32.8565 31.235 32.9236 30.0943 31.9171C29.222 31.1455 28.7523 30.139 28.5846 28.9983C28.3497 27.3544 28.5846 25.8111 29.6917 24.4692C30.4633 23.5298 31.4362 23.1608 32.644 23.4627C33.2144 23.5969 33.6505 23.9659 34.0195 24.4356C34.8583 25.4421 35.1938 26.6499 35.2273 27.9583Z" fill="#8D85BF"/>
</svg>
