<svg xmlns="http://www.w3.org/2000/svg" viewBox="0 0 461.63 390.28"><defs><style>.cls-1{fill:#8d85bf;}</style></defs><title>github</title><g id="Calque_2" data-name="Calque 2"><g id="Calque_6" data-name="Calque 6"><path class="cls-1" d="M336.12,241.81c-11.58-17.77-32.32-19.41-46.48-3.67-15.05,16.74-15.69,49.21-1.3,66.54,13.93,16.8,34.32,16.49,46.9-.91,7.39-10.23,10.11-21.91,9.57-34.42A52.56,52.56,0,0,0,336.12,241.81Z"/><path class="cls-1" d="M175.61,241.78C164,224,143.26,222.41,129.12,238.17c-15,16.73-15.63,49.29-1.25,66.55,14,16.78,34.34,16.42,46.9-1,7.5-10.38,10.15-22.22,9.54-34.86A52.21,52.21,0,0,0,175.61,241.78Z"/><path class="cls-1" d="M457.41,170.25a125.44,125.44,0,0,0-15.83-37.57C436,123.84,429,115.62,427.3,104.87A172.47,172.47,0,0,1,425.69,87c-1.47-26.17-5.19-52-13.54-76.9-2.94-8.79-8-11.26-17.16-9-18.76,4.69-36.18,12.84-53.4,21.32-11,5.43-22.09,11.1-32.16,18.06-11,7.63-22.34,8.82-35.07,6.7-31.1-5.18-62.3-3.93-93.34.69-9.28,1.39-17.12.31-25.12-5-23.77-15.65-49-28.62-76.07-37.58a126.11,126.11,0,0,0-19.1-5c-6.5-1.06-8.53.68-10.59,7C42,32.39,36.64,58,35.54,84.47c-.18,4.34.15,8.71.36,13.07a33,33,0,0,1-7,22.27c-11,14.48-19.58,30.26-23.88,48-1.82,7.57-2.81,15.33-4.17,23-.3,1.74-.58,3.48-.87,5.23v28c.57,3.82,1.26,7.63,1.68,11.47,2.54,23.44,8,46.1,18.24,67.45C34,332.2,56,353.61,84.68,368.31c29.35,15,60.93,21,93.54,21.53,35.16.53,70.35.68,105.5-.12,33.62-.76,66.21-7.13,96.37-23C408,352,428.47,330,442.31,301.8c11.9-24.24,16.75-50.21,18.68-76.93C462.32,206.46,461.79,188.25,457.41,170.25ZM393.09,306c-9.3,22.27-25,38.36-47.76,46.9A217.72,217.72,0,0,1,274,366.44c-29.57.74-59.21.92-88.76-.16-22.95-.84-45.68-4.71-67.42-12.84-31.35-11.73-48.56-35.07-54.51-67.26-4.38-23.74-1.62-46.51,12.2-66.9,12.13-17.9,28.69-28.86,50.92-29.49,29.11-.83,58.23-1.47,87.34-2.19h0c20.89,0,40.74-.51,61.62-.83,9.29-.14,23.25.09,32.56,0,22-.22,35.1,2.36,53.15,10.26,19.27,8.43,30.67,23.93,35.43,43.93C401.69,262.81,401.94,284.79,393.09,306Z"/><path class="cls-1" d="M184.31,268.87c.61,12.64-2,24.48-9.54,34.86-12.56,17.41-32.93,17.77-46.9,1-14.38-17.26-13.77-49.82,1.25-66.55,14.14-15.76,34.83-14.15,46.49,3.61A52.21,52.21,0,0,1,184.31,268.87Z"/><path class="cls-1" d="M344.81,269.35c.54,12.51-2.18,24.19-9.57,34.42-12.58,17.4-33,17.71-46.9.91-14.39-17.33-13.75-49.8,1.3-66.54,14.16-15.74,34.9-14.1,46.48,3.67A52.56,52.56,0,0,1,344.81,269.35Z"/></g></g></svg>