<svg width="39" height="41" viewBox="0 0 39 41" fill="none" xmlns="http://www.w3.org/2000/svg">
<g clip-path="url(#clip0)">
<path d="M31.0215 2.33472H8.27516C4.8947 2.33472 2.1543 5.07512 2.1543 8.45558V32.3569C2.1543 35.7374 4.8947 38.4778 8.27516 38.4778H31.0215C34.4019 38.4778 37.1423 35.7374 37.1423 32.3569V8.45558C37.1423 5.07512 34.4019 2.33472 31.0215 2.33472Z" stroke="#EFEDF8" stroke-width="4" stroke-miterlimit="10"/>
<path d="M10.0487 11.1295C10.5526 10.6937 11.2018 10.4633 11.8677 10.4838C12.5342 10.4587 13.1851 10.6898 13.6866 11.1295C13.9268 11.3376 14.1175 11.5966 14.245 11.8876C14.3724 12.1787 14.4333 12.4945 14.4233 12.8121C14.4334 13.131 14.3725 13.4482 14.2451 13.7407C14.1177 14.0332 13.927 14.2939 13.6866 14.5037C13.1919 14.9568 12.5379 15.1955 11.8677 15.1677C11.1982 15.1906 10.546 14.9525 10.0487 14.5037C9.814 14.2898 9.62652 14.0293 9.49825 13.7388C9.36997 13.4483 9.30371 13.1342 9.30371 12.8166C9.30371 12.4991 9.36997 12.185 9.49825 11.8945C9.62652 11.604 9.814 11.3434 10.0487 11.1295ZM13.9777 17.7961V30.9928H9.73947V17.7961H13.9777Z" fill="#EFEDF8"/>
<path d="M25.6282 21.1429C25.4574 20.9198 25.2323 20.7443 24.9744 20.6328C24.7165 20.5214 24.4343 20.4778 24.1548 20.5062C23.7333 20.4978 23.3168 20.598 22.9452 20.7973C22.6034 20.9892 22.3252 21.2769 22.1449 21.6249C21.9417 22.0374 21.8418 22.4931 21.8538 22.9528V30.9926H17.4883V17.796H21.8538V19.7786C22.2102 19.0819 22.7514 18.4967 23.4181 18.087C24.166 17.6652 25.0156 17.4575 25.8738 17.4867C26.5403 17.419 27.2135 17.5023 27.8433 17.7307C28.4732 17.959 29.0435 18.3264 29.5117 18.8055C30.3157 19.8656 30.7127 21.1791 30.6304 22.5071V31.0108H26.0829V22.9528C26.1226 22.3169 25.9637 21.6845 25.6282 21.1429Z" fill="#EFEDF8"/>
</g>
<defs>
<clipPath id="clip0">
<rect width="38.626" height="39.7811" fill="white" transform="translate(0.334961 0.515625)"/>
</clipPath>
</defs>
</svg>
