<svg width="43" height="44" viewBox="0 0 43 44" fill="none" xmlns="http://www.w3.org/2000/svg">
<g clip-path="url(#clip0)">
<path d="M33.74 2H8.73C5.01312 2 2 5.01312 2 8.73V35.01C2 38.7269 5.01312 41.74 8.73 41.74H33.74C37.4569 41.74 40.47 38.7269 40.47 35.01V8.73C40.47 5.01312 37.4569 2 33.74 2Z" stroke="#8D85BF" stroke-width="4" stroke-miterlimit="10"/>
<path d="M10.6804 11.67C11.2345 11.1909 11.9483 10.9375 12.6804 10.96C13.4133 10.9325 14.129 11.1865 14.6804 11.67C14.9445 11.8988 15.1542 12.1836 15.2943 12.5036C15.4344 12.8236 15.5014 13.1709 15.4904 13.52C15.5015 13.8707 15.4346 14.2194 15.2945 14.5411C15.1545 14.8627 14.9447 15.1493 14.6804 15.38C14.1365 15.8782 13.4174 16.1406 12.6804 16.11C11.9443 16.1353 11.2272 15.8735 10.6804 15.38C10.4224 15.1448 10.2163 14.8584 10.0752 14.5389C9.93418 14.2195 9.86133 13.8742 9.86133 13.525C9.86133 13.1759 9.93418 12.8305 10.0752 12.5111C10.2163 12.1917 10.4224 11.9053 10.6804 11.67ZM15.0004 19V33.51H10.3404V19H15.0004Z" fill="#8D85BF"/>
<path d="M27.8094 22.6799C27.6215 22.4347 27.374 22.2416 27.0905 22.1191C26.8069 21.9966 26.4967 21.9486 26.1894 21.9799C25.7259 21.9706 25.2679 22.0808 24.8594 22.2999C24.4836 22.5109 24.1777 22.8272 23.9794 23.2099C23.756 23.6635 23.6462 24.1645 23.6594 24.6699V33.5099H18.8594V18.9999H23.6594V21.1799C24.0512 20.4139 24.6463 19.7704 25.3794 19.3199C26.2017 18.8561 27.1358 18.6278 28.0794 18.6599C28.8122 18.5854 29.5524 18.6771 30.245 18.9281C30.9375 19.1791 31.5645 19.5831 32.0794 20.1099C32.9634 21.2756 33.3999 22.7197 33.3094 24.1799V33.5299H28.3094V24.6699C28.3529 23.9708 28.1782 23.2754 27.8094 22.6799Z" fill="#8D85BF"/>
</g>
<defs>
<clipPath id="clip0">
<rect width="42.47" height="43.74" fill="white"/>
</clipPath>
</defs>
</svg>
