<svg width="145" height="35" viewBox="0 0 145 35" fill="none" xmlns="http://www.w3.org/2000/svg">
<g clip-path="url(#clip0)">
<path d="M130.794 10.9083L84.5986 12.2917L84.6147 12.8251L130.81 11.4417L130.794 10.9083Z" fill="#8D85BF"/>
<path d="M143.717 0H129.662C128.478 0 127.291 0.289488 126.292 0.942132C124.716 1.97142 123.764 3.5911 123.546 5.44527C123.485 5.97237 123.514 6.51607 123.514 7.04524V15.2422C123.514 16.45 123.789 17.6484 124.458 18.6663C125.489 20.2403 127.111 21.1907 128.969 21.4076C129.398 21.4435 129.83 21.4546 130.261 21.4408H143.717C144.388 21.4408 145.03 20.8514 144.999 20.1614C144.967 19.4714 144.435 18.8841 143.717 18.8841H129.754C129.651 18.8841 129.552 18.8841 129.451 18.8841C129.276 18.8841 129.106 18.8613 128.931 18.8478C129.347 18.881 129.013 18.8551 128.913 18.8343C128.812 18.8136 128.724 18.7928 128.631 18.7679C128.458 18.7212 128.293 18.6528 128.123 18.5998C127.97 18.5511 128.373 18.7223 128.233 18.6455C128.203 18.6289 128.168 18.6164 128.137 18.6009C128.041 18.5563 127.948 18.5075 127.855 18.4556C127.702 18.3685 127.558 18.2709 127.413 18.1724C127.232 18.052 127.63 18.3581 127.422 18.1807C127.343 18.1132 127.263 18.0458 127.187 17.9731C127.06 17.8538 126.939 17.7274 126.826 17.5944L126.759 17.5135C126.626 17.3589 126.823 17.5923 126.831 17.6079C126.776 17.5179 126.717 17.4312 126.652 17.3485C126.556 17.2012 126.469 17.0484 126.391 16.8909C126.367 16.8432 126.248 16.5734 126.338 16.7872C126.427 17.0009 126.31 16.7042 126.288 16.6419C126.23 16.4717 126.181 16.2986 126.141 16.1231C126.121 16.0297 126.114 15.9291 126.087 15.8378C126.087 15.8233 126.122 16.1387 126.109 15.9965C126.103 15.9353 126.096 15.8751 126.09 15.8139C126.053 15.3273 126.076 14.8313 126.076 14.3436V6.23696C126.076 6.00972 126.076 5.78249 126.097 5.5563L126.109 5.44631C126.125 5.2803 126.061 5.73269 126.094 5.56979C126.11 5.48678 126.124 5.40273 126.141 5.31973C126.184 5.1345 126.237 4.95191 126.3 4.77292C126.316 4.7283 126.334 4.68472 126.35 4.6401C126.385 4.54257 126.454 4.50626 126.303 4.74386C126.341 4.6713 126.376 4.59685 126.406 4.52078C126.492 4.35388 126.586 4.19209 126.69 4.03623C126.74 3.97191 126.787 3.90507 126.831 3.83597C126.712 4.0715 126.688 4.01132 126.759 3.92935L126.848 3.8256C126.97 3.68454 127.1 3.5508 127.238 3.42509C127.298 3.37009 127.361 3.32133 127.422 3.2653C127.646 3.07127 127.235 3.39292 127.413 3.2736C127.568 3.16984 127.724 3.06608 127.887 2.97373C127.969 2.92808 128.052 2.88554 128.137 2.84507C128.181 2.82831 128.224 2.80855 128.266 2.78593C128.274 2.78593 127.996 2.88969 128.123 2.84715C128.304 2.78801 128.48 2.71745 128.666 2.66972C128.76 2.64482 128.853 2.62407 128.948 2.60539L129.052 2.58568C129.26 2.54417 128.948 2.59813 128.928 2.59916C129.126 2.59916 129.323 2.56285 129.522 2.56181C130.593 2.55455 131.665 2.56181 132.736 2.56181H143.713C144.383 2.56181 145.026 1.9735 144.995 1.28246C144.963 0.591426 144.435 0 143.717 0Z" fill="white"/>
<path d="M100.849 20.1686V6.09579C100.849 5.86545 100.871 5.63925 100.886 5.40995C100.886 5.39542 100.837 5.70773 100.867 5.56974C100.876 5.52201 100.884 5.47428 100.893 5.42655C100.907 5.35737 100.922 5.2882 100.94 5.21903C100.979 5.05671 101.027 4.89668 101.084 4.73966C101.097 4.70646 101.11 4.67326 101.122 4.6359C101.191 4.44084 101.084 4.73032 101.074 4.73966C101.108 4.67761 101.138 4.6135 101.164 4.54771C101.237 4.40099 101.317 4.25829 101.405 4.12022C101.449 4.0507 101.496 3.9843 101.542 3.9127C101.564 3.88572 101.585 3.8573 101.604 3.82762C101.604 3.81725 101.422 4.04759 101.51 3.94798C101.627 3.81725 101.735 3.68236 101.86 3.55889C101.964 3.45513 102.08 3.35137 102.195 3.25383C102.221 3.23204 102.252 3.21233 102.276 3.18847C102.284 3.1812 102.045 3.35241 102.157 3.28289C102.236 3.23412 102.31 3.17913 102.388 3.12414C102.515 3.04217 102.647 2.96538 102.784 2.89587C102.846 2.8637 102.91 2.83465 102.974 2.80352C103.065 2.7589 103.147 2.77654 102.863 2.84917C102.907 2.83776 102.952 2.81286 102.996 2.79729C103.141 2.7433 103.289 2.6969 103.438 2.65826C103.509 2.63958 103.579 2.62298 103.646 2.60845C103.697 2.59704 104.035 2.54516 103.799 2.57421C103.563 2.60327 103.874 2.57421 103.922 2.56487C103.996 2.55865 104.07 2.55554 104.144 2.55242H104.304H110.161C111.359 2.55242 112.552 2.54516 113.752 2.55242C113.84 2.55242 113.928 2.55242 114.017 2.55969C114.105 2.56695 114.165 2.56903 114.239 2.57733C114.528 2.60638 113.976 2.53063 114.261 2.58251C114.583 2.64062 114.876 2.77966 115.19 2.85125C115.199 2.85125 114.932 2.72674 115.047 2.79107C115.078 2.80761 115.11 2.8225 115.143 2.83569C115.217 2.87096 115.291 2.90832 115.363 2.94775C115.506 3.02585 115.645 3.1114 115.779 3.20403C115.87 3.26629 116.032 3.44268 115.779 3.19054C115.827 3.23827 115.882 3.27874 115.94 3.32335C116.063 3.42959 116.181 3.54215 116.293 3.66057C116.349 3.71971 116.403 3.78093 116.456 3.84319C116.488 3.88158 116.644 4.07457 116.509 3.90337C116.374 3.73216 116.54 3.95213 116.573 4.0009C116.618 4.06834 116.663 4.13682 116.705 4.20842C116.784 4.33889 116.856 4.47326 116.922 4.611C116.939 4.65485 116.958 4.69749 116.981 4.73863C116.981 4.74693 116.877 4.46885 116.92 4.59648C116.946 4.67533 116.979 4.75108 117.006 4.82993C117.06 4.98857 117.104 5.14998 117.14 5.31345C117.156 5.38504 117.168 5.4556 117.183 5.52719C117.191 5.57077 117.207 5.70566 117.183 5.50125C117.154 5.26365 117.183 5.51474 117.183 5.55002C117.197 5.70566 117.204 5.8613 117.204 6.01901C117.21 7.32949 117.204 8.63996 117.204 9.95044V14.9153C117.204 15.5846 117.793 16.2258 118.485 16.1947C119.177 16.1635 119.767 15.6323 119.767 14.9153V6.32925C119.767 5.49918 119.689 4.66392 119.377 3.88676C118.796 2.43414 117.724 1.19733 116.276 0.557138C115.396 0.176245 114.445 -0.0136734 113.486 -4.78704e-05H104.408C103.262 -0.013538 102.134 0.29339 101.153 0.886054C99.8093 1.71579 98.8428 3.03567 98.4586 4.56535C98.3307 5.16082 98.2728 5.76915 98.286 6.37802V20.1686C98.286 20.8379 98.8754 21.4781 99.5676 21.448C100.26 21.4179 100.849 20.8856 100.849 20.1686Z" fill="white"/>
<path d="M76.1003 20.508L76.9152 18.4743L78.8007 13.7688L80.944 8.42005L82.5364 4.44608C82.6456 4.17423 82.7578 3.90239 82.8638 3.6295C82.8638 3.61497 82.8753 3.60148 82.8805 3.58696C82.8555 3.6544 82.7474 3.86711 82.8441 3.68345C82.8742 3.62742 82.9023 3.57036 82.9335 3.51536C82.9647 3.46037 83.0073 3.39085 83.0478 3.33067C83.0644 3.30577 83.0852 3.28087 83.0998 3.25493C83.1663 3.14183 82.8794 3.51121 83.0291 3.34727C83.1164 3.25285 83.1996 3.15843 83.2952 3.07231C83.3908 2.98619 83.5665 2.90007 83.237 3.10655C83.2931 3.07128 83.3409 3.02873 83.4012 2.99346C83.5145 2.92082 83.633 2.86791 83.7494 2.80358C83.8191 2.76519 83.4376 2.92083 83.6517 2.84716C83.7224 2.82329 83.7931 2.79839 83.8648 2.77868C83.9157 2.76415 84.2026 2.73613 84.2203 2.70189C84.2203 2.71019 83.8607 2.73717 84.0467 2.72783C84.0737 2.72783 84.1018 2.72265 84.1299 2.72161C84.2037 2.71642 84.2785 2.71434 84.3533 2.71538C84.4084 2.71538 84.4646 2.71538 84.5207 2.72161C84.8159 2.74028 84.4531 2.74755 84.4292 2.70189C84.4469 2.73613 84.7546 2.76934 84.8117 2.78594C84.8689 2.80254 84.9354 2.82744 84.9978 2.84716C85.2389 2.92498 84.7577 2.72783 84.9261 2.81499C85.0435 2.87621 85.161 2.93535 85.2722 3.00798C85.319 3.03911 85.5237 3.1906 85.3294 3.04222C85.135 2.89385 85.3138 3.03496 85.3543 3.07231C85.4655 3.17607 85.5528 3.29124 85.6589 3.39397C85.6703 3.40538 85.4863 3.14702 85.5497 3.25493C85.5653 3.28087 85.5851 3.30577 85.6027 3.33067C85.6433 3.39085 85.6807 3.45207 85.7171 3.51536C85.7534 3.57866 85.7846 3.64714 85.821 3.71251C85.901 3.86399 85.7805 3.60875 85.7701 3.58696L85.7888 3.63261C85.8262 3.72911 85.8657 3.82664 85.9052 3.92314L87.2367 7.24343L89.3156 12.4407L91.3393 17.4917L92.4931 20.371L92.5471 20.5059C92.676 20.8276 92.8267 21.0901 93.1365 21.2706C93.4356 21.4423 93.7906 21.4889 94.124 21.4003C94.7247 21.2063 95.286 20.4914 95.0199 19.8263L94.1884 17.7418L92.2447 12.891L90.0702 7.47066L88.5183 3.59837C88.4269 3.3701 88.3364 3.14183 88.2439 2.91356C87.7242 1.64044 86.7523 0.630863 85.3855 0.289496C84.6858 0.112648 83.9526 0.116533 83.2548 0.300784C82.557 0.485034 81.9178 0.843584 81.3972 1.34265C80.8775 1.85211 80.5833 2.47155 80.3183 3.13146L79.0502 6.29922L76.9495 11.5401L74.8706 16.7353L73.6847 19.6873L73.6285 19.8284C73.5132 20.1168 73.6077 20.5547 73.7574 20.8141C73.9281 21.1006 74.2022 21.3111 74.5235 21.4024C75.2646 21.5705 75.8332 21.1752 76.1003 20.508Z" fill="white"/>
<path d="M68.9951 0.74914L66.8414 2.90525C65.4871 4.23937 64.4764 5.88088 63.8956 7.68958C62.6213 11.7144 63.7667 16.2144 66.7364 19.1965C67.4868 19.9508 68.2425 20.6999 68.9951 21.4522C69.4701 21.9253 70.3401 21.9606 70.8078 21.4522C71.2756 20.9438 71.3151 20.1479 70.8078 19.6426L68.6905 17.5291C68.5585 17.3962 68.4255 17.2645 68.2976 17.1275C68.1375 16.9566 67.9837 16.7806 67.8361 16.5994C67.7988 16.5466 67.7585 16.4961 67.7155 16.4479C67.9234 16.6461 67.8309 16.5994 67.7758 16.5236C67.6927 16.4105 67.6095 16.2974 67.5305 16.1812C67.2671 15.7968 67.0306 15.3946 66.8227 14.9776C66.7676 14.8656 66.7187 14.7535 66.6626 14.6394C66.6418 14.5947 66.6241 14.5481 66.6023 14.5034C66.7509 14.8147 66.674 14.6778 66.6449 14.6072C66.5534 14.3769 66.4661 14.1465 66.3903 13.911C66.2459 13.4669 66.1323 13.0134 66.0504 12.5538C66.0306 12.45 66.015 12.337 65.9974 12.228C65.9703 12.0506 66.0369 12.5746 66.0098 12.3131C66.0098 12.2654 65.9984 12.2166 65.9932 12.1678C65.9683 11.925 65.9516 11.6829 65.9433 11.4415C65.9287 10.9775 65.9454 10.513 65.9932 10.0511C65.9984 10.0024 66.0046 9.9536 66.0098 9.90588C66.0337 9.69109 65.9963 10.0096 65.9922 10.0273C66.0181 9.90899 66.0285 9.78448 66.0504 9.66515C66.0912 9.43619 66.1401 9.20827 66.1969 8.98138C66.309 8.52238 66.4528 8.07167 66.6272 7.63251C66.6678 7.53498 66.7644 7.41877 66.5992 7.69788C66.6216 7.65365 66.6417 7.60828 66.6595 7.56196C66.7062 7.4582 66.7541 7.35444 66.8029 7.25794C66.9069 7.0442 67.0212 6.83461 67.1418 6.62813C67.2623 6.42165 67.3777 6.23903 67.5056 6.05123C67.5773 5.94747 67.6511 5.84371 67.727 5.73995C67.7606 5.70156 67.7912 5.66062 67.8184 5.61751C67.6958 5.77419 67.6771 5.79909 67.7602 5.69326L67.808 5.63308C68.0446 5.34381 68.2958 5.06676 68.5606 4.80301C69.3083 4.05525 70.0563 3.30853 70.8047 2.56285C71.2797 2.08867 71.3151 1.22124 70.8047 0.75329C70.2943 0.285337 69.4992 0.247984 68.9919 0.75329L68.9951 0.74914Z" fill="white"/>
<path d="M49.5582 2.55867L51.6755 4.66912C51.8085 4.80193 51.9416 4.93371 52.0694 5.07067C52.2295 5.24222 52.3833 5.41826 52.5309 5.5988C52.5682 5.65153 52.6085 5.7021 52.6515 5.75029C52.4436 5.55211 52.5361 5.59777 52.5912 5.67455C52.6733 5.78765 52.7565 5.90074 52.8365 6.01695C53.1 6.40119 53.3362 6.80338 53.5433 7.22056C53.5995 7.33262 53.6473 7.44468 53.7045 7.55881C53.7242 7.60343 53.7429 7.65012 53.7647 7.69474C53.6161 7.38346 53.692 7.51938 53.7221 7.59098C53.8126 7.82132 53.9009 8.05167 53.9768 8.2872C54.1214 8.73297 54.2349 9.18817 54.3167 9.64956C54.3354 9.75331 54.352 9.86641 54.3687 9.97536C54.3967 10.1528 54.3302 9.6288 54.3572 9.89028C54.3572 9.938 54.3687 9.98677 54.3728 10.0355C54.3991 10.2783 54.4158 10.5204 54.4227 10.7619C54.4383 11.2259 54.4216 11.6905 54.3728 12.1522C54.3728 12.201 54.3624 12.2498 54.3572 12.2975C54.3333 12.5123 54.3707 12.1937 54.3739 12.1761C54.3489 12.2944 54.3375 12.4189 54.3167 12.5382C54.2758 12.7672 54.2269 12.9951 54.1701 13.222C54.0575 13.6787 53.9131 14.127 53.7377 14.5636C53.6982 14.6611 53.6016 14.7773 53.7668 14.4982C53.7444 14.5424 53.7243 14.5878 53.7065 14.6341C53.6598 14.7379 53.612 14.8417 53.5621 14.9382C53.4574 15.1519 53.3448 15.3615 53.2242 15.5669C53.1099 15.7641 52.9883 15.956 52.8604 16.1449C52.7887 16.2486 52.7149 16.3524 52.639 16.4561C52.6051 16.4943 52.5745 16.5352 52.5476 16.5786C52.6702 16.4219 52.6889 16.396 52.6058 16.5028L52.5569 16.563C52.321 16.8525 52.0702 17.1296 51.8054 17.3931C51.0584 18.1402 50.31 18.8869 49.5603 19.6332C49.0863 20.1074 49.0509 20.9748 49.5603 21.4428C50.0696 21.9108 50.8668 21.9481 51.373 21.4428L53.5298 19.2991C54.8838 17.9647 55.8944 16.3233 56.4756 14.5148C57.7458 10.4869 56.6003 5.98686 53.6338 3.00898C52.8833 2.25465 52.1276 1.50551 51.3741 0.753259C50.9001 0.279081 50.0301 0.243802 49.5613 0.753259C49.0925 1.26272 49.0551 2.05751 49.5613 2.56282L49.5582 2.55867Z" fill="white"/>
<path d="M31.2416 2.55974H40.7773C40.876 2.55974 40.9758 2.56596 41.0746 2.57322L41.2222 2.58671C41.4363 2.60539 41.1182 2.5753 41.0995 2.57011C41.3188 2.63237 41.5475 2.65727 41.7679 2.72575C41.8718 2.75688 41.9695 2.79527 42.0703 2.82951C42.1712 2.86375 42.2086 2.93327 41.9612 2.78178C42.003 2.80401 42.046 2.82376 42.0901 2.84092C42.2805 2.93222 42.4646 3.03622 42.641 3.1522C42.6919 3.1854 42.9767 3.40018 42.7969 3.25596C42.6171 3.11173 42.9008 3.34623 42.9372 3.37736C43.0937 3.51675 43.2409 3.66613 43.3779 3.82456L43.4673 3.92832C43.6004 4.08292 43.4029 3.84946 43.3956 3.83493C43.4501 3.92473 43.5101 4.01102 43.5754 4.09329C43.6936 4.28207 43.8008 4.47746 43.8966 4.67849C43.9413 4.76877 43.9257 4.85489 43.8519 4.56747C43.8663 4.6127 43.8833 4.65705 43.9028 4.70028C43.9361 4.78952 43.9662 4.87979 43.9943 4.97006C44.0224 5.06033 44.0525 5.17758 44.0764 5.28133C44.0896 5.34013 44.1021 5.39927 44.1138 5.45876C44.1242 5.51168 44.1481 5.73165 44.1263 5.50442C44.1024 5.26058 44.1378 5.65175 44.1409 5.70052C44.1471 5.80428 44.1492 5.89974 44.1502 5.99935V15.4808C44.1502 15.5929 44.145 15.7039 44.1357 15.816C44.1357 15.8648 44.1263 15.9135 44.1222 15.9623C44.0993 16.204 44.1804 15.6583 44.1222 15.9125C44.0827 16.1003 44.0452 16.2881 43.9891 16.4728C43.9579 16.5765 43.9226 16.6803 43.8852 16.7768C43.8478 16.8733 43.7542 16.9677 43.9205 16.7C43.8904 16.7488 43.8706 16.809 43.8457 16.8598C43.7586 17.0387 43.6604 17.212 43.5515 17.3786C43.5016 17.4543 43.432 17.528 43.3904 17.6079C43.5266 17.3433 43.5193 17.4492 43.4403 17.5405C43.4029 17.5851 43.3655 17.6297 43.327 17.6733C43.1879 17.83 43.0382 17.9769 42.879 18.1132C42.8437 18.1443 42.8073 18.1734 42.7751 18.2035C42.694 18.273 42.6306 18.2533 42.8686 18.1319C42.7647 18.1827 42.6763 18.2689 42.5797 18.329C42.4117 18.434 42.2382 18.5299 42.0599 18.6164C41.956 18.6663 41.8281 18.6663 42.1389 18.5864C42.0953 18.5978 42.0475 18.6227 42.0059 18.6372C41.8947 18.6787 41.7814 18.7161 41.667 18.7482C41.4841 18.8011 41.2793 18.8115 41.1016 18.8727C41.3874 18.769 41.3178 18.8468 41.1879 18.8603L41.0403 18.8727C40.928 18.881 40.8157 18.8841 40.7035 18.8841C40.6619 18.8841 40.6214 18.8841 40.5798 18.8841H36.3982C34.6551 18.8841 32.9088 18.9132 31.1657 18.8841C31.0618 18.8841 30.9672 18.8779 30.8674 18.8696C30.8061 18.8696 30.7458 18.8582 30.6845 18.852C30.5182 18.8364 30.9703 18.8997 30.8071 18.8675C30.5821 18.8269 30.3596 18.7732 30.1408 18.7067C30.0504 18.6787 29.9621 18.6445 29.8716 18.6123C29.6773 18.5438 29.9673 18.6507 29.9818 18.66C29.94 18.6378 29.897 18.6181 29.8529 18.6009C29.6519 18.5053 29.4581 18.3954 29.2729 18.272C29.169 18.2045 28.9465 17.9825 29.2199 18.2471C29.1534 18.1827 29.0754 18.1288 29.0058 18.0676C28.8494 17.9285 28.7021 17.7795 28.5651 17.6214C28.5266 17.5768 28.4923 17.5301 28.4528 17.4865C28.3489 17.3693 28.6087 17.7137 28.5266 17.5789C28.4715 17.4907 28.405 17.4077 28.3489 17.3195C28.2383 17.1395 28.1373 16.9539 28.0464 16.7633C27.9549 16.5797 28.0869 16.8567 28.0911 16.8743C28.0733 16.8178 28.0522 16.7623 28.0277 16.7083C27.9955 16.6191 27.9653 16.5288 27.9383 16.4375C27.9113 16.3462 27.8811 16.23 27.8583 16.1262C27.8292 15.9965 27.8188 15.6303 27.8292 16.036C27.824 15.8284 27.7928 15.6209 27.7928 15.4134C27.7928 15.1851 27.7928 14.9569 27.7928 14.7286V8.00605C27.7928 7.34718 27.7928 6.68727 27.7928 6.02736V5.9236C27.7928 5.82503 27.799 5.72542 27.8073 5.62685C27.8073 5.57809 27.8167 5.52828 27.8208 5.47951C27.8427 5.22012 27.7699 5.76796 27.8208 5.53036C27.8568 5.33047 27.9036 5.13269 27.9612 4.93789C27.9934 4.83413 28.0308 4.7366 28.0651 4.63595C28.0994 4.53531 28.1691 4.49899 28.0173 4.73971C28.0526 4.68265 28.0776 4.60898 28.1077 4.54776C28.1961 4.3687 28.2957 4.19542 28.406 4.02896C28.4674 3.93766 28.7054 3.69486 28.431 3.97605C28.5037 3.90238 28.5651 3.81418 28.6389 3.73636C28.7713 3.58923 28.913 3.45061 29.063 3.32133L29.1669 3.23209C29.3561 3.07023 28.959 3.37528 29.1014 3.28294C29.1991 3.21861 29.2916 3.14909 29.3914 3.08683C29.5622 2.98368 29.7381 2.88914 29.9184 2.80357C30.0088 2.75895 30.0941 2.77452 29.8072 2.84922C29.8508 2.83781 29.8966 2.81291 29.9392 2.79734C30.0431 2.75999 30.1471 2.72679 30.2448 2.69358C30.4433 2.63548 30.6439 2.60539 30.8445 2.5587C30.4589 2.64793 30.7499 2.57115 30.8684 2.5587C30.9869 2.54625 31.1179 2.54521 31.2426 2.54417C31.912 2.53898 32.5554 1.95897 32.5242 1.26482C32.4931 0.570675 31.9598 0 31.2416 0C30.1855 0.00668063 29.1494 0.287625 28.235 0.815206C27.3207 1.34279 26.5597 2.09884 26.0268 3.00901C25.4031 4.09226 25.2285 5.26992 25.2285 6.49428V13.3019C25.2285 14.0044 25.2285 14.7068 25.2285 15.4093C25.2333 16.362 25.4613 17.3004 25.8945 18.1494C26.3277 18.9984 26.9539 19.7343 27.7231 20.2984C28.8312 21.1285 30.1699 21.4397 31.5347 21.4397H40.5777C42.2325 21.4397 43.8405 20.8265 45.0015 19.6322C46.1376 18.4639 46.7134 16.9169 46.7134 15.3003V6.27431C46.7146 5.84688 46.684 5.41995 46.622 4.99704C46.4629 3.94907 45.9827 2.99656 45.3196 2.17894C44.2064 0.781305 42.4373 0.00518795 40.663 0C39.9354 0 39.214 0 38.4905 0H31.2416C30.5701 0 29.9288 0.588314 29.9589 1.27935C29.9891 1.97038 30.5223 2.55974 31.2416 2.55974Z" fill="white"/>
<path d="M18.2262 3.91889C18.2096 3.8971 18.1919 3.87738 18.1753 3.85663C18.1368 3.81513 18.1223 3.81409 18.2397 3.93964L18.2283 3.922L18.2262 3.91889Z" fill="white"/>
<path d="M4.62465 12.2871H4.61426C4.89698 12.2176 4.72444 12.2435 4.62465 12.2871Z" fill="white"/>
<path d="M17.5303 3.23315C17.7278 3.422 17.6113 3.29022 17.5303 3.23315V3.23315Z" fill="white"/>
<path d="M16.7752 2.80688H16.7627C16.9581 2.92621 16.9176 2.88367 16.8375 2.84009L16.7949 2.81934L16.7752 2.80688Z" fill="white"/>
<path d="M5.48145 12.0359C5.76313 12.0255 5.58539 12.0193 5.48145 12.0359V12.0359Z" fill="white"/>
<path d="M18.6672 4.6869C18.662 4.67445 18.6558 4.66304 18.6506 4.65058C18.6059 4.56343 18.5466 4.50325 18.6776 4.71388V4.70246C18.6746 4.69697 18.6711 4.69176 18.6672 4.6869Z" fill="white"/>
<path d="M16.865 9.15771C16.6966 9.20441 16.6914 9.21894 16.7351 9.2096C16.7787 9.20026 16.8058 9.18262 16.839 9.17017L16.865 9.15771Z" fill="white"/>
<path d="M2.58496 15.0161C2.63069 14.8698 2.62446 14.8303 2.61095 14.8511C2.60263 14.8967 2.59639 14.9455 2.58704 14.9922C2.586 15.0005 2.586 15.0078 2.58496 15.0161Z" fill="white"/>
<path d="M15.9933 9.41089C15.8395 9.41815 15.826 9.42749 15.8603 9.42853L15.9642 9.41711L15.9933 9.41089Z" fill="white"/>
<path d="M18.8909 6.50458C18.8909 6.4693 18.8961 6.43403 18.9003 6.40082C18.9044 6.36762 18.893 6.36969 18.8857 6.53052C18.888 6.52338 18.8897 6.5161 18.8909 6.50873V6.50458Z" fill="white"/>
<path d="M18.2557 8.03202C18.2786 7.98222 18.2651 7.97911 18.1777 8.1472L18.1829 8.14097C18.2053 8.10341 18.2296 8.06704 18.2557 8.03202Z" fill="white"/>
<path d="M18.6817 7.24341C18.6593 7.29283 18.6429 7.34473 18.6328 7.39801V7.39075C18.6505 7.34094 18.665 7.29218 18.6817 7.24341Z" fill="white"/>
<path d="M17.9001 16.0619L13.8349 12.0039H13.9721C15.0198 12.0039 16.0956 12.0672 17.1153 11.7767C19.5673 11.0763 21.273 8.89007 21.4684 6.37496C21.6524 4.01651 20.2481 1.5927 18.084 0.603878C17.2329 0.207255 16.3052 0.00115218 15.3659 0L9.68962 0C9.01919 0 8.37683 0.589351 8.40697 1.28039C8.43712 1.97142 8.97034 2.55974 9.68962 2.55974H12.7663C13.8203 2.55974 14.8951 2.49956 15.947 2.58464L16.0831 2.60954C16.2016 2.63444 16.318 2.66246 16.4334 2.69566C16.5488 2.72886 16.6527 2.7631 16.7608 2.79942L16.7297 2.78074C16.7499 2.79276 16.7711 2.80317 16.7931 2.81187L16.8357 2.83262C16.8648 2.84507 16.8949 2.85752 16.922 2.87101C17.132 2.97459 17.3339 3.0939 17.5259 3.22794L17.4884 3.19267C17.5207 3.22379 17.5622 3.25077 17.5924 3.28086C17.6963 3.37009 17.8003 3.46451 17.9042 3.56309C17.9863 3.64505 18.0653 3.73014 18.1422 3.81833L18.1682 3.85154C18.187 3.87074 18.2041 3.89158 18.2192 3.91379C18.2365 3.93673 18.2552 3.95856 18.2753 3.97916L18.2327 3.93454C18.3737 4.14139 18.5015 4.35695 18.6152 4.57992L18.6432 4.64529C18.6498 4.65689 18.6554 4.66904 18.6599 4.68161C18.6692 4.70132 18.6786 4.72207 18.689 4.73971L18.6703 4.70859C18.7108 4.81234 18.7461 4.92544 18.7742 5.03543C18.8023 5.14541 18.8355 5.26785 18.8594 5.38509C18.8688 5.43282 18.8771 5.48055 18.8865 5.52828C18.8865 5.53451 18.8865 5.53969 18.8865 5.54696C18.9121 5.77219 18.9219 5.99895 18.9156 6.22554C18.9156 6.28261 18.9062 6.34071 18.9 6.39778C18.8998 6.43257 18.8967 6.46729 18.8906 6.50154C18.8906 6.53163 18.8844 6.56172 18.8834 6.59181C18.8834 6.56691 18.8834 6.54512 18.8834 6.52541C18.8698 6.60115 18.8542 6.67689 18.8366 6.7516C18.7971 6.91865 18.7326 7.07844 18.6786 7.24031C18.6707 7.29014 18.656 7.33866 18.6349 7.38453C18.6349 7.39906 18.6256 7.41358 18.6214 7.42811L18.6318 7.39179C18.6131 7.43018 18.5934 7.46961 18.5736 7.508C18.5092 7.63251 18.4395 7.75495 18.3657 7.87324C18.3335 7.92408 18.294 7.97699 18.2555 8.02576C18.2389 8.06017 18.2183 8.09255 18.1942 8.12226L18.1828 8.13471C18.1776 8.14405 18.1713 8.15235 18.1672 8.16169L18.1776 8.14093C18.1537 8.16999 18.1287 8.19904 18.1027 8.22705C17.9357 8.41148 17.7558 8.58381 17.5643 8.74274L17.4604 8.81329C17.3564 8.88489 17.2442 8.95233 17.1319 9.02081C17.0415 9.07165 16.9479 9.11731 16.8554 9.16296L16.897 9.15155C16.8752 9.15777 16.8534 9.16711 16.8315 9.17541L16.818 9.18164C16.7886 9.19643 16.7576 9.20758 16.7255 9.21484L16.6642 9.2387C16.4409 9.31215 16.2131 9.37141 15.9823 9.41613H16.0561C16.0208 9.41613 15.9865 9.41613 15.9522 9.42547H15.9335C15.9061 9.43099 15.8782 9.43342 15.8503 9.43273H15.8368C15.7121 9.44207 15.5873 9.44622 15.4626 9.44726H6.38841C5.92491 9.44298 5.46176 9.4735 5.00285 9.53857C3.83571 9.73401 2.75261 10.2698 1.88993 11.0785C1.02726 11.8873 0.423596 12.9327 0.154966 14.0832C0.0343347 14.6982 -0.0182984 15.3245 -0.00198692 15.9509V20.1687C-0.00198692 20.8379 0.587368 21.4781 1.27963 21.448C1.97188 21.4179 2.56124 20.8857 2.56124 20.1687V16.7986C2.56124 16.3524 2.56124 15.9052 2.56124 15.4591C2.56124 15.3107 2.57163 15.1633 2.58307 15.016C2.58307 15.0274 2.57683 15.0368 2.57267 15.0492C2.57804 15.0305 2.5822 15.0114 2.58515 14.9921C2.58515 14.9704 2.58515 14.9486 2.58515 14.9268C2.58686 14.9005 2.59356 14.8748 2.60489 14.851V14.8344C2.634 14.6933 2.6683 14.5543 2.70884 14.4194C2.74002 14.3156 2.77744 14.2119 2.81278 14.1081C2.82941 14.0708 2.84708 14.0334 2.86475 13.9971C2.98203 13.77 3.11433 13.5509 3.26077 13.3413C3.28052 13.3164 3.30131 13.2915 3.3221 13.2677C3.41357 13.1639 3.5092 13.0602 3.61002 12.9626C3.69317 12.8817 3.77945 12.8039 3.86884 12.7292C3.90314 12.7011 3.94472 12.6731 3.97278 12.642L3.86884 12.7375C3.90788 12.7004 3.94919 12.6657 3.99253 12.6337C4.1836 12.5045 4.38408 12.3897 4.59228 12.2903L4.55486 12.2996C4.59851 12.2882 4.64633 12.2643 4.6879 12.2488C4.82234 12.1989 4.9585 12.1554 5.0964 12.118C5.21282 12.0869 5.33027 12.0599 5.44876 12.0381H5.45916H5.39679C5.45812 12.0381 5.51945 12.0246 5.58077 12.0194C5.72109 12.007 5.86246 12.0028 6.00486 12.0018H10.2093L13.0418 14.8282L18.1277 19.9062L19.295 21.0703C19.77 21.5445 20.6389 21.5798 21.1077 21.0703C21.5765 20.5609 21.6139 19.7671 21.1077 19.2618L17.9001 16.0619Z" fill="white"/>
<path d="M60.2064 10.8328L60.1748 11.3652L84.5088 12.8041L84.5404 12.2717L60.2064 10.8328Z" fill="#8D85BF"/>
<path d="M118.279 20.4562L118.157 20.4282L84.4854 12.7262L84.6049 12.2063L118.153 19.8804L130.613 10.3792L130.936 10.8025L118.279 20.4562Z" fill="#8D85BF"/>
<path d="M36.2027 9.9336L36.1826 10.4666L60.1754 11.3657L60.1955 10.8328L36.2027 9.9336Z" fill="#8D85BF"/>
<path d="M2.34545 2.01442L2.22363 2.53369L36.1292 10.4597L36.251 9.94039L2.34545 2.01442Z" fill="#8D85BF"/>
<path d="M130.773 12.1979C131.662 12.1979 132.383 11.4783 132.383 10.5906C132.383 9.70298 131.662 8.9834 130.773 8.9834C129.884 8.9834 129.163 9.70298 129.163 10.5906C129.163 11.4783 129.884 12.1979 130.773 12.1979Z" fill="#8D85BF"/>
<path d="M36.1911 11.8067C37.0803 11.8067 37.8012 11.0872 37.8012 10.1995C37.8012 9.31187 37.0803 8.59229 36.1911 8.59229C35.3019 8.59229 34.5811 9.31187 34.5811 10.1995C34.5811 11.0872 35.3019 11.8067 36.1911 11.8067Z" fill="#8D85BF"/>
<path d="M2.01632 3.68052C2.90554 3.68052 3.62639 2.96094 3.62639 2.07329C3.62639 1.18564 2.90554 0.466064 2.01632 0.466064C1.1271 0.466064 0.40625 1.18564 0.40625 2.07329C0.40625 2.96094 1.1271 3.68052 2.01632 3.68052Z" fill="#8D85BF"/>
<path d="M84.5447 14.0728C85.4339 14.0728 86.1548 13.3533 86.1548 12.4656C86.1548 11.578 85.4339 10.8584 84.5447 10.8584C83.6554 10.8584 82.9346 11.578 82.9346 12.4656C82.9346 13.3533 83.6554 14.0728 84.5447 14.0728Z" fill="#8D85BF"/>
<path d="M118.217 21.776C119.106 21.776 119.827 21.0564 119.827 20.1687C119.827 19.2811 119.106 18.5615 118.217 18.5615C117.327 18.5615 116.606 19.2811 116.606 20.1687C116.606 21.0564 117.327 21.776 118.217 21.776Z" fill="#8D85BF"/>
<path d="M60.1833 12.7054C61.0725 12.7054 61.7934 11.9858 61.7934 11.0982C61.7934 10.2105 61.0725 9.49097 60.1833 9.49097C59.2941 9.49097 58.5732 10.2105 58.5732 11.0982C58.5732 11.9858 59.2941 12.7054 60.1833 12.7054Z" fill="#8D85BF"/>
</g>
<defs>
<clipPath id="clip0">
<rect width="145" height="35" fill="white"/>
</clipPath>
</defs>
</svg>
