<svg width="373" height="66" viewBox="0 0 373 66" fill="none" xmlns="http://www.w3.org/2000/svg">
<path d="M22.184 66C14.856 66 9.432 64.256 5.912 60.768C2.424 57.248 0.680001 51.824 0.680001 44.496V22.416C0.680001 15.024 2.424 9.584 5.912 6.096C9.4 2.576 14.792 0.847998 22.088 0.911997H33.704C39.72 0.911997 44.312 2.16 47.48 4.65599C50.648 7.12 52.488 11.024 53 16.368C53.192 17.712 52.936 18.736 52.232 19.44C51.528 20.144 50.504 20.496 49.16 20.496C46.728 20.496 45.32 19.152 44.936 16.464C44.616 13.52 43.592 11.536 41.864 10.512C40.168 9.488 37.448 8.976 33.704 8.976H22.088C18.696 8.944 16.024 9.328 14.072 10.128C12.152 10.928 10.776 12.32 9.944 14.304C9.144 16.256 8.744 18.96 8.744 22.416V44.496C8.744 47.92 9.144 50.608 9.944 52.56C10.776 54.512 12.168 55.904 14.12 56.736C16.072 57.536 18.76 57.936 22.184 57.936H33.704C37.448 57.936 40.168 57.424 41.864 56.4C43.592 55.344 44.616 53.36 44.936 50.448C45.32 47.76 46.728 46.416 49.16 46.416C50.504 46.416 51.528 46.768 52.232 47.472C52.936 48.176 53.192 49.2 53 50.544C52.488 55.92 50.648 59.84 47.48 62.304C44.312 64.768 39.72 66 33.704 66H22.184ZM82.496 66C76.128 66 71.392 64.464 68.288 61.392C65.216 58.32 63.68 53.616 63.68 47.28V36.144C63.68 29.712 65.216 24.976 68.288 21.936C71.392 18.864 76.128 17.328 82.496 17.328H90.368C96.768 17.328 101.504 18.864 104.576 21.936C107.648 25.008 109.184 29.744 109.184 36.144V47.184C109.184 53.552 107.648 58.288 104.576 61.392C101.504 64.464 96.768 66 90.368 66H82.496ZM71.744 47.28C71.744 51.408 72.496 54.224 74 55.728C75.504 57.2 78.336 57.936 82.496 57.936H90.368C94.56 57.936 97.392 57.184 98.864 55.68C100.368 54.176 101.12 51.344 101.12 47.184V36.144C101.12 31.952 100.368 29.12 98.864 27.648C97.392 26.144 94.56 25.392 90.368 25.392H82.496C79.712 25.392 77.536 25.712 75.968 26.352C74.432 26.96 73.344 28.048 72.704 29.616C72.064 31.152 71.744 33.328 71.744 36.144V47.28ZM130.86 66C128.172 66 126.828 64.656 126.828 61.968V21.36C126.828 18.672 128.172 17.328 130.86 17.328C133.548 17.328 134.892 18.672 134.892 21.36V22.944C138.284 19.2 143.276 17.328 149.868 17.328H152.556C158.956 17.328 163.692 18.864 166.764 21.936C169.836 25.008 171.372 29.744 171.372 36.144V61.968C171.372 64.656 170.028 66 167.34 66C164.652 66 163.308 64.656 163.308 61.968V36.144C163.308 31.952 162.54 29.12 161.004 27.648C159.5 26.144 156.684 25.392 152.556 25.392H149.868C146.028 25.392 142.684 25.84 139.836 26.736C136.988 27.6 135.34 28.976 134.892 30.864V61.968C134.892 64.656 133.548 66 130.86 66ZM210.934 66C204.598 66 199.926 64.496 196.918 61.488C193.91 58.48 192.406 53.84 192.406 47.568V25.392H187.702C185.014 25.392 183.67 24.048 183.67 21.36C183.67 18.672 185.014 17.328 187.702 17.328H192.406V10.32C192.406 7.632 193.75 6.288 196.438 6.288C199.126 6.288 200.47 7.632 200.47 10.32V17.328H211.51C214.198 17.328 215.542 18.672 215.542 21.36C215.542 24.048 214.198 25.392 211.51 25.392H200.47V47.568C200.47 51.632 201.206 54.384 202.678 55.824C204.15 57.232 206.902 57.936 210.934 57.936C212.182 57.936 213.158 58.256 213.862 58.896C214.598 59.536 214.966 60.56 214.966 61.968C214.966 64.656 213.622 66 210.934 66ZM242.679 66C237.303 66 233.303 64.688 230.679 62.064C228.055 59.44 226.743 55.44 226.743 50.064C226.743 44.688 228.039 40.688 230.631 38.064C233.255 35.44 237.271 34.128 242.679 34.128H262.983C262.791 30.768 261.911 28.48 260.343 27.264C258.775 26.016 256.087 25.392 252.279 25.392H246.711C243.511 25.392 241.127 25.616 239.559 26.064C237.991 26.48 236.887 27.248 236.247 28.368C235.671 29.712 235.079 30.64 234.471 31.152C233.863 31.664 232.951 31.92 231.735 31.92C230.391 31.92 229.335 31.552 228.567 30.816C227.799 30.048 227.575 29.04 227.895 27.792C228.855 24.176 230.855 21.536 233.895 19.872C236.967 18.176 241.239 17.328 246.711 17.328H252.279C258.679 17.328 263.415 18.864 266.487 21.936C269.559 25.008 271.095 29.744 271.095 36.144V61.968C271.095 64.656 269.751 66 267.063 66C264.375 66 263.031 64.656 263.031 61.968V59.808C259.607 63.936 254.615 66 248.055 66H242.679ZM242.679 57.936H248.055C250.423 57.936 252.647 57.728 254.727 57.312C256.807 56.864 258.583 56.064 260.055 54.912C261.559 53.76 262.551 52.112 263.031 49.968V42.192H242.679C239.511 42.192 237.399 42.72 236.343 43.776C235.319 44.832 234.807 46.928 234.807 50.064C234.807 53.232 235.319 55.344 236.343 56.4C237.399 57.424 239.511 57.936 242.679 57.936ZM306.652 66C300.284 66 295.548 64.464 292.444 61.392C289.372 58.288 287.836 53.552 287.836 47.184V36.048C287.836 29.648 289.356 24.912 292.396 21.84C295.468 18.768 300.22 17.264 306.652 17.328H314.524C319.292 17.328 323.036 18.128 325.756 19.728C328.508 21.328 330.268 23.792 331.036 27.12C331.324 28.464 331.084 29.504 330.316 30.24C329.58 30.976 328.508 31.344 327.1 31.344C325.852 31.344 324.94 31.024 324.364 30.384C323.788 29.744 323.26 28.848 322.78 27.696C322.3 26.832 321.42 26.24 320.14 25.92C318.86 25.568 316.988 25.392 314.524 25.392H306.652C302.524 25.328 299.692 26.048 298.156 27.552C296.652 29.024 295.9 31.856 295.9 36.048V47.184C295.9 51.344 296.652 54.176 298.156 55.68C299.692 57.184 302.524 57.936 306.652 57.936H314.524C316.988 57.936 318.86 57.776 320.14 57.456C321.42 57.104 322.3 56.496 322.78 55.632C323.26 54.416 323.788 53.504 324.364 52.896C324.972 52.288 325.916 51.984 327.196 51.984C328.54 51.984 329.58 52.352 330.316 53.088C331.084 53.824 331.324 54.864 331.036 56.208C330.268 59.504 328.508 61.968 325.756 63.6C323.036 65.2 319.292 66 314.524 66H306.652ZM368.341 66C362.005 66 357.333 64.496 354.325 61.488C351.317 58.48 349.812 53.84 349.812 47.568V25.392H345.109C342.421 25.392 341.077 24.048 341.077 21.36C341.077 18.672 342.421 17.328 345.109 17.328H349.812V10.32C349.812 7.632 351.157 6.288 353.845 6.288C356.533 6.288 357.877 7.632 357.877 10.32V17.328H368.917C371.605 17.328 372.949 18.672 372.949 21.36C372.949 24.048 371.605 25.392 368.917 25.392H357.877V47.568C357.877 51.632 358.613 54.384 360.085 55.824C361.557 57.232 364.309 57.936 368.341 57.936C369.589 57.936 370.565 58.256 371.269 58.896C372.005 59.536 372.373 60.56 372.373 61.968C372.373 64.656 371.029 66 368.341 66Z" fill="#EFEDF8"/>
</svg>
