<svg width="553" height="69" viewBox="0 0 553 69" fill="none" xmlns="http://www.w3.org/2000/svg">
<path d="M5.016 69C2.328 69 0.984 67.656 0.984 64.968V7.944C0.984 5.256 2.328 3.912 5.016 3.912H30.072C35.16 3.912 39.064 5.256 41.784 7.944C44.536 10.632 45.912 14.472 45.912 19.464V22.056C45.912 26.376 44.552 29.72 41.832 32.088C46.92 34.936 49.464 40.136 49.464 47.688V50.952C49.464 56.84 47.896 61.32 44.76 64.392C41.656 67.464 37.176 69 31.32 69H5.016ZM9.048 60.936H31.32C34.936 60.936 37.512 60.168 39.048 58.632C40.616 57.064 41.4 54.504 41.4 50.952V47.688C41.4 44.136 40.648 41.608 39.144 40.104C37.64 38.568 35.032 37.8 31.32 37.8H9.048V60.936ZM9.048 29.736H31.8C34.136 29.736 35.72 29.016 36.552 27.576C37.416 26.136 37.848 24.296 37.848 22.056V19.464C37.848 16.68 37.272 14.744 36.12 13.656C34.968 12.536 32.952 11.976 30.072 11.976H9.048V29.736ZM69.6098 69C66.9218 69 65.5778 67.656 65.5778 64.968V24.36C65.5778 21.672 66.9218 20.328 69.6098 20.328C72.2978 20.328 73.6418 21.672 73.6418 24.36V64.968C73.6418 67.656 72.2978 69 69.6098 69ZM68.2657 12.456C65.2258 12.456 63.7058 10.92 63.7058 7.848V5.016C63.7058 2.008 65.2258 0.503998 68.2657 0.503998H71.0498C73.9618 0.503998 75.4178 2.008 75.4178 5.016V7.848C75.4178 10.92 73.9618 12.456 71.0498 12.456H68.2657ZM99.369 47.976V50.28C99.369 54.408 100.121 57.224 101.625 58.728C103.129 60.2 105.961 60.936 110.121 60.936H117.993C121.257 60.936 123.673 60.632 125.241 60.024C126.809 59.416 127.849 58.344 128.361 56.808C128.713 55.592 129.193 54.664 129.801 54.024C130.441 53.384 131.401 53.064 132.681 53.064C134.025 53.064 135.049 53.416 135.753 54.12C136.457 54.824 136.681 55.848 136.425 57.192C135.721 61.16 133.833 64.12 130.761 66.072C127.689 68.024 123.433 69 117.993 69H110.121C103.753 69 99.017 67.464 95.913 64.392C92.841 61.32 91.305 56.616 91.305 50.28V39.144C91.305 32.648 92.841 27.88 95.913 24.84C99.017 21.768 103.753 20.264 110.121 20.328H117.993C124.393 20.328 129.129 21.864 132.201 24.936C135.273 27.976 136.809 32.712 136.809 39.144V43.944C136.809 46.632 135.465 47.976 132.777 47.976H99.369ZM110.121 28.392C105.961 28.328 103.129 29.048 101.625 30.552C100.121 32.056 99.369 34.92 99.369 39.144V39.912H128.745V39.144C128.745 34.952 127.993 32.12 126.489 30.648C125.017 29.144 122.185 28.392 117.993 28.392H110.121ZM158.485 69C155.797 69 154.453 67.656 154.453 64.968V24.36C154.453 21.672 155.797 20.328 158.485 20.328C161.173 20.328 162.517 21.672 162.517 24.36V25.944C165.909 22.2 170.901 20.328 177.493 20.328H180.181C186.581 20.328 191.317 21.864 194.389 24.936C197.461 28.008 198.997 32.744 198.997 39.144V64.968C198.997 67.656 197.653 69 194.965 69C192.277 69 190.933 67.656 190.933 64.968V39.144C190.933 34.952 190.165 32.12 188.629 30.648C187.125 29.144 184.309 28.392 180.181 28.392H177.493C173.653 28.392 170.309 28.84 167.461 29.736C164.613 30.6 162.965 31.976 162.517 33.864V64.968C162.517 67.656 161.173 69 158.485 69ZM236.086 66.024C235.67 67.016 235.078 67.768 234.31 68.28C233.574 68.76 232.63 69 231.478 69C229.462 69 228.022 67.944 227.158 65.832L210.838 26.088C209.718 23.528 210.422 21.768 212.95 20.808C215.35 19.688 217.11 20.392 218.23 22.92L233.494 60.168H229.75L246.454 22.728C246.998 21.672 247.734 20.952 248.662 20.568C249.622 20.184 250.678 20.264 251.83 20.808C254.198 21.928 254.838 23.72 253.75 26.184L236.086 66.024ZM271.494 47.976V50.28C271.494 54.408 272.246 57.224 273.75 58.728C275.254 60.2 278.086 60.936 282.246 60.936H290.118C293.382 60.936 295.798 60.632 297.366 60.024C298.934 59.416 299.974 58.344 300.486 56.808C300.838 55.592 301.318 54.664 301.926 54.024C302.566 53.384 303.526 53.064 304.806 53.064C306.15 53.064 307.174 53.416 307.878 54.12C308.582 54.824 308.806 55.848 308.55 57.192C307.846 61.16 305.958 64.12 302.886 66.072C299.814 68.024 295.558 69 290.118 69H282.246C275.878 69 271.142 67.464 268.038 64.392C264.966 61.32 263.43 56.616 263.43 50.28V39.144C263.43 32.648 264.966 27.88 268.038 24.84C271.142 21.768 275.878 20.264 282.246 20.328H290.118C296.518 20.328 301.254 21.864 304.326 24.936C307.398 27.976 308.934 32.712 308.934 39.144V43.944C308.934 46.632 307.59 47.976 304.902 47.976H271.494ZM282.246 28.392C278.086 28.328 275.254 29.048 273.75 30.552C272.246 32.056 271.494 34.92 271.494 39.144V39.912H300.87V39.144C300.87 34.952 300.118 32.12 298.614 30.648C297.142 29.144 294.31 28.392 290.118 28.392H282.246ZM330.61 69C327.922 69 326.578 67.656 326.578 64.968V24.36C326.578 21.672 327.922 20.328 330.61 20.328C333.298 20.328 334.642 21.672 334.642 24.36V25.944C338.034 22.2 343.026 20.328 349.618 20.328H352.306C358.706 20.328 363.442 21.864 366.514 24.936C369.586 28.008 371.122 32.744 371.122 39.144V64.968C371.122 67.656 369.778 69 367.09 69C364.402 69 363.058 67.656 363.058 64.968V39.144C363.058 34.952 362.29 32.12 360.754 30.648C359.25 29.144 356.434 28.392 352.306 28.392H349.618C345.778 28.392 342.434 28.84 339.586 29.736C336.738 30.6 335.09 31.976 334.642 33.864V64.968C334.642 67.656 333.298 69 330.61 69ZM429.692 20.328C432.38 20.328 433.724 21.672 433.724 24.36V64.968C433.724 67.656 432.38 69 429.692 69C427.004 69 425.66 67.656 425.66 64.968V63.384C422.268 67.128 417.276 69 410.684 69H407.996C401.596 69 396.86 67.464 393.788 64.392C390.716 61.32 389.18 56.584 389.18 50.184V24.36C389.18 21.672 390.524 20.328 393.212 20.328C395.9 20.328 397.244 21.672 397.244 24.36V50.184C397.244 54.376 397.996 57.224 399.5 58.728C401.036 60.2 403.868 60.936 407.996 60.936H410.684C414.524 60.936 417.868 60.504 420.716 59.64C423.564 58.744 425.212 57.352 425.66 55.464V24.36C425.66 21.672 427.004 20.328 429.692 20.328ZM459.463 47.976V50.28C459.463 54.408 460.215 57.224 461.719 58.728C463.223 60.2 466.055 60.936 470.215 60.936H478.087C481.351 60.936 483.767 60.632 485.335 60.024C486.903 59.416 487.943 58.344 488.455 56.808C488.807 55.592 489.287 54.664 489.895 54.024C490.535 53.384 491.495 53.064 492.775 53.064C494.119 53.064 495.143 53.416 495.847 54.12C496.551 54.824 496.775 55.848 496.519 57.192C495.815 61.16 493.927 64.12 490.855 66.072C487.783 68.024 483.527 69 478.087 69H470.215C463.847 69 459.111 67.464 456.007 64.392C452.935 61.32 451.399 56.616 451.399 50.28V39.144C451.399 32.648 452.935 27.88 456.007 24.84C459.111 21.768 463.847 20.264 470.215 20.328H478.087C484.487 20.328 489.223 21.864 492.295 24.936C495.367 27.976 496.903 32.712 496.903 39.144V43.944C496.903 46.632 495.559 47.976 492.871 47.976H459.463ZM470.215 28.392C466.055 28.328 463.223 29.048 461.719 30.552C460.215 32.056 459.463 34.92 459.463 39.144V39.912H488.839V39.144C488.839 34.952 488.087 32.12 486.583 30.648C485.111 29.144 482.279 28.392 478.087 28.392H470.215ZM547.806 56.904C545.118 56.904 543.774 55.56 543.774 52.872V5.352C543.774 2.664 545.118 1.32 547.806 1.32C550.494 1.32 551.838 2.664 551.838 5.352V52.872C551.838 55.56 550.494 56.904 547.806 56.904ZM546.654 69C544.094 69 542.814 67.72 542.814 65.16V62.76C542.814 60.264 544.094 59.016 546.654 59.016H548.958C551.39 59.016 552.606 60.264 552.606 62.76V65.16C552.606 67.72 551.39 69 548.958 69H546.654Z" fill="#EFEDF8"/>
</svg>
