<svg width="495" height="92" viewBox="0 0 495 92" fill="none" xmlns="http://www.w3.org/2000/svg">
<path d="M28.488 10.44C29.016 10.44 29.448 10.62 29.784 10.98C30.12 11.316 30.288 11.76 30.288 12.312V34.416C30.288 34.968 30.132 35.4 29.82 35.712C29.532 36.024 29.124 36.18 28.596 36.18C28.092 36.18 27.696 36.024 27.408 35.712C27.12 35.4 26.976 34.968 26.976 34.416V17.676L19.92 31.104C19.464 31.944 18.876 32.364 18.156 32.364C17.436 32.364 16.848 31.944 16.392 31.104L9.3 17.82V34.416C9.3 34.968 9.156 35.4 8.868 35.712C8.58 36.024 8.172 36.18 7.644 36.18C7.14 36.18 6.732 36.024 6.42 35.712C6.132 35.376 5.988 34.944 5.988 34.416V12.312C5.988 11.76 6.156 11.316 6.492 10.98C6.828 10.62 7.26 10.44 7.788 10.44C8.532 10.44 9.132 10.872 9.588 11.736L18.192 28.188L26.724 11.736C27.18 10.872 27.768 10.44 28.488 10.44ZM43.4215 36.252C41.6935 36.252 40.1695 35.88 38.8495 35.136C37.5535 34.392 36.5455 33.336 35.8255 31.968C35.1295 30.576 34.7815 28.968 34.7815 27.144C34.7815 25.296 35.1295 23.688 35.8255 22.32C36.5455 20.928 37.5535 19.86 38.8495 19.116C40.1695 18.372 41.6935 18 43.4215 18C45.1495 18 46.6615 18.372 47.9575 19.116C49.2775 19.86 50.2855 20.928 50.9815 22.32C51.7015 23.688 52.0615 25.296 52.0615 27.144C52.0615 28.968 51.7015 30.576 50.9815 31.968C50.2855 33.336 49.2775 34.392 47.9575 35.136C46.6615 35.88 45.1495 36.252 43.4215 36.252ZM43.4215 33.372C45.0295 33.372 46.2535 32.844 47.0935 31.788C47.9575 30.732 48.3895 29.184 48.3895 27.144C48.3895 25.128 47.9575 23.592 47.0935 22.536C46.2295 21.456 45.0055 20.916 43.4215 20.916C41.8375 20.916 40.6135 21.456 39.7495 22.536C38.8855 23.592 38.4535 25.128 38.4535 27.144C38.4535 29.184 38.8735 30.732 39.7135 31.788C40.5775 32.844 41.8135 33.372 43.4215 33.372ZM57.9458 36.18C57.4178 36.18 56.9738 36.036 56.6138 35.748C56.2778 35.46 56.1098 35.028 56.1098 34.452V19.836C56.1098 19.26 56.2778 18.828 56.6138 18.54C56.9738 18.228 57.4178 18.072 57.9458 18.072C58.4738 18.072 58.9058 18.228 59.2418 18.54C59.5778 18.828 59.7458 19.26 59.7458 19.836V34.452C59.7458 35.028 59.5778 35.46 59.2418 35.748C58.9058 36.036 58.4738 36.18 57.9458 36.18ZM57.9458 14.544C57.2498 14.544 56.6978 14.352 56.2898 13.968C55.8818 13.584 55.6778 13.08 55.6778 12.456C55.6778 11.832 55.8818 11.34 56.2898 10.98C56.6978 10.596 57.2498 10.404 57.9458 10.404C58.6178 10.404 59.1578 10.596 59.5658 10.98C59.9978 11.34 60.2138 11.832 60.2138 12.456C60.2138 13.08 60.0098 13.584 59.6018 13.968C59.1938 14.352 58.6418 14.544 57.9458 14.544ZM81.8448 36.252C80.1408 36.252 78.6408 35.88 77.3448 35.136C76.0728 34.392 75.0768 33.336 74.3568 31.968C73.6608 30.6 73.3128 29.016 73.3128 27.216C73.3128 25.392 73.6728 23.784 74.3928 22.392C75.1368 21 76.1688 19.92 77.4888 19.152C78.8088 18.384 80.3208 18 82.0248 18C82.9368 18 83.8488 18.132 84.7608 18.396C85.6968 18.66 86.5248 19.02 87.2448 19.476C88.0128 20.004 88.3968 20.616 88.3968 21.312C88.3968 21.72 88.2888 22.068 88.0728 22.356C87.8568 22.62 87.5808 22.752 87.2448 22.752C87.0288 22.752 86.8128 22.704 86.5968 22.608C86.3808 22.488 86.1048 22.32 85.7688 22.104C85.1688 21.72 84.6048 21.432 84.0768 21.24C83.5728 21.024 82.9608 20.916 82.2408 20.916C80.6088 20.916 79.3368 21.468 78.4248 22.572C77.5368 23.676 77.0928 25.212 77.0928 27.18C77.0928 29.148 77.5368 30.672 78.4248 31.752C79.3128 32.808 80.5728 33.336 82.2048 33.336C82.9248 33.336 83.5608 33.228 84.1128 33.012C84.6648 32.796 85.2288 32.508 85.8048 32.148C86.0688 31.98 86.3328 31.836 86.5968 31.716C86.8608 31.596 87.1008 31.536 87.3168 31.536C87.6528 31.536 87.9288 31.68 88.1448 31.968C88.3608 32.232 88.4688 32.568 88.4688 32.976C88.4688 33.312 88.3728 33.624 88.1808 33.912C88.0128 34.176 87.7128 34.452 87.2808 34.74C86.5608 35.22 85.7208 35.592 84.7608 35.856C83.8008 36.12 82.8288 36.252 81.8448 36.252ZM93.5909 10.44C94.3109 10.44 94.8749 10.704 95.2829 11.232C95.7149 11.76 95.9309 12.54 95.9309 13.572C95.9309 15.612 95.2469 17.376 93.8789 18.864C93.5909 19.152 93.2789 19.296 92.9429 19.296C92.6309 19.296 92.3669 19.2 92.1509 19.008C91.9349 18.792 91.8269 18.54 91.8269 18.252C91.8269 17.988 91.9349 17.736 92.1509 17.496C92.8229 16.8 93.2549 15.972 93.4469 15.012C92.8469 14.964 92.3429 14.736 91.9349 14.328C91.5509 13.92 91.3589 13.404 91.3589 12.78C91.3589 12.108 91.5749 11.556 92.0069 11.124C92.4389 10.668 92.9669 10.44 93.5909 10.44ZM112.963 31.572C113.299 31.572 113.575 31.704 113.791 31.968C114.007 32.232 114.115 32.568 114.115 32.976C114.115 33.672 113.683 34.26 112.819 34.74C111.979 35.22 111.055 35.592 110.047 35.856C109.063 36.12 108.115 36.252 107.203 36.252C104.419 36.252 102.223 35.448 100.615 33.84C99.0074 32.208 98.2034 29.988 98.2034 27.18C98.2034 25.38 98.5514 23.784 99.2474 22.392C99.9674 21 100.963 19.92 102.235 19.152C103.531 18.384 104.995 18 106.627 18C108.979 18 110.839 18.756 112.207 20.268C113.575 21.78 114.259 23.82 114.259 26.388C114.259 27.348 113.827 27.828 112.963 27.828H101.839C102.079 31.548 103.867 33.408 107.203 33.408C108.091 33.408 108.859 33.288 109.507 33.048C110.155 32.808 110.839 32.496 111.559 32.112C111.631 32.064 111.823 31.968 112.135 31.824C112.471 31.656 112.747 31.572 112.963 31.572ZM106.699 20.664C105.307 20.664 104.191 21.108 103.351 21.996C102.511 22.884 102.007 24.132 101.839 25.74H111.127C111.055 24.108 110.635 22.86 109.867 21.996C109.123 21.108 108.067 20.664 106.699 20.664ZM124.386 36.252C121.938 36.252 119.934 35.748 118.374 34.74C117.942 34.476 117.63 34.2 117.438 33.912C117.27 33.624 117.186 33.3 117.186 32.94C117.186 32.556 117.294 32.232 117.51 31.968C117.726 31.704 118.002 31.572 118.338 31.572C118.65 31.572 119.142 31.764 119.814 32.148C120.534 32.532 121.23 32.844 121.902 33.084C122.598 33.324 123.462 33.444 124.494 33.444C125.646 33.444 126.546 33.24 127.194 32.832C127.842 32.424 128.166 31.848 128.166 31.104C128.166 30.624 128.034 30.24 127.77 29.952C127.53 29.664 127.098 29.412 126.474 29.196C125.85 28.956 124.926 28.704 123.702 28.44C121.59 27.984 120.066 27.372 119.13 26.604C118.218 25.812 117.762 24.744 117.762 23.4C117.762 22.368 118.062 21.444 118.662 20.628C119.262 19.788 120.09 19.14 121.146 18.684C122.202 18.228 123.402 18 124.746 18C125.706 18 126.642 18.132 127.554 18.396C128.466 18.636 129.27 18.996 129.966 19.476C130.758 20.004 131.154 20.616 131.154 21.312C131.154 21.696 131.034 22.02 130.794 22.284C130.578 22.548 130.314 22.68 130.002 22.68C129.786 22.68 129.57 22.632 129.354 22.536C129.138 22.44 128.85 22.284 128.49 22.068C127.842 21.684 127.23 21.384 126.654 21.168C126.102 20.952 125.406 20.844 124.566 20.844C123.558 20.844 122.742 21.06 122.118 21.492C121.518 21.924 121.218 22.512 121.218 23.256C121.218 23.928 121.494 24.456 122.046 24.84C122.622 25.2 123.69 25.548 125.25 25.884C126.858 26.22 128.118 26.604 129.03 27.036C129.942 27.468 130.59 28.008 130.974 28.656C131.382 29.28 131.586 30.084 131.586 31.068C131.586 32.628 130.926 33.888 129.606 34.848C128.31 35.784 126.57 36.252 124.386 36.252ZM144.062 33.408C144.59 33.456 144.962 33.6 145.178 33.84C145.418 34.056 145.538 34.368 145.538 34.776C145.538 35.256 145.346 35.628 144.962 35.892C144.602 36.132 144.062 36.228 143.342 36.18L142.37 36.108C140.426 35.964 138.974 35.376 138.014 34.344C137.054 33.288 136.574 31.74 136.574 29.7V21.24H134.414C133.358 21.24 132.829 20.772 132.829 19.836C132.829 19.404 132.962 19.068 133.226 18.828C133.514 18.564 133.91 18.432 134.414 18.432H136.574V14.724C136.574 14.172 136.73 13.74 137.042 13.428C137.378 13.116 137.822 12.96 138.374 12.96C138.926 12.96 139.37 13.116 139.706 13.428C140.042 13.74 140.21 14.172 140.21 14.724V18.432H143.774C144.278 18.432 144.662 18.564 144.926 18.828C145.214 19.068 145.358 19.404 145.358 19.836C145.358 20.292 145.214 20.64 144.926 20.88C144.662 21.12 144.278 21.24 143.774 21.24H140.21V29.952C140.21 31.08 140.438 31.908 140.894 32.436C141.374 32.964 142.094 33.264 143.054 33.336L144.062 33.408ZM177.873 33.696C178.089 34.008 178.197 34.344 178.197 34.704C178.197 35.136 178.017 35.508 177.657 35.82C177.321 36.108 176.925 36.252 176.469 36.252C175.797 36.252 175.257 35.952 174.849 35.352L170.025 27.864C169.473 27 168.885 26.4 168.261 26.064C167.637 25.704 166.821 25.524 165.813 25.524H161.745V34.308C161.745 34.884 161.577 35.34 161.241 35.676C160.929 36.012 160.485 36.18 159.909 36.18C159.357 36.18 158.913 36.012 158.577 35.676C158.241 35.34 158.073 34.884 158.073 34.308V12.42C158.073 11.868 158.229 11.436 158.541 11.124C158.877 10.788 159.333 10.62 159.909 10.62H168.873C171.681 10.62 173.817 11.244 175.281 12.492C176.769 13.74 177.513 15.564 177.513 17.964C177.513 19.956 176.949 21.576 175.821 22.824C174.693 24.048 173.085 24.828 170.997 25.164C171.621 25.332 172.185 25.632 172.689 26.064C173.193 26.496 173.685 27.096 174.165 27.864L177.873 33.696ZM168.441 22.536C170.313 22.536 171.693 22.176 172.581 21.456C173.493 20.712 173.949 19.572 173.949 18.036C173.949 16.5 173.505 15.384 172.617 14.688C171.729 13.968 170.337 13.608 168.441 13.608H161.709V22.536H168.441ZM190.129 36.252C188.401 36.252 186.877 35.88 185.557 35.136C184.261 34.392 183.253 33.336 182.533 31.968C181.837 30.576 181.489 28.968 181.489 27.144C181.489 25.296 181.837 23.688 182.533 22.32C183.253 20.928 184.261 19.86 185.557 19.116C186.877 18.372 188.401 18 190.129 18C191.857 18 193.369 18.372 194.665 19.116C195.985 19.86 196.993 20.928 197.689 22.32C198.409 23.688 198.769 25.296 198.769 27.144C198.769 28.968 198.409 30.576 197.689 31.968C196.993 33.336 195.985 34.392 194.665 35.136C193.369 35.88 191.857 36.252 190.129 36.252ZM190.129 33.372C191.737 33.372 192.961 32.844 193.801 31.788C194.665 30.732 195.097 29.184 195.097 27.144C195.097 25.128 194.665 23.592 193.801 22.536C192.937 21.456 191.713 20.916 190.129 20.916C188.545 20.916 187.321 21.456 186.457 22.536C185.593 23.592 185.161 25.128 185.161 27.144C185.161 29.184 185.581 30.732 186.421 31.788C187.285 32.844 188.521 33.372 190.129 33.372ZM217.261 33.264C217.621 33.624 217.801 34.044 217.801 34.524C217.801 34.98 217.633 35.376 217.297 35.712C216.985 36.024 216.601 36.18 216.145 36.18C215.689 36.18 215.269 35.976 214.885 35.568L209.377 29.376L203.905 35.568C203.521 35.976 203.101 36.18 202.645 36.18C202.189 36.18 201.793 36.012 201.457 35.676C201.145 35.34 200.989 34.944 200.989 34.488C200.989 34.032 201.157 33.624 201.493 33.264L207.181 27L201.781 20.988C201.421 20.58 201.241 20.172 201.241 19.764C201.241 19.308 201.409 18.924 201.745 18.612C202.081 18.276 202.465 18.108 202.897 18.108C203.353 18.108 203.773 18.312 204.157 18.72L209.377 24.624L214.597 18.72C214.981 18.312 215.413 18.108 215.893 18.108C216.325 18.108 216.709 18.276 217.045 18.612C217.381 18.924 217.549 19.308 217.549 19.764C217.549 20.22 217.369 20.628 217.009 20.988L211.609 27L217.261 33.264ZM228.584 18C230.912 18 232.64 18.588 233.768 19.764C234.92 20.94 235.496 22.728 235.496 25.128V34.452C235.496 35.004 235.34 35.436 235.028 35.748C234.716 36.036 234.284 36.18 233.732 36.18C233.204 36.18 232.784 36.024 232.472 35.712C232.16 35.4 232.004 34.98 232.004 34.452V33.12C231.548 34.128 230.864 34.908 229.952 35.46C229.064 35.988 228.02 36.252 226.82 36.252C225.668 36.252 224.612 36.024 223.652 35.568C222.716 35.088 221.972 34.44 221.42 33.624C220.868 32.808 220.592 31.884 220.592 30.852C220.568 29.556 220.892 28.548 221.564 27.828C222.236 27.084 223.328 26.556 224.84 26.244C226.352 25.908 228.452 25.74 231.14 25.74H231.968V24.696C231.968 23.352 231.692 22.38 231.14 21.78C230.588 21.18 229.7 20.88 228.476 20.88C227.636 20.88 226.844 20.988 226.1 21.204C225.356 21.42 224.54 21.732 223.652 22.14C223.004 22.5 222.548 22.68 222.284 22.68C221.924 22.68 221.624 22.548 221.384 22.284C221.168 22.02 221.06 21.684 221.06 21.276C221.06 20.916 221.156 20.604 221.348 20.34C221.564 20.052 221.9 19.776 222.356 19.512C223.196 19.056 224.18 18.696 225.308 18.432C226.436 18.144 227.528 18 228.584 18ZM227.468 33.552C228.788 33.552 229.868 33.108 230.708 32.22C231.548 31.308 231.968 30.144 231.968 28.728V27.792H231.32C229.448 27.792 228.008 27.876 227 28.044C225.992 28.212 225.272 28.5 224.84 28.908C224.408 29.292 224.192 29.856 224.192 30.6C224.192 31.464 224.504 32.172 225.128 32.724C225.752 33.276 226.532 33.552 227.468 33.552ZM249.937 18C254.137 18 256.237 20.364 256.237 25.092V34.452C256.237 35.004 256.069 35.436 255.733 35.748C255.421 36.036 254.977 36.18 254.401 36.18C253.849 36.18 253.405 36.024 253.069 35.712C252.757 35.4 252.601 34.98 252.601 34.452V25.272C252.601 23.784 252.301 22.692 251.701 21.996C251.125 21.3 250.213 20.952 248.965 20.952C247.501 20.952 246.325 21.408 245.437 22.32C244.549 23.232 244.105 24.456 244.105 25.992V34.452C244.105 34.98 243.937 35.4 243.601 35.712C243.289 36.024 242.857 36.18 242.305 36.18C241.753 36.18 241.309 36.024 240.973 35.712C240.637 35.4 240.469 34.98 240.469 34.452V19.8C240.469 19.296 240.637 18.888 240.973 18.576C241.333 18.24 241.777 18.072 242.305 18.072C242.833 18.072 243.253 18.228 243.565 18.54C243.877 18.852 244.033 19.26 244.033 19.764V21.24C244.609 20.184 245.413 19.38 246.445 18.828C247.477 18.276 248.641 18 249.937 18ZM274.963 31.572C275.299 31.572 275.575 31.704 275.791 31.968C276.007 32.232 276.115 32.568 276.115 32.976C276.115 33.672 275.683 34.26 274.819 34.74C273.979 35.22 273.055 35.592 272.047 35.856C271.063 36.12 270.115 36.252 269.203 36.252C266.419 36.252 264.223 35.448 262.615 33.84C261.007 32.208 260.203 29.988 260.203 27.18C260.203 25.38 260.551 23.784 261.247 22.392C261.967 21 262.963 19.92 264.235 19.152C265.531 18.384 266.995 18 268.627 18C270.979 18 272.839 18.756 274.207 20.268C275.575 21.78 276.259 23.82 276.259 26.388C276.259 27.348 275.827 27.828 274.963 27.828H263.839C264.079 31.548 265.867 33.408 269.203 33.408C270.091 33.408 270.859 33.288 271.507 33.048C272.155 32.808 272.839 32.496 273.559 32.112C273.631 32.064 273.823 31.968 274.135 31.824C274.471 31.656 274.747 31.572 274.963 31.572ZM268.699 20.664C267.307 20.664 266.191 21.108 265.351 21.996C264.511 22.884 264.007 24.132 263.839 25.74H273.127C273.055 24.108 272.635 22.86 271.867 21.996C271.123 21.108 270.067 20.664 268.699 20.664ZM281.958 31.536C282.678 31.536 283.242 31.8 283.65 32.328C284.082 32.856 284.298 33.636 284.298 34.668C284.298 36.708 283.614 38.472 282.246 39.96C281.958 40.248 281.646 40.392 281.31 40.392C280.998 40.392 280.734 40.284 280.518 40.068C280.302 39.876 280.194 39.636 280.194 39.348C280.194 39.108 280.302 38.856 280.518 38.592C281.19 37.896 281.622 37.068 281.814 36.108C281.214 36.06 280.71 35.832 280.302 35.424C279.918 35.016 279.726 34.5 279.726 33.876C279.726 33.204 279.942 32.652 280.374 32.22C280.806 31.764 281.334 31.536 281.958 31.536ZM2.424 91.552C1.704 91.6 1.152 91.504 0.768 91.264C0.384 91.024 0.192 90.652 0.192 90.148C0.192 89.764 0.312 89.452 0.552 89.212C0.792 88.996 1.176 88.864 1.704 88.816L2.712 88.744C3.648 88.696 4.344 88.408 4.8 87.88C5.28 87.352 5.52 86.512 5.52 85.36V68.836C5.52 68.26 5.688 67.828 6.024 67.54C6.384 67.228 6.828 67.072 7.356 67.072C7.884 67.072 8.316 67.228 8.652 67.54C8.988 67.828 9.156 68.26 9.156 68.836V85.144C9.156 87.16 8.688 88.684 7.752 89.716C6.816 90.748 5.364 91.336 3.396 91.48L2.424 91.552ZM7.356 63.544C6.66 63.544 6.108 63.352 5.7 62.968C5.292 62.584 5.088 62.08 5.088 61.456C5.088 60.832 5.292 60.34 5.7 59.98C6.108 59.596 6.66 59.404 7.356 59.404C8.028 59.404 8.568 59.596 8.976 59.98C9.408 60.34 9.624 60.832 9.624 61.456C9.624 62.08 9.42 62.584 9.012 62.968C8.604 63.352 8.052 63.544 7.356 63.544ZM27.9908 80.572C28.3268 80.572 28.6028 80.704 28.8188 80.968C29.0348 81.232 29.1428 81.568 29.1428 81.976C29.1428 82.672 28.7108 83.26 27.8468 83.74C27.0068 84.22 26.0828 84.592 25.0748 84.856C24.0908 85.12 23.1428 85.252 22.2308 85.252C19.4468 85.252 17.2508 84.448 15.6428 82.84C14.0348 81.208 13.2308 78.988 13.2308 76.18C13.2308 74.38 13.5788 72.784 14.2748 71.392C14.9948 70 15.9908 68.92 17.2628 68.152C18.5588 67.384 20.0228 67 21.6548 67C24.0068 67 25.8668 67.756 27.2348 69.268C28.6028 70.78 29.2868 72.82 29.2868 75.388C29.2868 76.348 28.8548 76.828 27.9908 76.828H16.8668C17.1068 80.548 18.8948 82.408 22.2308 82.408C23.1188 82.408 23.8868 82.288 24.5348 82.048C25.1828 81.808 25.8668 81.496 26.5868 81.112C26.6588 81.064 26.8508 80.968 27.1628 80.824C27.4988 80.656 27.7748 80.572 27.9908 80.572ZM21.7268 69.664C20.3348 69.664 19.2188 70.108 18.3788 70.996C17.5388 71.884 17.0348 73.132 16.8668 74.74H26.1548C26.0828 73.108 25.6628 71.86 24.8948 70.996C24.1508 70.108 23.0948 69.664 21.7268 69.664ZM48.9056 85.252C46.4576 85.252 44.4536 84.748 42.8936 83.74C42.4616 83.476 42.1496 83.2 41.9576 82.912C41.7896 82.624 41.7056 82.3 41.7056 81.94C41.7056 81.556 41.8136 81.232 42.0296 80.968C42.2456 80.704 42.5216 80.572 42.8576 80.572C43.1696 80.572 43.6616 80.764 44.3336 81.148C45.0536 81.532 45.7496 81.844 46.4216 82.084C47.1176 82.324 47.9816 82.444 49.0136 82.444C50.1656 82.444 51.0656 82.24 51.7136 81.832C52.3616 81.424 52.6856 80.848 52.6856 80.104C52.6856 79.624 52.5536 79.24 52.2896 78.952C52.0496 78.664 51.6176 78.412 50.9936 78.196C50.3696 77.956 49.4456 77.704 48.2216 77.44C46.1096 76.984 44.5856 76.372 43.6496 75.604C42.7376 74.812 42.2816 73.744 42.2816 72.4C42.2816 71.368 42.5816 70.444 43.1816 69.628C43.7816 68.788 44.6096 68.14 45.6656 67.684C46.7216 67.228 47.9216 67 49.2656 67C50.2256 67 51.1616 67.132 52.0736 67.396C52.9856 67.636 53.7896 67.996 54.4856 68.476C55.2776 69.004 55.6736 69.616 55.6736 70.312C55.6736 70.696 55.5536 71.02 55.3136 71.284C55.0976 71.548 54.8336 71.68 54.5216 71.68C54.3056 71.68 54.0896 71.632 53.8736 71.536C53.6576 71.44 53.3696 71.284 53.0096 71.068C52.3616 70.684 51.7496 70.384 51.1736 70.168C50.6216 69.952 49.9256 69.844 49.0856 69.844C48.0776 69.844 47.2616 70.06 46.6376 70.492C46.0376 70.924 45.7376 71.512 45.7376 72.256C45.7376 72.928 46.0136 73.456 46.5656 73.84C47.1416 74.2 48.2096 74.548 49.7696 74.884C51.3776 75.22 52.6376 75.604 53.5496 76.036C54.4616 76.468 55.1096 77.008 55.4936 77.656C55.9016 78.28 56.1056 79.084 56.1056 80.068C56.1056 81.628 55.4456 82.888 54.1256 83.848C52.8296 84.784 51.0896 85.252 48.9056 85.252ZM73.7608 67.072C74.3128 67.072 74.7448 67.228 75.0568 67.54C75.3928 67.852 75.5608 68.284 75.5608 68.836V83.488C75.5608 83.992 75.3928 84.4 75.0568 84.712C74.7208 85.024 74.2768 85.18 73.7248 85.18C73.2208 85.18 72.8128 85.036 72.5008 84.748C72.1888 84.436 72.0328 84.028 72.0328 83.524V82.156C71.4808 83.164 70.7128 83.932 69.7288 84.46C68.7688 84.988 67.6888 85.252 66.4888 85.252C62.2168 85.252 60.0808 82.9 60.0808 78.196V68.836C60.0808 68.284 60.2368 67.852 60.5488 67.54C60.8848 67.228 61.3408 67.072 61.9168 67.072C62.4688 67.072 62.9008 67.228 63.2128 67.54C63.5488 67.852 63.7168 68.284 63.7168 68.836V78.16C63.7168 79.576 64.0048 80.62 64.5808 81.292C65.1568 81.964 66.0448 82.3 67.2448 82.3C68.6608 82.3 69.7888 81.844 70.6288 80.932C71.4928 80.02 71.9248 78.808 71.9248 77.296V68.836C71.9248 68.308 72.0928 67.888 72.4288 67.576C72.7648 67.24 73.2088 67.072 73.7608 67.072ZM82.4849 85.18C81.9569 85.18 81.5129 85.036 81.1529 84.748C80.8169 84.46 80.6489 84.028 80.6489 83.452V68.836C80.6489 68.26 80.8169 67.828 81.1529 67.54C81.5129 67.228 81.9569 67.072 82.4849 67.072C83.0129 67.072 83.4449 67.228 83.7809 67.54C84.1169 67.828 84.2849 68.26 84.2849 68.836V83.452C84.2849 84.028 84.1169 84.46 83.7809 84.748C83.4449 85.036 83.0129 85.18 82.4849 85.18ZM82.4849 63.544C81.7889 63.544 81.2369 63.352 80.8289 62.968C80.4209 62.584 80.2169 62.08 80.2169 61.456C80.2169 60.832 80.4209 60.34 80.8289 59.98C81.2369 59.596 81.7889 59.404 82.4849 59.404C83.1569 59.404 83.6969 59.596 84.1049 59.98C84.5369 60.34 84.7529 60.832 84.7529 61.456C84.7529 62.08 84.5489 62.584 84.1409 62.968C83.7329 63.352 83.1809 63.544 82.4849 63.544ZM95.4877 85.252C93.0397 85.252 91.0357 84.748 89.4757 83.74C89.0437 83.476 88.7317 83.2 88.5397 82.912C88.3717 82.624 88.2877 82.3 88.2877 81.94C88.2877 81.556 88.3957 81.232 88.6117 80.968C88.8277 80.704 89.1037 80.572 89.4397 80.572C89.7517 80.572 90.2437 80.764 90.9157 81.148C91.6357 81.532 92.3317 81.844 93.0037 82.084C93.6997 82.324 94.5637 82.444 95.5957 82.444C96.7477 82.444 97.6477 82.24 98.2957 81.832C98.9437 81.424 99.2677 80.848 99.2677 80.104C99.2677 79.624 99.1357 79.24 98.8717 78.952C98.6317 78.664 98.1997 78.412 97.5757 78.196C96.9517 77.956 96.0277 77.704 94.8037 77.44C92.6917 76.984 91.1677 76.372 90.2317 75.604C89.3197 74.812 88.8637 73.744 88.8637 72.4C88.8637 71.368 89.1637 70.444 89.7637 69.628C90.3637 68.788 91.1917 68.14 92.2477 67.684C93.3037 67.228 94.5037 67 95.8477 67C96.8077 67 97.7437 67.132 98.6557 67.396C99.5677 67.636 100.372 67.996 101.068 68.476C101.86 69.004 102.256 69.616 102.256 70.312C102.256 70.696 102.136 71.02 101.896 71.284C101.68 71.548 101.416 71.68 101.104 71.68C100.888 71.68 100.672 71.632 100.456 71.536C100.24 71.44 99.9517 71.284 99.5917 71.068C98.9437 70.684 98.3317 70.384 97.7557 70.168C97.2037 69.952 96.5077 69.844 95.6677 69.844C94.6597 69.844 93.8437 70.06 93.2197 70.492C92.6197 70.924 92.3197 71.512 92.3197 72.256C92.3197 72.928 92.5957 73.456 93.1477 73.84C93.7237 74.2 94.7917 74.548 96.3517 74.884C97.9597 75.22 99.2197 75.604 100.132 76.036C101.044 76.468 101.692 77.008 102.076 77.656C102.484 78.28 102.688 79.084 102.688 80.068C102.688 81.628 102.028 82.888 100.708 83.848C99.4117 84.784 97.6717 85.252 95.4877 85.252ZM130.591 59.44C131.143 59.44 131.587 59.596 131.923 59.908C132.259 60.22 132.427 60.64 132.427 61.168V83.416C132.427 83.968 132.259 84.4 131.923 84.712C131.611 85.024 131.179 85.18 130.627 85.18C130.075 85.18 129.631 85.024 129.295 84.712C128.983 84.4 128.827 83.968 128.827 83.416V81.976C128.299 83.032 127.531 83.848 126.523 84.424C125.515 84.976 124.351 85.252 123.031 85.252C121.519 85.252 120.163 84.868 118.963 84.1C117.787 83.332 116.863 82.252 116.191 80.86C115.543 79.468 115.219 77.872 115.219 76.072C115.219 74.248 115.543 72.652 116.191 71.284C116.863 69.916 117.787 68.86 118.963 68.116C120.139 67.372 121.495 67 123.031 67C124.351 67 125.503 67.288 126.487 67.864C127.495 68.416 128.263 69.208 128.791 70.24V61.096C128.791 60.592 128.947 60.196 129.259 59.908C129.595 59.596 130.039 59.44 130.591 59.44ZM123.895 82.372C125.455 82.372 126.667 81.832 127.531 80.752C128.395 79.672 128.827 78.136 128.827 76.144C128.827 74.152 128.395 72.616 127.531 71.536C126.691 70.456 125.479 69.916 123.895 69.916C122.311 69.916 121.075 70.456 120.187 71.536C119.323 72.592 118.891 74.104 118.891 76.072C118.891 78.04 119.335 79.588 120.223 80.716C121.111 81.82 122.335 82.372 123.895 82.372ZM151.249 80.572C151.585 80.572 151.861 80.704 152.077 80.968C152.293 81.232 152.401 81.568 152.401 81.976C152.401 82.672 151.969 83.26 151.105 83.74C150.265 84.22 149.341 84.592 148.333 84.856C147.349 85.12 146.401 85.252 145.489 85.252C142.705 85.252 140.509 84.448 138.901 82.84C137.293 81.208 136.489 78.988 136.489 76.18C136.489 74.38 136.837 72.784 137.533 71.392C138.253 70 139.249 68.92 140.521 68.152C141.817 67.384 143.281 67 144.913 67C147.265 67 149.125 67.756 150.493 69.268C151.861 70.78 152.545 72.82 152.545 75.388C152.545 76.348 152.113 76.828 151.249 76.828H140.125C140.365 80.548 142.153 82.408 145.489 82.408C146.377 82.408 147.145 82.288 147.793 82.048C148.441 81.808 149.125 81.496 149.845 81.112C149.917 81.064 150.109 80.968 150.421 80.824C150.757 80.656 151.033 80.572 151.249 80.572ZM144.985 69.664C143.593 69.664 142.477 70.108 141.637 70.996C140.797 71.884 140.293 73.132 140.125 74.74H149.413C149.341 73.108 148.921 71.86 148.153 70.996C147.409 70.108 146.353 69.664 144.985 69.664ZM145.669 65.056C145.477 65.224 145.249 65.308 144.985 65.308C144.721 65.308 144.481 65.212 144.265 65.02C144.073 64.828 143.977 64.6 143.977 64.336C143.977 64.096 144.061 63.88 144.229 63.688L148.117 58.612C148.597 57.964 149.149 57.64 149.773 57.64C150.229 57.64 150.613 57.796 150.925 58.108C151.237 58.42 151.393 58.792 151.393 59.224C151.393 59.776 151.105 60.292 150.529 60.772L145.669 65.056ZM168.797 68.152C168.941 67.792 169.145 67.528 169.409 67.36C169.697 67.192 169.997 67.108 170.309 67.108C170.765 67.108 171.161 67.264 171.497 67.576C171.857 67.888 172.037 68.26 172.037 68.692C172.037 68.932 171.989 69.16 171.893 69.376L165.017 83.956C164.849 84.34 164.585 84.64 164.225 84.856C163.889 85.048 163.529 85.144 163.145 85.144C162.761 85.144 162.389 85.048 162.029 84.856C161.693 84.64 161.441 84.34 161.273 83.956L154.397 69.376C154.301 69.184 154.253 68.956 154.253 68.692C154.253 68.26 154.445 67.888 154.829 67.576C155.213 67.264 155.645 67.108 156.125 67.108C156.821 67.108 157.337 67.444 157.673 68.116L163.253 80.5L168.797 68.152ZM188.514 80.572C188.85 80.572 189.126 80.704 189.342 80.968C189.558 81.232 189.666 81.568 189.666 81.976C189.666 82.672 189.234 83.26 188.37 83.74C187.53 84.22 186.606 84.592 185.598 84.856C184.614 85.12 183.666 85.252 182.754 85.252C179.97 85.252 177.774 84.448 176.166 82.84C174.558 81.208 173.754 78.988 173.754 76.18C173.754 74.38 174.102 72.784 174.798 71.392C175.518 70 176.514 68.92 177.786 68.152C179.082 67.384 180.546 67 182.178 67C184.53 67 186.39 67.756 187.758 69.268C189.126 70.78 189.81 72.82 189.81 75.388C189.81 76.348 189.378 76.828 188.514 76.828H177.39C177.63 80.548 179.418 82.408 182.754 82.408C183.642 82.408 184.41 82.288 185.058 82.048C185.706 81.808 186.39 81.496 187.11 81.112C187.182 81.064 187.374 80.968 187.686 80.824C188.022 80.656 188.298 80.572 188.514 80.572ZM182.25 69.664C180.858 69.664 179.742 70.108 178.902 70.996C178.062 71.884 177.558 73.132 177.39 74.74H186.678C186.606 73.108 186.186 71.86 185.418 70.996C184.674 70.108 183.618 69.664 182.25 69.664ZM195.653 85.18C195.125 85.18 194.681 85.036 194.321 84.748C193.985 84.46 193.817 84.028 193.817 83.452V61.204C193.817 60.628 193.985 60.196 194.321 59.908C194.681 59.596 195.125 59.44 195.653 59.44C196.181 59.44 196.613 59.596 196.949 59.908C197.285 60.196 197.453 60.628 197.453 61.204V83.452C197.453 84.028 197.285 84.46 196.949 84.748C196.613 85.036 196.181 85.18 195.653 85.18ZM210.168 85.252C208.44 85.252 206.916 84.88 205.596 84.136C204.3 83.392 203.292 82.336 202.572 80.968C201.876 79.576 201.528 77.968 201.528 76.144C201.528 74.296 201.876 72.688 202.572 71.32C203.292 69.928 204.3 68.86 205.596 68.116C206.916 67.372 208.44 67 210.168 67C211.896 67 213.408 67.372 214.704 68.116C216.024 68.86 217.032 69.928 217.728 71.32C218.448 72.688 218.808 74.296 218.808 76.144C218.808 77.968 218.448 79.576 217.728 80.968C217.032 82.336 216.024 83.392 214.704 84.136C213.408 84.88 211.896 85.252 210.168 85.252ZM210.168 82.372C211.776 82.372 213 81.844 213.84 80.788C214.704 79.732 215.136 78.184 215.136 76.144C215.136 74.128 214.704 72.592 213.84 71.536C212.976 70.456 211.752 69.916 210.168 69.916C208.584 69.916 207.36 70.456 206.496 71.536C205.632 72.592 205.2 74.128 205.2 76.144C205.2 78.184 205.62 79.732 206.46 80.788C207.324 81.844 208.56 82.372 210.168 82.372ZM232.288 67C233.8 67 235.144 67.384 236.32 68.152C237.52 68.92 238.444 70 239.092 71.392C239.764 72.784 240.1 74.392 240.1 76.216C240.1 78.016 239.776 79.6 239.128 80.968C238.48 82.336 237.556 83.392 236.356 84.136C235.18 84.88 233.824 85.252 232.288 85.252C230.968 85.252 229.804 84.976 228.796 84.424C227.788 83.848 227.02 83.032 226.492 81.976V90.004C226.492 90.508 226.324 90.904 225.988 91.192C225.676 91.504 225.256 91.66 224.728 91.66C224.176 91.66 223.72 91.504 223.36 91.192C223.024 90.88 222.856 90.46 222.856 89.932V68.836C222.856 68.308 223.024 67.888 223.36 67.576C223.696 67.24 224.14 67.072 224.692 67.072C225.22 67.072 225.652 67.24 225.988 67.576C226.324 67.888 226.492 68.308 226.492 68.836V70.312C227.02 69.256 227.788 68.44 228.796 67.864C229.804 67.288 230.968 67 232.288 67ZM231.424 82.372C233.008 82.372 234.232 81.844 235.096 80.788C235.96 79.708 236.392 78.184 236.392 76.216C236.392 74.224 235.948 72.676 235.06 71.572C234.196 70.468 232.984 69.916 231.424 69.916C229.84 69.916 228.616 70.456 227.752 71.536C226.912 72.616 226.492 74.152 226.492 76.144C226.492 78.136 226.912 79.672 227.752 80.752C228.616 81.832 229.84 82.372 231.424 82.372ZM253.557 67C255.069 67 256.413 67.384 257.589 68.152C258.789 68.92 259.713 70 260.361 71.392C261.033 72.784 261.369 74.392 261.369 76.216C261.369 78.016 261.045 79.6 260.397 80.968C259.749 82.336 258.825 83.392 257.625 84.136C256.449 84.88 255.093 85.252 253.557 85.252C252.237 85.252 251.073 84.976 250.065 84.424C249.057 83.848 248.289 83.032 247.761 81.976V90.004C247.761 90.508 247.593 90.904 247.257 91.192C246.945 91.504 246.525 91.66 245.997 91.66C245.445 91.66 244.989 91.504 244.629 91.192C244.293 90.88 244.125 90.46 244.125 89.932V68.836C244.125 68.308 244.293 67.888 244.629 67.576C244.965 67.24 245.409 67.072 245.961 67.072C246.489 67.072 246.921 67.24 247.257 67.576C247.593 67.888 247.761 68.308 247.761 68.836V70.312C248.289 69.256 249.057 68.44 250.065 67.864C251.073 67.288 252.237 67 253.557 67ZM252.693 82.372C254.277 82.372 255.501 81.844 256.365 80.788C257.229 79.708 257.661 78.184 257.661 76.216C257.661 74.224 257.217 72.676 256.329 71.572C255.465 70.468 254.253 69.916 252.693 69.916C251.109 69.916 249.885 70.456 249.021 71.536C248.181 72.616 247.761 74.152 247.761 76.144C247.761 78.136 248.181 79.672 249.021 80.752C249.885 81.832 251.109 82.372 252.693 82.372ZM279.147 80.572C279.483 80.572 279.759 80.704 279.975 80.968C280.191 81.232 280.299 81.568 280.299 81.976C280.299 82.672 279.867 83.26 279.003 83.74C278.163 84.22 277.239 84.592 276.231 84.856C275.247 85.12 274.299 85.252 273.387 85.252C270.603 85.252 268.407 84.448 266.799 82.84C265.191 81.208 264.387 78.988 264.387 76.18C264.387 74.38 264.735 72.784 265.431 71.392C266.151 70 267.147 68.92 268.419 68.152C269.715 67.384 271.179 67 272.811 67C275.163 67 277.023 67.756 278.391 69.268C279.759 70.78 280.443 72.82 280.443 75.388C280.443 76.348 280.011 76.828 279.147 76.828H268.023C268.263 80.548 270.051 82.408 273.387 82.408C274.275 82.408 275.043 82.288 275.691 82.048C276.339 81.808 277.023 81.496 277.743 81.112C277.815 81.064 278.007 80.968 278.319 80.824C278.655 80.656 278.931 80.572 279.147 80.572ZM272.883 69.664C271.491 69.664 270.375 70.108 269.535 70.996C268.695 71.884 268.191 73.132 268.023 74.74H277.311C277.239 73.108 276.819 71.86 276.051 70.996C275.307 70.108 274.251 69.664 272.883 69.664ZM298.058 67.072C298.61 67.072 299.042 67.228 299.354 67.54C299.69 67.852 299.858 68.284 299.858 68.836V83.488C299.858 83.992 299.69 84.4 299.354 84.712C299.018 85.024 298.574 85.18 298.022 85.18C297.518 85.18 297.11 85.036 296.798 84.748C296.486 84.436 296.33 84.028 296.33 83.524V82.156C295.778 83.164 295.01 83.932 294.026 84.46C293.066 84.988 291.986 85.252 290.786 85.252C286.514 85.252 284.378 82.9 284.378 78.196V68.836C284.378 68.284 284.534 67.852 284.846 67.54C285.182 67.228 285.638 67.072 286.214 67.072C286.766 67.072 287.198 67.228 287.51 67.54C287.846 67.852 288.014 68.284 288.014 68.836V78.16C288.014 79.576 288.302 80.62 288.878 81.292C289.454 81.964 290.342 82.3 291.542 82.3C292.958 82.3 294.086 81.844 294.926 80.932C295.79 80.02 296.222 78.808 296.222 77.296V68.836C296.222 68.308 296.39 67.888 296.726 67.576C297.062 67.24 297.506 67.072 298.058 67.072ZM311.066 85.252C308.618 85.252 306.614 84.748 305.054 83.74C304.622 83.476 304.31 83.2 304.118 82.912C303.95 82.624 303.866 82.3 303.866 81.94C303.866 81.556 303.974 81.232 304.19 80.968C304.406 80.704 304.682 80.572 305.018 80.572C305.33 80.572 305.822 80.764 306.494 81.148C307.214 81.532 307.91 81.844 308.582 82.084C309.278 82.324 310.142 82.444 311.174 82.444C312.326 82.444 313.226 82.24 313.874 81.832C314.522 81.424 314.846 80.848 314.846 80.104C314.846 79.624 314.714 79.24 314.45 78.952C314.21 78.664 313.778 78.412 313.154 78.196C312.53 77.956 311.606 77.704 310.382 77.44C308.27 76.984 306.746 76.372 305.81 75.604C304.898 74.812 304.442 73.744 304.442 72.4C304.442 71.368 304.742 70.444 305.342 69.628C305.942 68.788 306.77 68.14 307.826 67.684C308.882 67.228 310.082 67 311.426 67C312.386 67 313.322 67.132 314.234 67.396C315.146 67.636 315.95 67.996 316.646 68.476C317.438 69.004 317.834 69.616 317.834 70.312C317.834 70.696 317.714 71.02 317.474 71.284C317.258 71.548 316.994 71.68 316.682 71.68C316.466 71.68 316.25 71.632 316.034 71.536C315.818 71.44 315.53 71.284 315.17 71.068C314.522 70.684 313.91 70.384 313.334 70.168C312.782 69.952 312.086 69.844 311.246 69.844C310.238 69.844 309.422 70.06 308.798 70.492C308.198 70.924 307.898 71.512 307.898 72.256C307.898 72.928 308.174 73.456 308.726 73.84C309.302 74.2 310.37 74.548 311.93 74.884C313.538 75.22 314.798 75.604 315.71 76.036C316.622 76.468 317.27 77.008 317.654 77.656C318.062 78.28 318.266 79.084 318.266 80.068C318.266 81.628 317.606 82.888 316.286 83.848C314.99 84.784 313.25 85.252 311.066 85.252ZM336.065 80.572C336.401 80.572 336.677 80.704 336.893 80.968C337.109 81.232 337.217 81.568 337.217 81.976C337.217 82.672 336.785 83.26 335.921 83.74C335.081 84.22 334.157 84.592 333.149 84.856C332.165 85.12 331.217 85.252 330.305 85.252C327.521 85.252 325.325 84.448 323.717 82.84C322.109 81.208 321.305 78.988 321.305 76.18C321.305 74.38 321.653 72.784 322.349 71.392C323.069 70 324.065 68.92 325.337 68.152C326.633 67.384 328.097 67 329.729 67C332.081 67 333.941 67.756 335.309 69.268C336.677 70.78 337.361 72.82 337.361 75.388C337.361 76.348 336.929 76.828 336.065 76.828H324.941C325.181 80.548 326.969 82.408 330.305 82.408C331.193 82.408 331.961 82.288 332.609 82.048C333.257 81.808 333.941 81.496 334.661 81.112C334.733 81.064 334.925 80.968 335.237 80.824C335.573 80.656 335.849 80.572 336.065 80.572ZM329.801 69.664C328.409 69.664 327.293 70.108 326.453 70.996C325.613 71.884 325.109 73.132 324.941 74.74H334.229C334.157 73.108 333.737 71.86 332.969 70.996C332.225 70.108 331.169 69.664 329.801 69.664ZM374.764 68.188C375.028 67.468 375.52 67.108 376.24 67.108C376.696 67.108 377.104 67.264 377.464 67.576C377.824 67.888 378.004 68.272 378.004 68.728C378.004 68.968 377.956 69.184 377.86 69.376L371.884 83.956C371.74 84.34 371.5 84.64 371.164 84.856C370.828 85.048 370.456 85.144 370.048 85.144C369.664 85.144 369.304 85.048 368.968 84.856C368.632 84.64 368.392 84.34 368.248 83.956L363.568 72.4L358.996 83.956C358.852 84.34 358.612 84.64 358.276 84.856C357.964 85.048 357.604 85.144 357.196 85.144C356.812 85.144 356.44 85.048 356.08 84.856C355.744 84.64 355.492 84.34 355.324 83.956L349.384 69.376C349.288 69.184 349.24 68.98 349.24 68.764C349.24 68.284 349.432 67.888 349.816 67.576C350.224 67.264 350.668 67.108 351.148 67.108C351.868 67.108 352.36 67.456 352.624 68.152L357.268 80.428L362.02 68.26C362.164 67.876 362.392 67.588 362.704 67.396C363.016 67.204 363.352 67.108 363.712 67.108C364.048 67.108 364.372 67.204 364.684 67.396C364.996 67.588 365.224 67.876 365.368 68.26L370.12 80.356L374.764 68.188ZM394.881 80.572C395.217 80.572 395.493 80.704 395.709 80.968C395.925 81.232 396.033 81.568 396.033 81.976C396.033 82.672 395.601 83.26 394.737 83.74C393.897 84.22 392.973 84.592 391.965 84.856C390.981 85.12 390.033 85.252 389.121 85.252C386.337 85.252 384.141 84.448 382.533 82.84C380.925 81.208 380.121 78.988 380.121 76.18C380.121 74.38 380.469 72.784 381.165 71.392C381.885 70 382.881 68.92 384.153 68.152C385.449 67.384 386.913 67 388.545 67C390.897 67 392.757 67.756 394.125 69.268C395.493 70.78 396.177 72.82 396.177 75.388C396.177 76.348 395.745 76.828 394.881 76.828H383.757C383.997 80.548 385.785 82.408 389.121 82.408C390.009 82.408 390.777 82.288 391.425 82.048C392.073 81.808 392.757 81.496 393.477 81.112C393.549 81.064 393.741 80.968 394.053 80.824C394.389 80.656 394.665 80.572 394.881 80.572ZM388.617 69.664C387.225 69.664 386.109 70.108 385.269 70.996C384.429 71.884 383.925 73.132 383.757 74.74H393.045C392.973 73.108 392.553 71.86 391.785 70.996C391.041 70.108 389.985 69.664 388.617 69.664ZM409.616 67C411.152 67 412.508 67.372 413.684 68.116C414.86 68.86 415.772 69.916 416.42 71.284C417.092 72.652 417.428 74.248 417.428 76.072C417.428 77.872 417.092 79.468 416.42 80.86C415.772 82.252 414.848 83.332 413.648 84.1C412.472 84.868 411.128 85.252 409.616 85.252C408.296 85.252 407.132 84.976 406.124 84.424C405.116 83.848 404.348 83.032 403.82 81.976V83.416C403.82 83.944 403.652 84.376 403.316 84.712C403.004 85.024 402.572 85.18 402.02 85.18C401.468 85.18 401.024 85.024 400.688 84.712C400.352 84.376 400.184 83.944 400.184 83.416V61.168C400.184 60.64 400.352 60.22 400.688 59.908C401.048 59.596 401.504 59.44 402.056 59.44C402.584 59.44 403.004 59.596 403.316 59.908C403.652 60.196 403.82 60.592 403.82 61.096V70.312C404.348 69.256 405.116 68.44 406.124 67.864C407.132 67.288 408.296 67 409.616 67ZM408.752 82.372C410.312 82.372 411.524 81.82 412.388 80.716C413.276 79.612 413.72 78.064 413.72 76.072C413.72 74.104 413.288 72.592 412.424 71.536C411.56 70.456 410.336 69.916 408.752 69.916C407.168 69.916 405.944 70.456 405.08 71.536C404.24 72.616 403.82 74.152 403.82 76.144C403.82 78.136 404.24 79.672 405.08 80.752C405.944 81.832 407.168 82.372 408.752 82.372ZM422.69 85.18C422.042 85.18 421.49 84.964 421.034 84.532C420.602 84.1 420.386 83.548 420.386 82.876C420.386 82.204 420.602 81.652 421.034 81.22C421.49 80.764 422.042 80.536 422.69 80.536C423.338 80.536 423.878 80.764 424.31 81.22C424.742 81.652 424.958 82.204 424.958 82.876C424.958 83.548 424.742 84.1 424.31 84.532C423.878 84.964 423.338 85.18 422.69 85.18Z" fill="#EFEDF8"/>
</svg>
